<svg width="61" height="26" viewBox="0 0 61 26" fill="none" xmlns="http://www.w3.org/2000/svg">
<path d="M11.3045 3.7822C10.5954 4.62126 9.46092 5.28306 8.32642 5.18852C8.1846 4.05401 8.74004 2.8486 9.39001 2.10408C10.0991 1.24138 11.3399 0.626861 12.3445 0.57959C12.4626 1.76137 12.0017 2.91951 11.3045 3.7822ZM12.3326 5.41305C10.69 5.31851 9.28366 6.34666 8.50368 6.34666C7.71189 6.34666 6.5183 5.46032 5.21835 5.48396C3.52841 5.5076 1.95664 6.46483 1.09395 7.98933C-0.678717 11.0383 0.633055 15.5527 2.34663 18.0344C3.18569 19.2635 4.1902 20.6107 5.51379 20.5634C6.76647 20.5161 7.26282 19.748 8.77549 19.748C10.3 19.748 10.7372 20.5634 12.0608 20.5398C13.4317 20.5161 14.2944 19.3107 15.1334 18.0817C16.0907 16.6872 16.4807 15.3282 16.5043 15.2572C16.4807 15.2336 13.8571 14.2291 13.8335 11.2038C13.8099 8.67476 15.9016 7.46934 15.9961 7.39844C14.8144 5.64941 12.9708 5.46032 12.3326 5.41305ZM21.8223 1.9859V20.4098H24.6822V14.1109H28.6411C32.2574 14.1109 34.7982 11.6292 34.7982 8.0366C34.7982 4.444 32.3047 1.9859 28.7357 1.9859H21.8223ZM24.6822 4.39673H27.9794C30.4611 4.39673 31.8792 5.72031 31.8792 8.04841C31.8792 10.3765 30.4611 11.7119 27.9675 11.7119H24.6822V4.39673ZM40.0216 20.5516C41.8179 20.5516 43.4842 19.6416 44.2406 18.1999H44.2997V20.4098H46.9469V11.2392C46.9469 8.58021 44.8197 6.86664 41.5461 6.86664C38.509 6.86664 36.2636 8.60385 36.1809 10.991H38.7571C38.9699 9.85653 40.0216 9.11201 41.4634 9.11201C43.2124 9.11201 44.1933 9.92744 44.1933 11.4283V12.4446L40.6244 12.6573C37.3036 12.8582 35.5073 14.2173 35.5073 16.5808C35.5073 18.968 37.3627 20.5516 40.0216 20.5516ZM40.7898 18.3653C39.2653 18.3653 38.2963 17.6326 38.2963 16.5099C38.2963 15.3518 39.2299 14.6782 41.0143 14.5718L44.1933 14.3709V15.4109C44.1933 17.1363 42.7279 18.3653 40.7898 18.3653ZM50.4804 25.4205C53.2694 25.4205 54.5811 24.3569 55.7275 21.1307L60.75 7.0439H57.8428L54.4748 17.9281H54.4157L51.0476 7.0439H48.0577L52.903 20.4571L52.643 21.2725C52.2058 22.6552 51.4967 23.187 50.2322 23.187C50.0077 23.187 49.5704 23.1633 49.3931 23.1397V25.3496C49.5586 25.3969 50.2676 25.4205 50.4804 25.4205Z" fill="white"/>
</svg>
