<svg width="121" height="120" viewBox="0 0 121 120" fill="none" xmlns="http://www.w3.org/2000/svg">
<path d="M120.5 60C120.5 93.1371 93.6371 120 60.5 120C27.3629 120 0.5 93.1371 0.5 60C0.5 26.8629 27.3629 0 60.5 0C93.6371 0 120.5 26.8629 120.5 60Z" fill="#0CAE35" fill-opacity="0.1"/>
<path fill-rule="evenodd" clip-rule="evenodd" d="M79.8602 56.3595C72.0552 56.3595 65.7207 62.694 65.7207 70.4989C65.7207 78.3039 72.0552 84.6384 79.8602 84.6384C87.6651 84.6384 93.9996 78.3039 93.9996 70.4989C93.9996 62.694 87.6651 56.3595 79.8602 56.3595ZM79.8602 60.8246C85.2004 60.8246 89.5345 65.1587 89.5345 70.4989C89.5345 75.8392 85.2004 80.1733 79.8602 80.1733C74.5199 80.1733 70.1858 75.8392 70.1858 70.4989C70.1858 65.1587 74.5199 60.8246 79.8602 60.8246Z" fill="#0CAE35"/>
<path fill-rule="evenodd" clip-rule="evenodd" d="M74.0699 73.5648L77.0466 76.5415C77.4991 76.994 78.1182 77.2291 78.7552 77.1934C79.3893 77.1547 79.9816 76.8511 80.3746 76.351L86.075 69.1652C86.84 68.1977 86.6763 66.7927 85.7118 66.0277C84.7474 65.2627 83.3394 65.4234 82.5744 66.3909L78.4338 71.615L77.2282 70.4094C76.356 69.5373 74.9421 69.5373 74.0699 70.4094C73.2007 71.2786 73.2007 72.6956 74.0699 73.5648Z" fill="#0CAE35"/>
<path fill-rule="evenodd" clip-rule="evenodd" d="M88.0462 60.1884C88.0462 54.5178 88.0462 50.9457 88.0462 46.686C88.0462 44.516 87.1829 42.4323 85.6499 40.8963C84.1139 39.3633 82.0302 38.5 79.8602 38.5C69.5518 38.5 48.4944 38.5 38.186 38.5C36.016 38.5 33.9323 39.3633 32.3963 40.8963C30.8633 42.4323 30 44.516 30 46.686V73.4765C30 75.6466 30.8633 77.7303 32.3963 79.2663C33.9323 80.7993 36.016 81.6625 38.186 81.6625H71.9867C73.2191 81.6625 74.2193 80.6623 74.2193 79.43C74.2193 78.1976 73.2191 77.1974 71.9867 77.1974C60.9044 77.1974 46.8155 77.1974 38.186 77.1974C37.1977 77.1974 36.2541 76.8045 35.5546 76.108C34.858 75.4084 34.4651 74.4648 34.4651 73.4765C34.4651 66.2014 34.4651 53.9611 34.4651 46.686C34.4651 45.6977 34.858 44.7541 35.5546 44.0546C36.2541 43.358 37.1977 42.9651 38.186 42.9651H79.8602C80.8484 42.9651 81.7921 43.358 82.4916 44.0546C83.1881 44.7541 83.5811 45.6977 83.5811 46.686V60.1884C83.5811 61.4208 84.5812 62.421 85.8136 62.421C87.046 62.421 88.0462 61.4208 88.0462 60.1884Z" fill="#0CAE35"/>
<path fill-rule="evenodd" clip-rule="evenodd" d="M85.8136 50.4077H32.2325C31.0002 50.4077 30 51.4079 30 52.6403C30 53.8726 31.0002 54.8728 32.2325 54.8728H85.8136C87.046 54.8728 88.0462 53.8726 88.0462 52.6403C88.0462 51.4079 87.046 50.4077 85.8136 50.4077Z" fill="#0CAE35"/>
<path fill-rule="evenodd" clip-rule="evenodd" d="M50.0973 68.2672H41.1642C39.9318 68.2672 38.9316 69.2674 38.9316 70.4998C38.9316 71.7321 39.9318 72.7323 41.1642 72.7323H50.0973C51.3297 72.7323 52.3299 71.7321 52.3299 70.4998C52.3299 69.2674 51.3297 68.2672 50.0973 68.2672Z" fill="#0CAE35"/>
</svg>
