<svg width="121" height="120" viewBox="0 0 121 120" fill="none" xmlns="http://www.w3.org/2000/svg">
<path d="M120.5 60C120.5 93.1371 93.6371 120 60.5 120C27.3629 120 0.5 93.1371 0.5 60C0.5 26.8629 27.3629 0 60.5 0C93.6371 0 120.5 26.8629 120.5 60Z" fill="#5390F3" fill-opacity="0.1"/>
<path fill-rule="evenodd" clip-rule="evenodd" d="M88.0465 59.6886C88.0465 54.0179 88.0465 50.4458 88.0465 46.186C88.0465 44.016 87.1833 41.9323 85.6502 40.3963C84.1142 38.8633 82.0305 38 79.8605 38C69.552 38 48.4945 38 38.186 38C36.016 38 33.9323 38.8633 32.3963 40.3963C30.8633 41.9323 30 44.016 30 46.186V72.9767C30 75.1468 30.8633 77.2305 32.3963 78.7665C33.9323 80.2995 36.016 81.1628 38.186 81.1628H71.987C73.2193 81.1628 74.2195 80.1626 74.2195 78.9302C74.2195 77.6979 73.2193 76.6977 71.987 76.6977C60.9046 76.6977 46.8156 76.6977 38.186 76.6977C37.1978 76.6977 36.2541 76.3047 35.5546 75.6082C34.858 74.9087 34.4651 73.965 34.4651 72.9767C34.4651 65.7016 34.4651 53.4612 34.4651 46.186C34.4651 45.1978 34.858 44.2541 35.5546 43.5546C36.2541 42.858 37.1978 42.4651 38.186 42.4651H79.8605C80.8487 42.4651 81.7924 42.858 82.4919 43.5546C83.1885 44.2541 83.5814 45.1978 83.5814 46.186V59.6886C83.5814 60.9209 84.5816 61.9211 85.814 61.9211C87.0463 61.9211 88.0465 60.9209 88.0465 59.6886Z" fill="#5390F3"/>
<path fill-rule="evenodd" clip-rule="evenodd" d="M85.814 49.907H32.2326C31.0002 49.907 30 50.9072 30 52.1395C30 53.3719 31.0002 54.3721 32.2326 54.3721H85.814C87.0463 54.3721 88.0465 53.3719 88.0465 52.1395C88.0465 50.9072 87.0463 49.907 85.814 49.907Z" fill="#5390F3"/>
<path fill-rule="evenodd" clip-rule="evenodd" d="M50.0955 67.7675H41.1622C39.9299 67.7675 38.9297 68.7676 38.9297 70C38.9297 71.2324 39.9299 72.2326 41.1622 72.2326H50.0955C51.3278 72.2326 52.328 71.2324 52.328 70C52.328 68.7676 51.3278 67.7675 50.0955 67.7675Z" fill="#5390F3"/>
<path fill-rule="evenodd" clip-rule="evenodd" d="M79.8602 55.8605C72.0552 55.8605 65.7207 62.195 65.7207 70C65.7207 77.805 72.0552 84.1395 79.8602 84.1395C87.6653 84.1395 93.9998 77.805 93.9998 70C93.9998 62.195 87.6653 55.8605 79.8602 55.8605ZM79.8602 60.3256C85.2005 60.3256 89.5347 64.6597 89.5347 70C89.5347 75.3403 85.2005 79.6744 79.8602 79.6744C74.52 79.6744 70.1858 75.3403 70.1858 70C70.1858 64.6597 74.52 60.3256 79.8602 60.3256Z" fill="#5390F3"/>
<path fill-rule="evenodd" clip-rule="evenodd" d="M77.627 64.0465V75.9535C77.627 77.1859 78.6271 78.1861 79.8595 78.1861C81.0919 78.1861 82.0921 77.1859 82.0921 75.9535V64.0465C82.0921 62.8142 81.0919 61.814 79.8595 61.814C78.6271 61.814 77.627 62.8142 77.627 64.0465Z" fill="#5390F3"/>
<path fill-rule="evenodd" clip-rule="evenodd" d="M73.9064 72.2326H85.8134C87.0457 72.2326 88.0459 71.2324 88.0459 70C88.0459 68.7676 87.0457 67.7675 85.8134 67.7675H73.9064C72.674 67.7675 71.6738 68.7676 71.6738 70C71.6738 71.2324 72.674 72.2326 73.9064 72.2326Z" fill="#5390F3"/>
</svg>
