<svg xmlns="http://www.w3.org/2000/svg" width="28" height="28" viewBox="0 0 28 28" fill="none">
    <circle cx="14" cy="14" r="14" fill="#5390F3"/>
    <mask id="mask0_894_30821" style="mask-type:alpha" maskUnits="userSpaceOnUse" x="6" y="6" width="16" height="16">
        <rect x="6" y="6" width="16" height="16" fill="#D9D9D9"/>
    </mask>
    <g mask="url(#mask0_894_30821)">
        <path d="M18.6655 10.6664V9.33305H17.3322V7.99972H18.6655V6.66638H19.9989V7.99972H21.3322V9.33305H19.9989V10.6664H18.6655ZM13.3322 17.6664C14.1655 17.6664 14.8739 17.3747 15.4572 16.7914C16.0405 16.208 16.3322 15.4997 16.3322 14.6664C16.3322 13.833 16.0405 13.1247 15.4572 12.5414C14.8739 11.958 14.1655 11.6664 13.3322 11.6664C12.4989 11.6664 11.7905 11.958 11.2072 12.5414C10.6239 13.1247 10.3322 13.833 10.3322 14.6664C10.3322 15.4997 10.6239 16.208 11.2072 16.7914C11.7905 17.3747 12.4989 17.6664 13.3322 17.6664ZM13.3322 16.333C12.8655 16.333 12.4711 16.1719 12.1489 15.8497C11.8266 15.5275 11.6655 15.133 11.6655 14.6664C11.6655 14.1997 11.8266 13.8053 12.1489 13.483C12.4711 13.1608 12.8655 12.9997 13.3322 12.9997C13.7989 12.9997 14.1933 13.1608 14.5155 13.483C14.8378 13.8053 14.9989 14.1997 14.9989 14.6664C14.9989 15.133 14.8378 15.5275 14.5155 15.8497C14.1933 16.1719 13.7989 16.333 13.3322 16.333ZM7.99886 19.9997C7.63219 19.9997 7.31831 19.8692 7.05719 19.608C6.79608 19.3469 6.66553 19.033 6.66553 18.6664V10.6664C6.66553 10.2997 6.79608 9.98583 7.05719 9.72472C7.31831 9.4636 7.63219 9.33305 7.99886 9.33305H10.0989L11.3322 7.99972H15.9989V10.6664H17.3322V11.9997H19.9989V18.6664C19.9989 19.033 19.8683 19.3469 19.6072 19.608C19.3461 19.8692 19.0322 19.9997 18.6655 19.9997H7.99886Z" fill="white"/>
    </g>
</svg>