<svg width="12" height="7" viewBox="0 0 12 7" fill="none" xmlns="http://www.w3.org/2000/svg">
<path d="M5.53176 6.80994L0.191706 1.50758C0.068097 1.38495 0 1.22124 0 1.04668C0 0.872118 0.068097 0.708408 0.191706 0.585771L0.584873 0.195289C0.841066 -0.0587998 1.25745 -0.0587998 1.51326 0.195289L5.99751 4.64781L10.4867 0.190349C10.6104 0.0677119 10.7751 0 10.9508 0C11.1267 0 11.2915 0.0677119 11.4152 0.190349L11.8083 0.580831C11.9319 0.703565 12 0.867178 12 1.04174C12 1.2163 11.9319 1.38001 11.8083 1.50264L6.46336 6.80994C6.33936 6.93287 6.1738 7.00039 5.99781 7C5.82112 7.00039 5.65566 6.93287 5.53176 6.80994Z" fill="#A7A9AC"/>
</svg>
