<svg width="6" height="10" viewBox="0 0 6 10" fill="none" xmlns="http://www.w3.org/2000/svg">
<path id="Vector" d="M0.162908 5.3902L4.70779 9.84025C4.8129 9.94325 4.95323 10 5.10285 10C5.25247 10 5.39279 9.94325 5.49791 9.84025L5.83261 9.51261C6.0504 9.29911 6.0504 8.95212 5.83261 8.73895L2.01616 5.00207L5.83684 1.26105C5.94196 1.15804 6 1.02072 6 0.874302C6 0.727717 5.94196 0.590402 5.83684 0.487312L5.50215 0.159755C5.39695 0.0567474 5.25671 -6.49809e-08 5.10708 -7.80613e-08C4.95746 -9.11417e-08 4.81714 0.0567473 4.71202 0.159755L0.162909 4.61386C0.0575423 4.7172 -0.000330475 4.85516 1.39063e-06 5.00183C-0.000330501 5.14906 0.0575423 5.28695 0.162908 5.3902Z" fill="#1E1E1E"/>
</svg>
