<svg width="13" height="7" viewBox="0 0 13 7" fill="none" xmlns="http://www.w3.org/2000/svg">
<path id="Vector" d="M6.96824 6.80994L12.3083 1.50758C12.4319 1.38495 12.5 1.22124 12.5 1.04668C12.5 0.872118 12.4319 0.708408 12.3083 0.585771L11.9151 0.195289C11.6589 -0.0587999 11.2425 -0.0587999 10.9867 0.195289L6.50249 4.64781L2.01326 0.190349C1.88965 0.0677115 1.72487 -4.70996e-07 1.54916 -4.78676e-07C1.37326 -4.86365e-07 1.20848 0.0677114 1.08477 0.190348L0.691706 0.58083C0.568097 0.703564 0.5 0.867177 0.5 1.04174C0.5 1.2163 0.568097 1.38001 0.691706 1.50264L6.03664 6.80994C6.16064 6.93287 6.3262 7.00039 6.50219 7C6.67888 7.00039 6.84434 6.93287 6.96824 6.80994Z" fill="#0CAE35"/>
</svg>
