<svg width="6" height="10" viewBox="0 0 6 10" fill="none" xmlns="http://www.w3.org/2000/svg">
<path id="Vector" d="M0.162908 5.39215L4.70779 9.8422C4.8129 9.94521 4.95323 10.002 5.10285 10.002C5.25247 10.002 5.39279 9.94521 5.49791 9.8422L5.83261 9.51456C6.0504 9.30106 6.0504 8.95408 5.83261 8.74091L2.01616 5.00403L5.83684 1.263C5.94196 1.15999 6 1.02268 6 0.876255C6 0.729671 5.94196 0.592355 5.83684 0.489265L5.50215 0.161708C5.39695 0.0587005 5.25671 0.00195306 5.10708 0.00195305C4.95746 0.00195303 4.81714 0.0587005 4.71202 0.161708L0.162909 4.61582C0.0575423 4.71915 -0.000330475 4.85712 1.39063e-06 5.00378C-0.000330501 5.15102 0.0575423 5.2889 0.162908 5.39215Z" fill="#1E1E1E"/>
</svg>
