<svg width="6" height="10" viewBox="0 0 6 10" fill="none" xmlns="http://www.w3.org/2000/svg">
<path id="Vector" d="M5.83709 4.61175L1.29221 0.161708C1.1871 0.0587006 1.04677 0.00195312 0.897152 0.00195312C0.74753 0.00195312 0.607207 0.0587006 0.50209 0.161708L0.167391 0.489347C-0.0503999 0.702842 -0.0503999 1.04983 0.167391 1.263L3.98384 4.99988L0.163156 8.74091C0.0580388 8.84391 0 8.98123 0 9.12765C0 9.27424 0.0580388 9.41155 0.163156 9.51464L0.497855 9.8422C0.603055 9.94521 0.743295 10.002 0.892917 10.002C1.04254 10.002 1.18286 9.94521 1.28798 9.8422L5.83709 5.38809C5.94246 5.28476 6.00033 5.14679 6 5.00012C6.00033 4.85289 5.94246 4.715 5.83709 4.61175Z" fill="#1E1E1E"/>
</svg>
