<svg width="14" height="14" viewBox="0 0 14 14" fill="none" xmlns="http://www.w3.org/2000/svg">
<path d="M9.80994 6.53176L4.50758 1.19171C4.38495 1.0681 4.22124 1 4.04668 1C3.87212 1 3.70841 1.0681 3.58577 1.19171L3.19529 1.58487C2.9412 1.84107 2.9412 2.25745 3.19529 2.51326L7.64781 6.99751L3.19035 11.4867C3.06771 11.6104 3 11.7751 3 11.9508C3 12.1267 3.06771 12.2915 3.19035 12.4152L3.58083 12.8083C3.70356 12.9319 3.86718 13 4.04174 13C4.2163 13 4.38001 12.9319 4.50264 12.8083L9.80994 7.46336C9.93287 7.33936 10.0004 7.1738 10 6.99781C10.0004 6.82112 9.93287 6.65566 9.80994 6.53176Z" fill="white"/>
</svg>
