<svg width="16" height="16" viewBox="0 0 16 16" fill="none" xmlns="http://www.w3.org/2000/svg">
<g id="fi_305025" clip-path="url(#clip0_894_28784)">
<g id="Group">
<g id="Group_2">
<path id="Vector" d="M13.6112 1.87208V0.00195312H12.3644V1.87208H11.1177H9.87094H8.62419H7.37744H6.13069H4.88394H3.63719V0.00195312H2.39044V1.87208H0.3125V16.002H15.6891V1.87208H13.6112ZM14.4424 14.7552H1.55925V6.02792H14.4424V14.7552ZM14.4424 4.78117H1.55925V3.11883H14.4424V4.78117Z" fill="#A7A9AC"/>
</g>
</g>
<g id="Group_3">
<g id="Group_4">
<path id="Vector_2" d="M4.88347 7.27466H3.63672V8.52141H4.88347V7.27466Z" fill="#A7A9AC"/>
</g>
</g>
<g id="Group_5">
<g id="Group_6">
<path id="Vector_3" d="M7.37566 7.27466H6.12891V8.52141H7.37566V7.27466Z" fill="#A7A9AC"/>
</g>
</g>
<g id="Group_7">
<g id="Group_8">
<path id="Vector_4" d="M4.88347 9.76819H3.63672V11.0149H4.88347V9.76819Z" fill="#A7A9AC"/>
</g>
</g>
<g id="Group_9">
<g id="Group_10">
<path id="Vector_5" d="M7.37566 9.76819H6.12891V11.0149H7.37566V9.76819Z" fill="#A7A9AC"/>
</g>
</g>
<g id="Group_11">
<g id="Group_12">
<path id="Vector_6" d="M4.88347 12.2617H3.63672V13.5085H4.88347V12.2617Z" fill="#A7A9AC"/>
</g>
</g>
<g id="Group_13">
<g id="Group_14">
<path id="Vector_7" d="M7.37566 12.2617H6.12891V13.5085H7.37566V12.2617Z" fill="#A7A9AC"/>
</g>
</g>
<g id="Group_15">
<g id="Group_16">
<path id="Vector_8" d="M9.87175 7.27466H8.625V8.52141H9.87175V7.27466Z" fill="#A7A9AC"/>
</g>
</g>
<g id="Group_17">
<g id="Group_18">
<path id="Vector_9" d="M9.87175 9.76819H8.625V11.0149H9.87175V9.76819Z" fill="#A7A9AC"/>
</g>
</g>
<g id="Group_19">
<g id="Group_20">
<path id="Vector_10" d="M9.87175 12.2617H8.625V13.5085H9.87175V12.2617Z" fill="#A7A9AC"/>
</g>
</g>
<g id="Group_21">
<g id="Group_22">
<path id="Vector_11" d="M12.3639 7.27466H11.1172V8.52141H12.3639V7.27466Z" fill="#A7A9AC"/>
</g>
</g>
<g id="Group_23">
<g id="Group_24">
<path id="Vector_12" d="M12.3639 9.76819H11.1172V11.0149H12.3639V9.76819Z" fill="#A7A9AC"/>
</g>
</g>
</g>
<defs>
<clipPath id="clip0_894_28784">
<rect width="16" height="16" fill="white" transform="translate(0 0.00195312)"/>
</clipPath>
</defs>
</svg>
