<svg width="28" height="28" viewBox="0 0 28 28" fill="none" xmlns="http://www.w3.org/2000/svg">
<rect opacity="0.1" width="28" height="28" rx="4" fill="#1E1E1E"/>
<g clip-path="url(#clip0_1915_20506)">
<path d="M17.0197 13.9059C18.0065 13.9059 18.8093 13.1031 18.8093 12.1162H17.8718C17.8718 12.5861 17.4896 12.9684 17.0197 12.9684C16.6155 12.9684 16.2763 12.6853 16.1894 12.3071H17.1732V11.3696H16.1676V10.6359H17.1732V9.69837H16.2165C16.3337 9.36781 16.6494 9.13034 17.0197 9.13034C17.4895 9.13034 17.8718 9.51259 17.8718 9.98247H18.8093C18.8093 8.99568 18.0065 8.19284 17.0197 8.19284C16.1296 8.19284 15.3894 8.84615 15.2529 9.69837H14.4473V10.6359H15.2301V11.3696H14.4473V12.3071H15.2404C15.336 13.2045 16.0974 13.9059 17.0197 13.9059Z" fill="black"/>
<path d="M11.5521 14.6502V13.8987H10.6146V14.6502C9.87231 14.6793 9.27734 15.292 9.27734 16.0412V16.0543C9.27734 16.8221 9.90197 17.4467 10.6698 17.4467H11.4969C11.7477 17.4467 11.9518 17.6508 11.9518 17.9016C11.9518 18.1525 11.7477 18.3566 11.4969 18.3566H10.6698C10.4189 18.3566 10.2148 18.1525 10.2148 17.9016V17.8625H9.27734V17.9016C9.27734 18.6509 9.87231 19.2635 10.6146 19.2926V20.0441H11.5521V19.2926C12.2943 19.2635 12.8893 18.6509 12.8893 17.9016C12.8893 17.1338 12.2647 16.5092 11.4969 16.5092H10.6698C10.4189 16.5092 10.2148 16.3051 10.2148 16.0543V16.0412C10.2148 15.7904 10.4189 15.5863 10.6698 15.5863H11.4969C11.7477 15.5863 11.9518 15.7903 11.9518 16.0412V16.071H12.8893V16.0412C12.8893 15.2919 12.2943 14.6793 11.5521 14.6502Z" fill="black"/>
<path d="M21.0621 16.984C21.0621 18.4974 19.8664 19.7366 18.3701 19.8069L18.9563 19.2207L18.2934 18.5578L16.5723 20.2789L18.2934 22L18.9563 21.3371L18.3645 20.7452C20.3805 20.6772 21.9996 19.0163 21.9996 16.984V16.4012H21.0621V16.984Z" fill="black"/>
<path d="M6.9375 11.016C6.9375 9.50262 8.13322 8.26341 9.62947 8.19313L9.04331 8.77928L9.70622 9.44219L11.4273 7.72113L9.70622 6L9.04331 6.66291L9.63519 7.25478C7.61919 7.32275 6 8.98372 6 11.016V11.5988H6.9375V11.016Z" fill="black"/>
<path d="M16.9162 16.1675C19.7194 16.1675 22 13.8869 22 11.0837C22 8.28056 19.7194 6 16.9162 6C14.113 6 11.8325 8.28059 11.8325 11.0838C11.8325 11.3579 11.8544 11.6299 11.8975 11.8979C11.6325 11.8551 11.3607 11.8325 11.0838 11.8325C8.28059 11.8325 6 14.113 6 16.9162C6 19.7194 8.28059 22 11.0838 22C13.887 22 16.1676 19.7194 16.1676 16.9162C16.1676 16.6393 16.145 16.3676 16.1022 16.1026C16.3701 16.1457 16.6421 16.1675 16.9162 16.1675ZM12.77 11.0838C12.77 8.79753 14.63 6.9375 16.9162 6.9375C19.2025 6.9375 21.0625 8.79753 21.0625 11.0838C21.0625 13.37 19.2025 15.2301 16.9162 15.2301C16.5453 15.2301 16.1797 15.1807 15.826 15.0846C15.3097 13.7524 14.2474 12.6902 12.9152 12.1739C12.8191 11.8203 12.77 11.4545 12.77 11.0838ZM11.0838 21.0625C8.79753 21.0625 6.9375 19.2025 6.9375 16.9162C6.9375 14.63 8.79753 12.7699 11.0838 12.7699C13.37 12.7699 15.2301 14.63 15.2301 16.9162C15.2301 19.2025 13.37 21.0625 11.0838 21.0625Z" fill="black"/>
</g>
<defs>
<clipPath id="clip0_1915_20506">
<rect width="16" height="16" fill="white" transform="translate(6 6)"/>
</clipPath>
</defs>
</svg>
