<svg width="28" height="28" viewBox="0 0 28 28" fill="none" xmlns="http://www.w3.org/2000/svg">
<rect opacity="0.1" width="28" height="28" rx="4" fill="#1E1E1E"/>
<g clip-path="url(#clip0_1915_20489)">
<path d="M14 6C9.57581 6 6 9.57458 6 14C6 18.4243 9.57458 22 14 22C18.4242 22 22 18.4253 22 14C22 9.57568 18.4252 6 14 6ZM14 21.0625C10.1057 21.0625 6.9375 17.8943 6.9375 14C6.9375 10.1057 10.1057 6.9375 14 6.9375C17.8943 6.9375 21.0625 10.1057 21.0625 14C21.0625 17.8943 17.8943 21.0625 14 21.0625Z" fill="black"/>
<path d="M10.25 12.5938C9.47461 12.5938 8.84375 13.2246 8.84375 14C8.84375 14.7754 9.47461 15.4062 10.25 15.4062C11.0254 15.4062 11.6562 14.7754 11.6562 14C11.6562 13.2246 11.0254 12.5938 10.25 12.5938ZM10.25 14.4688C9.99158 14.4688 9.78125 14.2584 9.78125 14C9.78125 13.7416 9.99158 13.5312 10.25 13.5312C10.5084 13.5312 10.7188 13.7416 10.7188 14C10.7188 14.2584 10.5084 14.4688 10.25 14.4688Z" fill="black"/>
<path d="M14 12.5938C13.2246 12.5938 12.5938 13.2246 12.5938 14C12.5938 14.7754 13.2246 15.4062 14 15.4062C14.7754 15.4062 15.4062 14.7754 15.4062 14C15.4062 13.2246 14.7754 12.5938 14 12.5938ZM14 14.4688C13.7416 14.4688 13.5312 14.2584 13.5312 14C13.5312 13.7416 13.7416 13.5312 14 13.5312C14.2584 13.5312 14.4688 13.7416 14.4688 14C14.4688 14.2584 14.2584 14.4688 14 14.4688Z" fill="black"/>
<path d="M17.75 12.5938C16.9746 12.5938 16.3438 13.2246 16.3438 14C16.3438 14.7754 16.9746 15.4062 17.75 15.4062C18.5254 15.4062 19.1562 14.7754 19.1562 14C19.1562 13.2246 18.5254 12.5938 17.75 12.5938ZM17.75 14.4688C17.4916 14.4688 17.2812 14.2584 17.2812 14C17.2812 13.7416 17.4916 13.5312 17.75 13.5312C18.0084 13.5312 18.2188 13.7416 18.2188 14C18.2188 14.2584 18.0084 14.4688 17.75 14.4688Z" fill="black"/>
</g>
<defs>
<clipPath id="clip0_1915_20489">
<rect width="16" height="16" fill="white" transform="translate(6 6)"/>
</clipPath>
</defs>
</svg>
