<svg width="81" height="34" viewBox="0 0 81 34" fill="none" xmlns="http://www.w3.org/2000/svg">
<path d="M2.10635 19.3541H0V34H80V14.2668L77.8082 11.5133H74.3014V1L70.7945 11.5133L69.4795 18.0215L66.6301 14.2668L62.6849 22.7309L60.4931 17.0202L57.6438 4.75474L54.137 17.0202L51.0685 14.2668L48.6575 18.7724L45.3699 16.019L42.9589 24.5297L40.1096 18.0215V14.2668L37.4795 17.0202L36.3836 4.00379L31.5616 17.0202L30.6849 11.5133L27.8356 20.024L25.863 15.3815H24.4788L21.1538 4.75474L18.5359 19.3541H16.5349L14.7144 22.7309L12.4275 10.2171L10.7123 27.3987L8.60596 22.7309L6.04824 29.2857L5.32607 22.7309L4.27289 15.3815L2.10635 19.3541Z" fill="url(#paint0_linear_894_28472)"/>
<path d="M0 19.3541H2.10635L4.27289 15.3815L5.32607 22.7309L6.04824 29.2857L8.60596 22.7309L10.7123 27.3987L12.4275 10.2171L14.7144 22.7309L16.5349 19.3541H18.5359L21.1538 4.75474L24.4788 15.3815H25.863L27.8356 20.024L30.6849 11.5133L31.5616 17.0202L36.3836 4.00379L37.4795 17.0202L40.1096 14.2668V18.0215L42.9589 24.5297L45.3699 16.019L48.6575 18.7724L51.0685 14.2668L54.137 17.0202L57.6438 4.75474L60.4932 17.0202L62.6849 22.7309L66.6301 14.2668L69.4795 18.0215L70.7945 11.5133L74.3014 1V11.5133H77.8082L80 14.2668" stroke="#0CAE35"/>
<defs>
<linearGradient id="paint0_linear_894_28472" x1="40" y1="1" x2="40" y2="34" gradientUnits="userSpaceOnUse">
<stop stop-color="#0CAE35" stop-opacity="0.4"/>
<stop offset="1" stop-color="white" stop-opacity="0"/>
</linearGradient>
</defs>
</svg>
