<svg width="775" height="230" viewBox="0 0 775 230" fill="none" xmlns="http://www.w3.org/2000/svg">
<path d="M51.8525 158.663H0V230L775 226.31V54.1176L757.716 72.5668L742.104 53.5027L729.281 70.1069L714.784 0L701.96 36.8984L665.719 53.5027L653.453 95.3209L633.939 70.1069L612.752 36.8984L602.158 70.1069L591.565 53.5027H574.838L538.597 0L515.737 36.8984H496.781L477.266 53.5027L452.176 36.8984L428.759 95.3209H409.802L388.615 114.385H365.198L341.781 135.294H310H278.219L254.802 158.663L230.27 135.294L202.95 158.663L167.266 145.134L126.007 158.663H95.8993L74.7122 173.422L51.8525 158.663Z" fill="url(#paint0_linear_894_28562)"/>
<defs>
<linearGradient id="paint0_linear_894_28562" x1="344.262" y1="267.011" x2="319.823" y2="15.1662" gradientUnits="userSpaceOnUse">
<stop stop-color="white" stop-opacity="0"/>
<stop offset="0.999376" stop-color="#0CAE35" stop-opacity="0.16"/>
</linearGradient>
</defs>
</svg>
