<svg width="81" height="35" viewBox="0 0 81 35" fill="none" xmlns="http://www.w3.org/2000/svg">
<path d="M0 25.4322H5.35252L7.71223 27.6119L9.89928 25.4322H13.0072L17.2662 23.4341L20.9496 25.4322L23.7698 21.9809L26.3022 25.4322L28.7194 21.9809H32H35.2806L37.6978 18.893H40.1151L42.3022 16.0775H44.259L46.6763 7.44935L49.2662 9.90156L51.2806 7.44935H53.2374L55.5971 2L59.3381 9.90156H61.0648L62.1583 12.3538L63.2518 7.44935L65.4389 12.3538L67.4532 16.0775L68.7194 9.90156L72.4604 7.44935L73.7842 2L75.2806 12.3538L76.6043 9.90156L78.2158 12.7171L80 9.99238" stroke="#0CAE35"/>
<path d="M5.35252 25.4322H0V35H80V9.99238L78.2158 12.7171L76.6043 9.90156L75.2806 12.3538L73.7842 2L72.4604 7.44935L68.7194 9.90156L67.4532 16.0775L65.4389 12.3538L63.2518 7.44935L62.1583 12.3538L61.0648 9.90156H59.3381L55.5971 2L53.2374 7.44935H51.2806L49.2662 9.90156L46.6763 7.44935L44.259 16.0775H42.3022L40.1151 18.893H37.6978L35.2806 21.9809H32H28.7194L26.3022 25.4322L23.7698 21.9809L20.9496 25.4322L17.2662 23.4341L13.0072 25.4322H9.89928L7.71223 27.6119L5.35252 25.4322Z" fill="url(#paint0_linear_894_28448)"/>
<defs>
<linearGradient id="paint0_linear_894_28448" x1="40" y1="27.6119" x2="40" y2="2" gradientUnits="userSpaceOnUse">
<stop stop-opacity="0"/>
<stop offset="1" stop-color="#0CAE35" stop-opacity="0.5"/>
</linearGradient>
</defs>
</svg>
