<svg width="82" height="34" viewBox="0 0 82 34" fill="none" xmlns="http://www.w3.org/2000/svg">
<path d="M2.28126 20.9345L1 22.1761V33.9998H81V19.5598L76.1368 9.80424L70.049 20.9345L66.1935 17.7861L60.2349 24.349L54.2523 22.1761L51.4724 16.4114L45.8643 22.1761L40.9573 17.7861L37.1135 24.349L31.765 19.5598L29.2323 22.1761L26.5506 17.7861L22.9601 19.5598L20.2784 9.80424L19.1312 15.3029L15.8983 19.5598L12.2482 16.4114L9.25367 1.99976L6.57197 17.7861L4.45641 22.1761L2.28126 20.9345Z" fill="url(#paint0_linear_894_28491)"/>
<path d="M1 21.7639L2.28126 20.4861L4.45641 21.7639L6.57197 17.246L9.25367 1L12.2482 15.8313L15.8983 19.0714L19.1313 14.6905L20.2784 9.03175L22.9601 19.0714L26.5506 17.246L29.2323 21.7639L31.765 19.0714L37.1135 24L40.9573 17.246L45.8643 21.7639L51.4724 15.8313L54.2523 21.7639L60.2349 24L66.1935 17.246L70.049 20.4861L76.1368 9.03175L81 19.0714" stroke="#E22C2C"/>
<defs>
<linearGradient id="paint0_linear_894_28491" x1="41" y1="33.9998" x2="41" y2="1.99976" gradientUnits="userSpaceOnUse">
<stop stop-color="white" stop-opacity="0"/>
<stop offset="1" stop-color="#E22C2C" stop-opacity="0.7"/>
</linearGradient>
</defs>
</svg>
