<svg width="21" height="21" viewBox="0 0 21 21" fill="none" xmlns="http://www.w3.org/2000/svg">
<g id="clock_loader_20">
<mask id="mask0_1451_23940" style="mask-type:alpha" maskUnits="userSpaceOnUse" x="0" y="0" width="21" height="21">
<rect id="Bounding box" x="0.5" y="0.5" width="20" height="20" fill="#D9D9D9"/>
</mask>
<g mask="url(#mask0_1451_23940)">
<path id="clock_loader_20_2" d="M10.5013 18.8333C9.34852 18.8333 8.26519 18.6145 7.2513 18.177C6.23741 17.7395 5.35547 17.1458 4.60547 16.3958C3.85547 15.6458 3.26172 14.7638 2.82422 13.75C2.38672 12.7361 2.16797 11.6527 2.16797 10.5C2.16797 9.34718 2.38672 8.26385 2.82422 7.24996C3.26172 6.23607 3.85547 5.35413 4.60547 4.60413C5.35547 3.85413 6.23741 3.26038 7.2513 2.82288C8.26519 2.38538 9.34852 2.16663 10.5013 2.16663C11.6541 2.16663 12.7374 2.38538 13.7513 2.82288C14.7652 3.26038 15.6471 3.85413 16.3971 4.60413C17.1471 5.35413 17.7409 6.23607 18.1784 7.24996C18.6159 8.26385 18.8346 9.34718 18.8346 10.5C18.8346 11.6527 18.6159 12.7361 18.1784 13.75C17.7409 14.7638 17.1471 15.6458 16.3971 16.3958C15.6471 17.1458 14.7652 17.7395 13.7513 18.177C12.7374 18.6145 11.6541 18.8333 10.5013 18.8333ZM10.5013 17.1666C12.3624 17.1666 13.9388 16.5208 15.2305 15.2291C16.5221 13.9375 17.168 12.3611 17.168 10.5H10.5013V3.83329C8.64019 3.83329 7.0638 4.47913 5.77214 5.77079C4.48047 7.06246 3.83464 8.63885 3.83464 10.5C3.83464 12.3611 4.48047 13.9375 5.77214 15.2291C7.0638 16.5208 8.64019 17.1666 10.5013 17.1666Z" fill="white"/>
</g>
</g>
</svg>
