<svg width="14" height="16" viewBox="0 0 14 16" fill="none" xmlns="http://www.w3.org/2000/svg">
<g id="01 align center">
<path id="Vector" d="M13.6668 2.76333L10.9908 0H5.66677C5.13634 0 4.62763 0.210714 4.25255 0.585786C3.87748 0.960859 3.66677 1.46957 3.66677 2V2.66667H2.33344C1.803 2.66667 1.29429 2.87738 0.919222 3.25245C0.544149 3.62753 0.333435 4.13623 0.333435 4.66667V16H11.0001V12.6667H13.6668V2.76333ZM9.66677 14.6667H1.66677V4.66667C1.66677 4.48986 1.73701 4.32029 1.86203 4.19526C1.98705 4.07024 2.15662 4 2.33344 4H3.66677V12.6667H9.66677V14.6667ZM5.0001 11.3333V2C5.0001 1.82319 5.07034 1.65362 5.19536 1.5286C5.32039 1.40357 5.48996 1.33333 5.66677 1.33333H9.66677V4H12.3334V11.3333H5.0001Z" fill="white"/>
</g>
</svg>
