<svg width="14" height="16" viewBox="0 0 14 16" fill="none" xmlns="http://www.w3.org/2000/svg">
<g id="01 align center">
<path id="Vector" d="M13.6668 2.76333L10.9908 0H5.66683C5.1364 0 4.62769 0.210714 4.25262 0.585786C3.87754 0.960859 3.66683 1.46957 3.66683 2V2.66667H2.3335C1.80306 2.66667 1.29436 2.87738 0.919283 3.25245C0.54421 3.62753 0.333496 4.13623 0.333496 4.66667V16H11.0002V12.6667H13.6668V2.76333ZM9.66683 14.6667H1.66683V4.66667C1.66683 4.48986 1.73707 4.32029 1.86209 4.19526C1.98712 4.07024 2.15669 4 2.3335 4H3.66683V12.6667H9.66683V14.6667ZM5.00016 11.3333V2C5.00016 1.82319 5.0704 1.65362 5.19543 1.5286C5.32045 1.40357 5.49002 1.33333 5.66683 1.33333H9.66683V4H12.3335V11.3333H5.00016Z" fill="#1E1E1E"/>
</g>
</svg>
