<svg width="20" height="20" viewBox="0 0 20 20" fill="none" xmlns="http://www.w3.org/2000/svg">
<g id="icon" clip-path="url(#clip0_894_32522)">
<path id="Vector" d="M5.93674 0L2.5 3.43674V20H17.4609V0H5.93674ZM16.2891 12.2136H3.67188V4.7937H7.29355V1.17188H16.2891V12.2136ZM6.12167 1.47247V3.62183H3.97232L6.12167 1.47247ZM3.67188 18.8281V13.3855H16.2891V18.8281H3.67188Z" fill="#1E1E1E"/>
<path id="Vector_2" d="M6.88373 16.9988C6.83215 17.0537 6.77402 17.0986 6.70901 17.1335C6.64417 17.1685 6.57672 17.1935 6.50684 17.2084C6.43695 17.2234 6.36874 17.2309 6.30222 17.2309C6.17572 17.2309 6.06174 17.2051 5.96027 17.1535C5.85864 17.1019 5.77304 17.033 5.70316 16.9463C5.63327 16.8598 5.58002 16.76 5.5434 16.6468C5.50677 16.5337 5.48846 16.4154 5.48846 16.2923C5.48846 16.1824 5.50418 16.0718 5.53592 15.9603C5.5675 15.8489 5.61572 15.7489 5.68073 15.6607C5.74557 15.5727 5.82874 15.501 5.93036 15.446C6.03183 15.3911 6.15253 15.3638 6.2923 15.3638C6.35883 15.3638 6.4278 15.3705 6.49951 15.3836C6.57092 15.3971 6.64005 15.4203 6.70657 15.4535C6.77325 15.4869 6.83398 15.5318 6.88892 15.5884C6.94385 15.645 6.98779 15.7166 7.02121 15.8031L7.76508 15.2739C7.64178 15.0409 7.45456 14.8537 7.2034 14.7122C6.95209 14.5708 6.655 14.5 6.31229 14.5C6.02588 14.5 5.77136 14.5517 5.54843 14.6549C5.32535 14.758 5.13568 14.8928 4.97928 15.0592C4.82272 15.2257 4.70386 15.4137 4.62238 15.6234C4.54074 15.833 4.5 16.046 4.5 16.2624C4.5 16.4887 4.54318 16.7116 4.62985 16.9313C4.71637 17.1509 4.83859 17.3473 4.99683 17.5203C5.15475 17.6935 5.3429 17.8324 5.56094 17.9372C5.77884 18.042 6.01932 18.0945 6.28223 18.0945C6.43207 18.0945 6.58588 18.0762 6.74411 18.0396C6.90204 18.003 7.0502 17.9497 7.18845 17.8798C7.32654 17.8099 7.44968 17.7234 7.55786 17.6203C7.66605 17.5171 7.74661 17.4005 7.80002 17.2707L7.0061 16.7964C6.9762 16.8764 6.9353 16.9438 6.88373 16.9988Z" fill="#1E1E1E"/>
<path id="Vector_3" d="M8.65234 3.78906H14.2773V4.96094H8.65234V3.78906Z" fill="#1E1E1E"/>
<path id="Vector_4" d="M5.68359 6.38672H14.2773V7.55859H5.68359V6.38672Z" fill="#1E1E1E"/>
<path id="Vector_5" d="M5.68359 8.98438H14.2773V10.1562H5.68359V8.98438Z" fill="#1E1E1E"/>
<path id="Vector_6" d="M11.1012 16.2699C11.0078 16.1882 10.8958 16.1176 10.7641 16.0575C10.6324 15.9977 10.4852 15.943 10.3224 15.893C10.2192 15.8597 10.1266 15.8313 10.0454 15.8078C9.96378 15.7848 9.8945 15.7605 9.83789 15.7355C9.78128 15.7106 9.73825 15.6832 9.70819 15.6531C9.67813 15.6235 9.66333 15.5852 9.66333 15.5384C9.66333 15.4753 9.68912 15.4305 9.74069 15.4035C9.79227 15.3769 9.86139 15.3636 9.94806 15.3636C10.0544 15.3636 10.1634 15.3812 10.2751 15.416C10.3864 15.4512 10.4872 15.4886 10.577 15.5286C10.6832 15.575 10.7868 15.6281 10.8863 15.6884L11.3059 14.8844C11.2258 14.8445 11.136 14.802 11.0363 14.7571C10.9364 14.7121 10.8289 14.6707 10.7141 14.6324C10.5993 14.5941 10.4804 14.5626 10.3571 14.5375C10.234 14.5125 10.1078 14.5 9.97781 14.5C9.80157 14.5 9.63403 14.5258 9.47626 14.5774C9.31802 14.6289 9.17734 14.7048 9.05435 14.8047C8.93137 14.9044 8.83371 15.0293 8.76215 15.1789C8.69073 15.3289 8.65472 15.5019 8.65472 15.6981C8.65472 15.8281 8.67227 15.943 8.70752 16.0427C8.74216 16.1426 8.79617 16.2317 8.86957 16.3098C8.94266 16.388 9.03604 16.4579 9.14926 16.5195C9.26218 16.5808 9.39691 16.6384 9.55362 16.6918C9.65982 16.7281 9.76053 16.7598 9.85544 16.7864C9.9505 16.8132 10.0344 16.8398 10.1078 16.8665C10.1809 16.893 10.2383 16.9239 10.2798 16.9586C10.3216 16.9937 10.3422 17.036 10.3422 17.0859C10.3422 17.1328 10.3216 17.17 10.2798 17.1985C10.2383 17.2266 10.1641 17.2406 10.0579 17.2406C9.918 17.2406 9.78052 17.2206 9.64578 17.1808C9.51105 17.141 9.39035 17.0961 9.284 17.0461C9.1575 16.9895 9.03604 16.9246 8.91962 16.8515L8.5 17.7051C8.60666 17.7684 8.72232 17.825 8.84698 17.8746C8.97195 17.9247 9.10165 17.968 9.23639 18.0046C9.37112 18.0414 9.50662 18.0695 9.64334 18.0895C9.77975 18.1093 9.91296 18.1195 10.0427 18.1195C10.2059 18.1195 10.368 18.1005 10.5293 18.0622C10.6907 18.0239 10.8357 17.9613 10.9637 17.8746C11.0919 17.7883 11.195 17.6726 11.2734 17.5278C11.3516 17.3831 11.3906 17.2043 11.3906 16.991C11.3906 16.8247 11.3656 16.6832 11.3157 16.5668C11.2657 16.4504 11.1942 16.3515 11.1012 16.2699Z" fill="#1E1E1E"/>
<path id="Vector_7" d="M14.4062 14.5L13.7223 16.8215L13.028 14.5H12L13.3179 18.0446H14.1265L15.4296 14.5H14.4062Z" fill="#1E1E1E"/>
</g>
<defs>
<clipPath id="clip0_894_32522">
<rect width="20" height="20" fill="white"/>
</clipPath>
</defs>
</svg>
