<svg width="28" height="28" viewBox="0 0 28 28" fill="none" xmlns="http://www.w3.org/2000/svg">
<g id="Group 57510">
<rect id="Rectangle 6036" opacity="0.1" width="28" height="28" rx="4" fill="#E22C2C"/>
<g id="delete">
<mask id="mask0_1451_17476" style="mask-type:alpha" maskUnits="userSpaceOnUse" x="5" y="5" width="18" height="18">
<rect id="Bounding box" x="5" y="5" width="18" height="18" fill="#D9D9D9"/>
</mask>
<g mask="url(#mask0_1451_17476)">
<path id="delete_2" d="M10.25 20.75C9.8375 20.75 9.48438 20.6031 9.19062 20.3094C8.89687 20.0156 8.75 19.6625 8.75 19.25V9.5H8V8H11.75V7.25H16.25V8H20V9.5H19.25V19.25C19.25 19.6625 19.1031 20.0156 18.8094 20.3094C18.5156 20.6031 18.1625 20.75 17.75 20.75H10.25ZM11.75 17.75H13.25V11H11.75V17.75ZM14.75 17.75H16.25V11H14.75V17.75Z" fill="#E22C2C"/>
</g>
</g>
</g>
</svg>
