<svg width="16" height="16" viewBox="0 0 16 16" fill="none" xmlns="http://www.w3.org/2000/svg">
<g id="01 align center">
<path id="Vector" d="M8.02148 12.6667C8.28422 12.6671 8.54445 12.6156 8.78723 12.5152C9.03 12.4147 9.25054 12.2673 9.43615 12.0813L12.0488 9.46667L11.1061 8.52667L8.68415 10.9493L8.66681 0H7.33348L7.35081 10.9387L4.93748 8.52533L3.99481 9.46667L6.60748 12.0793C6.79287 12.2655 7.01322 12.4133 7.25588 12.5141C7.49854 12.6149 7.75872 12.6667 8.02148 12.6667Z" fill="white"/>
<path id="Vector_2" d="M14.6667 10.6669V14.0002C14.6667 14.177 14.5964 14.3466 14.4714 14.4716C14.3464 14.5966 14.1768 14.6669 14 14.6669H2C1.82319 14.6669 1.65362 14.5966 1.5286 14.4716C1.40357 14.3466 1.33333 14.177 1.33333 14.0002V10.6669H0V14.0002C0 14.5306 0.210714 15.0393 0.585786 15.4144C0.960859 15.7895 1.46957 16.0002 2 16.0002H14C14.5304 16.0002 15.0391 15.7895 15.4142 15.4144C15.7893 15.0393 16 14.5306 16 14.0002V10.6669H14.6667Z" fill="white"/>
</g>
</svg>
