<svg width="28" height="28" viewBox="0 0 28 28" fill="none" xmlns="http://www.w3.org/2000/svg">
<circle cx="14" cy="14" r="14" fill="#5390F3"/>
<g clip-path="url(#clip0_894_31054)">
<path d="M19.47 8.5293C19.1301 8.1899 18.6694 7.99927 18.189 7.99927C17.7086 7.99927 17.2479 8.1899 16.908 8.5293L8 17.4373V19.9993H10.562L19.47 11.0913C19.8093 10.7513 19.9998 10.2906 19.9998 9.8103C19.9998 9.32998 19.8093 8.86929 19.47 8.5293ZM10.15 18.9993H9V17.8493L15.655 11.1993L16.805 12.3493L10.15 18.9993ZM18.763 10.3843L17.5095 11.6378L16.362 10.4878L17.615 9.2363C17.7675 9.0838 17.9743 8.99813 18.19 8.99813C18.4057 8.99813 18.6125 9.0838 18.765 9.2363C18.9175 9.3888 19.0032 9.59563 19.0032 9.8113C19.0032 10.027 18.9175 10.2338 18.765 10.3863L18.763 10.3843Z" fill="white"/>
</g>
<defs>
<clipPath id="clip0_894_31054">
<rect width="12" height="12" fill="white" transform="translate(8 8)"/>
</clipPath>
</defs>
</svg>
