<svg width="18" height="18" viewBox="0 0 18 18" fill="none" xmlns="http://www.w3.org/2000/svg">
<g clip-path="url(#clip0_894_31414)">
<path d="M15 0H2.25V2.25H0.75V3.75H2.25V5.25H0.75V6.75H2.25V8.25H0.75V9.75H2.25V11.25H0.75V12.75H2.25V14.25H0.75V15.75H2.25V18H15C15.5967 18 16.169 17.7629 16.591 17.341C17.0129 16.919 17.25 16.3467 17.25 15.75V2.25C17.25 1.65326 17.0129 1.08097 16.591 0.65901C16.169 0.237053 15.5967 0 15 0V0ZM15.75 15.75C15.75 15.9489 15.671 16.1397 15.5303 16.2803C15.3897 16.421 15.1989 16.5 15 16.5H3.75V1.5H15C15.1989 1.5 15.3897 1.57902 15.5303 1.71967C15.671 1.86032 15.75 2.05109 15.75 2.25V15.75ZM9.75 9C10.195 9 10.63 8.86804 11 8.62081C11.37 8.37357 11.6584 8.02217 11.8287 7.61104C11.999 7.1999 12.0436 6.7475 11.9568 6.31105C11.87 5.87459 11.6557 5.47368 11.341 5.15901C11.0263 4.84434 10.6254 4.63005 10.189 4.54323C9.7525 4.45642 9.3001 4.50097 8.88896 4.67127C8.47783 4.84157 8.12643 5.12996 7.87919 5.49997C7.63196 5.86998 7.5 6.30499 7.5 6.75C7.5 7.34674 7.73705 7.91903 8.15901 8.34099C8.58097 8.76295 9.15326 9 9.75 9ZM13.5 12V13.5H12V12C12 11.8011 11.921 11.6103 11.7803 11.4697C11.6397 11.329 11.4489 11.25 11.25 11.25H8.25C8.05109 11.25 7.86032 11.329 7.71967 11.4697C7.57902 11.6103 7.5 11.8011 7.5 12V13.5H6V12C6 11.4033 6.23705 10.831 6.65901 10.409C7.08097 9.98705 7.65326 9.75 8.25 9.75H11.25C11.8467 9.75 12.419 9.98705 12.841 10.409C13.2629 10.831 13.5 11.4033 13.5 12Z" fill="#0CAE35"/>
</g>
<defs>
<clipPath id="clip0_894_31414">
<rect width="18" height="18" fill="white"/>
</clipPath>
</defs>
</svg>
