<svg width="18" height="18" viewBox="0 0 18 18" fill="none" xmlns="http://www.w3.org/2000/svg">
<g clip-path="url(#clip0_894_33553)">
<path d="M18 18H2.25C1.65326 18 1.08097 17.7629 0.65901 17.341C0.237053 16.919 0 16.3467 0 15.75L0 0H1.5V15.75C1.5 15.9489 1.57902 16.1397 1.71967 16.2803C1.86032 16.421 2.05109 16.5 2.25 16.5H18V18Z" fill="#5390F3"/>
<path d="M12 8.25049H10.5V15.0005H12V8.25049Z" fill="#5390F3"/>
<path d="M6 8.25049H4.5V15.0005H6V8.25049Z" fill="#5390F3"/>
<path d="M15 4.5H13.5V15H15V4.5Z" fill="#5390F3"/>
<path d="M9 4.5H7.5V15H9V4.5Z" fill="#5390F3"/>
</g>
<defs>
<clipPath id="clip0_894_33553">
<rect width="18" height="18" fill="white"/>
</clipPath>
</defs>
</svg>
