<svg width="16" height="16" viewBox="0 0 16 16" fill="none" xmlns="http://www.w3.org/2000/svg">
<g clip-path="url(#clip0_1451_23422)">
<path d="M2 14.6507C1.82319 14.6507 1.65362 14.5804 1.5286 14.4554C1.40357 14.3304 1.33333 14.1608 1.33333 13.984V0H0V13.984C0 14.5144 0.210714 15.0231 0.585786 15.3982C0.960859 15.7733 1.46957 15.984 2 15.984H16V14.6507H2Z" fill="#0CAE35"/>
<path d="M4.66536 8H3.33203V12.6667H4.66536V8Z" fill="#0CAE35"/>
<path d="M8.00131 6.6665H6.66797V12.6665H8.00131V6.6665Z" fill="#0CAE35"/>
<path d="M11.3333 8.66663H10V12.6666H11.3333V8.66663Z" fill="#0CAE35"/>
<path d="M14.6654 6H13.332V12.6667H14.6654V6Z" fill="#0CAE35"/>
<path d="M7.33201 2.94277L10.6653 6.2761L15.8033 1.1381L14.8607 0.195435L10.6653 4.39077L7.33201 1.05743L3.52734 4.8621L4.47001 5.80477L7.33201 2.94277Z" fill="#0CAE35"/>
</g>
<defs>
<clipPath id="clip0_1451_23422">
<rect width="16" height="16" fill="white"/>
</clipPath>
</defs>
</svg>
