<svg width="16" height="16" viewBox="0 0 16 16" fill="none" xmlns="http://www.w3.org/2000/svg">
<g clip-path="url(#clip0_1451_23426)">
<path d="M0.667969 16H15.3346V2C15.3346 1.46957 15.1239 0.960859 14.7488 0.585786C14.3738 0.210714 13.8651 0 13.3346 0L2.66797 0C2.13754 0 1.62883 0.210714 1.25376 0.585786C0.878682 0.960859 0.667969 1.46957 0.667969 2V16ZM2.0013 2C2.0013 1.82319 2.07154 1.65362 2.19656 1.5286C2.32159 1.40357 2.49116 1.33333 2.66797 1.33333H13.3346C13.5114 1.33333 13.681 1.40357 13.806 1.5286C13.9311 1.65362 14.0013 1.82319 14.0013 2V14.6667H2.0013V2ZM3.33464 6.66667H12.668V2.66667H3.33464V6.66667ZM4.66797 4H11.3346V5.33333H4.66797V4ZM3.33464 8.66667H4.66797V10H3.33464V8.66667ZM6.0013 8.66667H7.33464V10H6.0013V8.66667ZM10.0013 8.66667V10H8.66797V8.66667H10.0013ZM3.33464 11.3333H4.66797V12.6667H3.33464V11.3333ZM6.0013 11.3333H7.33464V12.6667H6.0013V11.3333ZM11.3346 8.66667H12.668V10H11.3346V8.66667ZM8.66797 11.3333H12.668V12.6667H8.66797V11.3333Z" fill="#0CAE35"/>
</g>
<defs>
<clipPath id="clip0_1451_23426">
<rect width="16" height="16" fill="white"/>
</clipPath>
</defs>
</svg>
