<svg width="21" height="20" viewBox="0 0 21 20" fill="none" xmlns="http://www.w3.org/2000/svg">
<g id="fi-rs-file-add" clip-path="url(#clip0_894_29571)">
<path id="Vector" d="M12.511 0H4.66602C4.00297 0 3.36709 0.263392 2.89825 0.732233C2.42941 1.20107 2.16602 1.83696 2.16602 2.5V20H18.8327V6.32167L12.511 0ZM12.9993 2.845L15.9877 5.83333H12.9993V2.845ZM3.83268 18.3333V2.5C3.83268 2.27899 3.92048 2.06702 4.07676 1.91074C4.23304 1.75446 4.445 1.66667 4.66602 1.66667H11.3327V7.5H17.166V18.3333H3.83268ZM11.3327 11.6667H13.8327V13.3333H11.3327V15.8333H9.66602V13.3333H7.16602V11.6667H9.66602V9.16667H11.3327V11.6667Z" fill="#1E1E1E"/>
</g>
<defs>
<clipPath id="clip0_894_29571">
<rect width="20" height="20" fill="white" transform="translate(0.5)"/>
</clipPath>
</defs>
</svg>
