<svg width="20" height="20" viewBox="0 0 20 20" fill="none" xmlns="http://www.w3.org/2000/svg">
<g clip-path="url(#clip0_2540_3071)">
<path d="M16.8442 14.8023C18.0481 13.197 17.9207 10.9028 16.4614 9.44352C16.1199 9.10199 15.7325 8.83363 15.319 8.63797V5.03074L10.2884 0H0.00656319V20H15.3191V16.0495C15.5614 15.9349 15.7946 15.7952 16.015 15.6304L19.1603 18.8105L19.9935 17.9864L16.8442 14.8023ZM10.6316 2.00051L13.3186 4.6875H10.6316V2.00051ZM14.1472 18.8281H1.17844V1.17188H9.45969V5.85938H14.1472V8.28586C12.9114 8.10894 11.6097 8.4948 10.661 9.44352C9.06184 11.0427 9.06184 13.6448 10.661 15.244C11.5987 16.1817 12.8954 16.5808 14.1472 16.4016V18.8281ZM15.6329 14.4154C14.4906 15.5576 12.632 15.5576 11.4897 14.4154C10.3474 13.273 10.3474 11.4144 11.4897 10.2721C12.632 9.12988 14.4905 9.12981 15.6329 10.2721C16.7752 11.4144 16.7752 13.2731 15.6329 14.4154Z" fill="#A7A9AC"/>
<path d="M10.6316 7.07031H2.35039V8.24219H10.6316V7.07031Z" fill="#A7A9AC"/>
<path d="M8.28789 9.41406H2.35039V10.5859H8.28789V9.41406Z" fill="#A7A9AC"/>
<path d="M8.28789 14.1016H2.35039V15.2734H8.28789V14.1016Z" fill="#A7A9AC"/>
<path d="M8.28789 11.7578H2.35039V12.9297H8.28789V11.7578Z" fill="#A7A9AC"/>
</g>
<defs>
<clipPath id="clip0_2540_3071">
<rect width="20" height="20" fill="white"/>
</clipPath>
</defs>
</svg>
