<svg width="20" height="20" viewBox="0 0 20 20" fill="none" xmlns="http://www.w3.org/2000/svg">
<g clip-path="url(#clip0_1915_19119)">
<path d="M16.8442 14.8023C18.0482 13.197 17.9207 10.9028 16.4615 9.44352C16.1199 9.10199 15.7325 8.83363 15.3191 8.63797V5.03074L10.2884 0H0.0065918V20H15.3191V16.0495C15.5614 15.9349 15.7947 15.7952 16.0151 15.6304L19.1603 18.8105L19.9935 17.9864L16.8442 14.8023ZM10.6316 2.00051L13.3186 4.6875H10.6316V2.00051ZM14.1472 18.8281H1.17847V1.17188H9.45972V5.85938H14.1472V8.28586C12.9114 8.10894 11.6098 8.4948 10.661 9.44352C9.06186 11.0427 9.06186 13.6448 10.661 15.244C11.5987 16.1817 12.8954 16.5808 14.1472 16.4016V18.8281ZM15.6329 14.4154C14.4906 15.5576 12.632 15.5576 11.4897 14.4154C10.3475 13.273 10.3475 11.4144 11.4897 10.2721C12.632 9.12988 14.4906 9.12981 15.6329 10.2721C16.7752 11.4144 16.7752 13.2731 15.6329 14.4154Z" fill="#A7A9AC"/>
<path d="M10.6317 7.07031H2.3504V8.24219H10.6317V7.07031Z" fill="#A7A9AC"/>
<path d="M8.2879 9.41406H2.3504V10.5859H8.2879V9.41406Z" fill="#A7A9AC"/>
<path d="M8.2879 14.1016H2.3504V15.2734H8.2879V14.1016Z" fill="#A7A9AC"/>
<path d="M8.2879 11.7578H2.3504V12.9297H8.2879V11.7578Z" fill="#A7A9AC"/>
</g>
<defs>
<clipPath id="clip0_1915_19119">
<rect width="20" height="20" fill="white"/>
</clipPath>
</defs>
</svg>
