<svg width="20" height="20" viewBox="0 0 20 20" fill="none" xmlns="http://www.w3.org/2000/svg">
<g clip-path="url(#clip0_1915_19100)">
<path d="M13.6493 11.0421H12.2561V10.1631C13.616 9.39062 14.5355 7.92891 14.5355 6.25629V3.91152C15.244 3.41422 15.7084 2.59168 15.7084 1.66223V0H8.30258C6.78789 0 5.55563 1.2323 5.55563 2.74699V6.25625C5.55563 7.89125 6.43418 9.32469 7.74387 10.1099V11.0421H6.35074C3.03824 11.0421 0.343323 13.737 0.343323 17.0495V20H19.6566V17.0495C19.6567 13.737 16.9618 11.0421 13.6493 11.0421ZM6.72848 2.74699C6.72848 1.87902 7.43461 1.17289 8.30254 1.17289H14.5355V1.66219C14.5355 2.53016 13.8294 3.23629 12.9614 3.23629H7.71153C7.35766 3.23629 7.0234 3.32199 6.72848 3.47371V2.74699ZM6.72848 6.25625V5.39223V5.39219C6.72848 4.85016 7.16946 4.40918 7.71153 4.40918H12.9615C13.0977 4.40918 13.2316 4.39883 13.3626 4.37957V6.25621C13.3626 8.08523 11.8746 9.57328 10.0455 9.57328C8.21649 9.57328 6.72848 8.08531 6.72848 6.25625ZM10.0455 10.7462C10.4026 10.7462 10.75 10.7041 11.0832 10.6249V12.0299C10.6604 12.1439 10.2864 12.3778 10 12.693C9.71364 12.3778 9.33965 12.1439 8.91676 12.0299V10.6024C9.27754 10.6962 9.65582 10.7462 10.0455 10.7462ZM18.4838 18.8271H16.4865V16.5296H15.3136V18.8271H4.68641V16.5296H3.51352V18.8271H1.51621V17.0495C1.51621 14.3837 3.68496 12.2149 6.35074 12.2149H7.74387V13.1255H8.33031C8.92762 13.1255 9.41356 13.6114 9.41356 14.2088V15.4069H10.5864V14.2088C10.5864 13.6114 11.0724 13.1255 11.6697 13.1255H12.2561V12.2149H13.6493C16.315 12.2149 18.4838 14.3837 18.4838 17.0495V18.8271Z" fill="#A7A9AC"/>
<path d="M9.41357 16.5296H10.5865V17.6421H9.41357V16.5296Z" fill="#A7A9AC"/>
</g>
<defs>
<clipPath id="clip0_1915_19100">
<rect width="20" height="20" fill="white"/>
</clipPath>
</defs>
</svg>
