<svg width="21" height="20" viewBox="0 0 21 20" fill="none" xmlns="http://www.w3.org/2000/svg">
<g clip-path="url(#clip0_2540_3045)">
<path d="M13.8074 11.0421H12.4142V10.1631C13.7741 9.39062 14.6936 7.92891 14.6936 6.25629V3.91152C15.4021 3.41422 15.8665 2.59168 15.8665 1.66223V0H8.46069C6.946 0 5.71374 1.2323 5.71374 2.74699V6.25625C5.71374 7.89125 6.59229 9.32469 7.90198 10.1099V11.0421H6.50885C3.19635 11.0421 0.501432 13.737 0.501432 17.0495V20H19.8148V17.0495C19.8148 13.737 17.1199 11.0421 13.8074 11.0421ZM6.88659 2.74699C6.88659 1.87902 7.59272 1.17289 8.46065 1.17289H14.6937V1.66219C14.6937 2.53016 13.9875 3.23629 13.1196 3.23629H7.86964C7.51577 3.23629 7.18151 3.32199 6.88659 3.47371V2.74699ZM6.88659 6.25625V5.39223V5.39219C6.88659 4.85016 7.32756 4.40918 7.86964 4.40918H13.1196C13.2558 4.40918 13.3897 4.39883 13.5207 4.37957V6.25621C13.5207 8.08523 12.0327 9.57328 10.2037 9.57328C8.3746 9.57328 6.88659 8.08531 6.88659 6.25625ZM10.2037 10.7462C10.5607 10.7462 10.9082 10.7041 11.2414 10.6249V12.0299C10.8185 12.1439 10.4445 12.3778 10.1581 12.693C9.87175 12.3778 9.49776 12.1439 9.07487 12.0299V10.6024C9.43565 10.6962 9.81393 10.7462 10.2037 10.7462ZM18.6419 18.8271H16.6446V16.5296H15.4717V18.8271H4.84452V16.5296H3.67163V18.8271H1.67432V17.0495C1.67432 14.3837 3.84307 12.2149 6.50885 12.2149H7.90198V13.1255H8.48842C9.08573 13.1255 9.57167 13.6114 9.57167 14.2088V15.4069H10.7446V14.2088C10.7446 13.6114 11.2305 13.1255 11.8278 13.1255H12.4142V12.2149H13.8074C16.4731 12.2149 18.6419 14.3837 18.6419 17.0495V18.8271Z" fill="white"/>
<path d="M9.57167 16.5297H10.7446V17.6422H9.57167V16.5297Z" fill="white"/>
</g>
<defs>
<clipPath id="clip0_2540_3045">
<rect width="20" height="20" fill="white" transform="translate(0.158112)"/>
</clipPath>
</defs>
</svg>
