<svg width="20" height="20" viewBox="0 0 20 20" fill="none" xmlns="http://www.w3.org/2000/svg">
<g clip-path="url(#clip0_2540_3061)">
<path d="M20 6.60535V3.24996L10 0L0 3.24996V6.60535H1.21582V16.4844H0V20H20V16.4844H18.7842V6.60535H20ZM18.8281 17.6562V18.8281H1.17188V17.6562H18.8281ZM3.5498 8.94914V16.4844H2.3877V8.94914H3.5498ZM2.3877 7.77727V6.60539H3.5498V7.7773L2.3877 7.77727ZM4.72168 16.4844V6.60535H15.2588V16.4844H4.72168ZM17.6123 8.94914V16.4844H16.4307V8.94914H17.6123ZM16.4307 7.77727V6.60535H17.6123V7.77723H16.4307V7.77727ZM1.17188 5.43348V4.10133L10 1.23223L18.8281 4.10133V5.43348H1.17188Z" fill="#A7A9AC"/>
<path d="M8.46355 3.08972H11.5364V4.2616H8.46355V3.08972Z" fill="#A7A9AC"/>
<path d="M10 9.5369C10.4946 9.5369 10.897 9.85612 10.897 10.2485H12.0688C12.0688 9.39518 11.4422 8.67257 10.5859 8.44194V7.79022H9.41406V8.44194C8.55777 8.67253 7.93121 9.39518 7.93121 10.2485C7.93121 11.2871 8.85926 12.132 10 12.132C10.4946 12.132 10.897 12.4512 10.897 12.8436C10.897 13.236 10.4946 13.5553 10 13.5553C9.50543 13.5553 9.10308 13.236 9.10308 12.8436H7.93121C7.93121 13.697 8.55777 14.4196 9.41406 14.6502V15.3019H10.5859V14.6502C11.4422 14.4196 12.0688 13.697 12.0688 12.8436C12.0688 11.8051 11.1407 10.9601 10 10.9601C9.50543 10.9601 9.10308 10.6409 9.10308 10.2485C9.10308 9.85616 9.50543 9.5369 10 9.5369Z" fill="#A7A9AC"/>
</g>
<defs>
<clipPath id="clip0_2540_3061">
<rect width="20" height="20" fill="white"/>
</clipPath>
</defs>
</svg>
