<svg width="20" height="20" viewBox="0 0 20 20" fill="none" xmlns="http://www.w3.org/2000/svg">
<g clip-path="url(#clip0_1915_19109)">
<path d="M20 6.60535V3.24996L10 0L0 3.24996V6.60535H1.21582V16.4844H0V20H20V16.4844H18.7842V6.60535H20ZM18.8281 17.6562V18.8281H1.17188V17.6562H18.8281ZM3.5498 8.94914V16.4844H2.3877V8.94914H3.5498ZM2.3877 7.77727V6.60539H3.5498V7.7773L2.3877 7.77727ZM4.72168 16.4844V6.60535H15.2588V16.4844H4.72168ZM17.6123 8.94914V16.4844H16.4307V8.94914H17.6123ZM16.4307 7.77727V6.60535H17.6123V7.77723H16.4307V7.77727ZM1.17188 5.43348V4.10133L10 1.23223L18.8281 4.10133V5.43348H1.17188Z" fill="#A7A9AC"/>
<path d="M8.46356 3.08972H11.5364V4.2616H8.46356V3.08972Z" fill="#A7A9AC"/>
<path d="M10 9.53692C10.4946 9.53692 10.897 9.85614 10.897 10.2486H12.0688C12.0688 9.3952 11.4422 8.67258 10.5859 8.44196V7.79024H9.41406V8.44196C8.55778 8.67254 7.93121 9.3952 7.93121 10.2486C7.93121 11.2871 8.85926 12.132 10 12.132C10.4946 12.132 10.897 12.4513 10.897 12.8436C10.897 13.236 10.4946 13.5553 10 13.5553C9.50543 13.5553 9.10309 13.2361 9.10309 12.8436H7.93121C7.93121 13.697 8.55778 14.4196 9.41406 14.6502V15.302H10.5859V14.6502C11.4422 14.4197 12.0688 13.697 12.0688 12.8436C12.0688 11.8051 11.1407 10.9602 10 10.9602C9.50543 10.9602 9.10309 10.6409 9.10309 10.2486C9.10309 9.85618 9.50543 9.53692 10 9.53692Z" fill="#A7A9AC"/>
</g>
<defs>
<clipPath id="clip0_1915_19109">
<rect width="20" height="20" fill="white"/>
</clipPath>
</defs>
</svg>
