<svg width="20" height="20" viewBox="0 0 20 20" fill="none" xmlns="http://www.w3.org/2000/svg">
<g clip-path="url(#clip0_894_29903)">
<path d="M14.0539 4.05418V14.3245C14.0539 16.5598 12.2353 18.3785 9.99988 18.3785C7.76445 18.3785 5.94582 16.5599 5.94582 14.3245V4.05418C5.94582 2.71293 7.03699 1.62176 8.37824 1.62176C9.71949 1.62176 10.8107 2.71293 10.8107 4.05418V14.3245C10.8107 14.7715 10.4469 15.1353 9.99984 15.1353C9.55277 15.1353 9.18902 14.7716 9.18902 14.3245V4.05418H7.56746V14.3245C7.56746 15.6657 8.65863 16.7569 9.99988 16.7569C11.3411 16.7569 12.4323 15.6657 12.4323 14.3245V4.05418C12.4323 1.81875 10.6137 0.00012207 8.37828 0.00012207C6.14289 0.00012207 4.32422 1.81875 4.32422 4.05418V14.3245C4.32422 17.454 6.87031 20.0001 9.99988 20.0001C13.1295 20.0001 15.6755 17.454 15.6755 14.3245V4.05418H14.0539Z" fill="#A7A9AC"/>
</g>
<defs>
<clipPath id="clip0_894_29903">
<rect width="20" height="20" fill="white"/>
</clipPath>
</defs>
</svg>
