<svg width="22" height="22" viewBox="0 0 22 22" fill="none" xmlns="http://www.w3.org/2000/svg">
<g id="fi-rs-file-check" clip-path="url(#clip0_1451_18142)">
<path id="Vector" d="M13.2125 0H4.58301C3.85366 0 3.15419 0.289731 2.63846 0.805456C2.12274 1.32118 1.83301 2.02065 1.83301 2.75V22H20.1663V6.95383L13.2125 0ZM13.7497 3.1295L17.0368 6.41667H13.7497V3.1295ZM3.66634 20.1667V2.75C3.66634 2.50688 3.76292 2.27373 3.93483 2.10182C4.10674 1.92991 4.33989 1.83333 4.58301 1.83333H11.9163V8.25H18.333V20.1667H3.66634ZM14.0183 12.0285L15.3144 13.3247L12.0273 16.6109C11.7719 16.8663 11.4687 17.0689 11.135 17.2072C10.8014 17.3454 10.4437 17.4165 10.0826 17.4165C9.72138 17.4165 9.36374 17.3454 9.03006 17.2072C8.69639 17.0689 8.39321 16.8663 8.13784 16.6109L6.68492 15.158L7.98109 13.8618L9.43493 15.3148C9.60943 15.4816 9.84157 15.5747 10.083 15.5747C10.3244 15.5747 10.5566 15.4816 10.7311 15.3148L14.0183 12.0285Z" fill="#0CAE35"/>
</g>
<defs>
<clipPath id="clip0_1451_18142">
<rect width="22" height="22" fill="white"/>
</clipPath>
</defs>
</svg>
