<svg width="63" height="26" viewBox="0 0 63 26" fill="none" xmlns="http://www.w3.org/2000/svg">
<path d="M29.8146 12.7172V19.9615H27.5164V2.07127H33.6116C34.3391 2.05607 35.0625 2.18511 35.7399 2.45093C36.4173 2.71676 37.0354 3.11411 37.5585 3.62005C38.0868 4.09528 38.5073 4.6781 38.7917 5.32933C39.076 5.98056 39.2177 6.68512 39.2072 7.39566C39.2223 8.11 39.0828 8.81916 38.7982 9.47454C38.5137 10.1299 38.0907 10.716 37.5585 11.1927C36.4926 12.209 35.177 12.7167 33.6116 12.7158H29.8146V12.7172ZM29.8146 4.27383V10.5189H33.6687C34.0912 10.5314 34.5117 10.4556 34.9032 10.2964C35.2948 10.1371 35.6488 9.89785 35.9426 9.59393C36.2349 9.30978 36.4672 8.96991 36.6258 8.59441C36.7845 8.21892 36.8662 7.81543 36.8662 7.40779C36.8662 7.00016 36.7845 6.59667 36.6258 6.22117C36.4672 5.84568 36.2349 5.50581 35.9426 5.22165C35.6525 4.91134 35.2997 4.66623 34.9077 4.50257C34.5156 4.33892 34.0933 4.26046 33.6687 4.2724H29.8146V4.27383Z" fill="white"/>
<path d="M44.5032 7.32129C46.2019 7.32129 47.5427 7.77522 48.5258 8.68308C49.5088 9.59094 49.9999 10.8357 49.9989 12.4173V19.9614H47.8006V18.2627H47.7007C46.7491 19.6616 45.4834 20.361 43.9037 20.361C42.5552 20.361 41.4271 19.9614 40.5192 19.162C40.0835 18.7951 39.7352 18.3356 39.4996 17.817C39.264 17.2985 39.1471 16.7338 39.1574 16.1643C39.1574 14.8977 39.6361 13.8904 40.5934 13.1424C41.5508 12.3944 42.8288 12.0195 44.4276 12.0176C45.7922 12.0176 46.9161 12.2674 47.7992 12.767V12.2417C47.8018 11.8535 47.718 11.4695 47.5538 11.1177C47.3896 10.7659 47.1492 10.455 46.85 10.2076C46.2422 9.65928 45.4502 9.3601 44.6317 9.36968C43.3479 9.36968 42.3321 9.91116 41.5841 10.9941L39.56 9.71941C40.6734 8.12066 42.3211 7.32129 44.5032 7.32129ZM41.5298 16.2143C41.5283 16.5068 41.5967 16.7954 41.7293 17.0561C41.8619 17.3168 42.0548 17.5421 42.2921 17.7131C42.8004 18.1129 43.4313 18.3248 44.0778 18.3127C45.0476 18.311 45.9773 17.925 46.663 17.2392C47.4243 16.5226 47.8049 15.6819 47.8049 14.7169C47.0883 14.1459 46.0891 13.8604 44.8073 13.8604C43.8737 13.8604 43.0953 14.0855 42.472 14.5356C41.8425 14.9924 41.5298 15.5477 41.5298 16.2143Z" fill="white"/>
<path d="M62.6186 7.72095L54.9446 25.3571H52.5722L55.4199 19.1862L50.3739 7.72095H52.8719L56.5191 16.514H56.569L60.1163 7.72095H62.6186Z" fill="white"/>
<path d="M20.5285 11.1555C20.5293 10.4551 20.4701 9.75593 20.3514 9.06567H10.6591V13.024H16.2104C16.0968 13.6562 15.8564 14.2588 15.5036 14.7956C15.1508 15.3324 14.693 15.7922 14.1577 16.1473V18.7167H17.4709C19.4108 16.9281 20.5285 14.283 20.5285 11.1555Z" fill="#4285F4"/>
<path d="M10.6595 21.199C13.433 21.199 15.7683 20.2883 17.4713 18.7181L14.1582 16.1487C13.236 16.7739 12.0484 17.1308 10.6595 17.1308C7.97872 17.1308 5.70336 15.3237 4.88972 12.8884H1.47668V15.5363C2.33211 17.2386 3.64381 18.6695 5.26534 19.6694C6.88687 20.6694 8.75442 21.199 10.6595 21.199Z" fill="#34A853"/>
<path d="M4.88877 12.8884C4.45862 11.6123 4.45862 10.2304 4.88877 8.95432V6.3064H1.47573C0.756122 7.73835 0.381348 9.31874 0.381348 10.9213C0.381348 12.5239 0.756122 14.1043 1.47573 15.5363L4.88877 12.8884Z" fill="#FBBC04"/>
<path d="M10.6595 4.71197C12.1252 4.68803 13.5414 5.24181 14.6021 6.25362L17.5355 3.32021C15.6754 1.57312 13.2112 0.613937 10.6595 0.643741C8.75442 0.643828 6.88687 1.1734 5.26534 2.17334C3.64381 3.17328 2.33211 4.60423 1.47668 6.30644L4.88972 8.95436C5.70336 6.51913 7.97872 4.71197 10.6595 4.71197Z" fill="#EA4335"/>
</svg>
