<svg width="16" height="17" viewBox="0 0 16 17" fill="none" xmlns="http://www.w3.org/2000/svg">
<g id="devicon:google" clip-path="url(#clip0_894_27879)">
<path id="Vector" d="M5.57533 1.02625C3.97668 1.58083 2.59801 2.63346 1.64182 4.0295C0.685628 5.42554 0.202319 7.09143 0.262883 8.78245C0.323447 10.4735 0.92469 12.1005 1.9783 13.4246C3.03191 14.7486 4.48235 15.6999 6.11658 16.1387C7.44148 16.4806 8.82959 16.4956 10.1616 16.1825C11.3682 15.9115 12.4838 15.3317 13.3991 14.5C14.3517 13.6079 15.0431 12.4731 15.3991 11.2175C15.786 9.85208 15.8548 8.41616 15.6003 7.02H8.16033V10.1062H12.4691C12.383 10.5985 12.1984 11.0683 11.9265 11.4875C11.6546 11.9068 11.3009 12.2669 10.8866 12.5462C10.3604 12.8943 9.76732 13.1285 9.14533 13.2337C8.52151 13.3497 7.88165 13.3497 7.25783 13.2337C6.62557 13.103 6.02745 12.8421 5.50158 12.4675C4.65677 11.8695 4.02243 11.0199 3.68908 10.04C3.3501 9.04174 3.3501 7.95951 3.68908 6.96125C3.92636 6.26152 4.31862 5.62442 4.83658 5.0975C5.42932 4.48343 6.17974 4.04449 7.00552 3.82884C7.8313 3.61319 8.70053 3.62916 9.51783 3.875C10.1563 4.07099 10.7401 4.41342 11.2228 4.875C11.7087 4.39166 12.1937 3.90708 12.6778 3.42125C12.9278 3.16 13.2003 2.91125 13.4466 2.64375C12.7098 1.95809 11.8449 1.42457 10.9016 1.07375C9.18371 0.449985 7.30405 0.433222 5.57533 1.02625Z" fill="white"/>
<path id="Vector_2" d="M5.5725 1.02624C7.30108 0.432816 9.18074 0.449138 10.8988 1.07249C11.8423 1.4257 12.7067 1.96179 13.4425 2.64999C13.1925 2.91749 12.9288 3.16749 12.6738 3.42749C12.1888 3.91166 11.7042 4.39416 11.22 4.87499C10.7373 4.41342 10.1535 4.07098 9.515 3.87499C8.69797 3.6283 7.82877 3.6114 7.00277 3.82617C6.17678 4.04094 5.42589 4.47907 4.8325 5.09249C4.31454 5.61941 3.92228 6.25652 3.685 6.95624L1.09375 4.94999C2.02126 3.1107 3.62719 1.70377 5.5725 1.02624Z" fill="#E33629"/>
<path id="Vector_3" d="M0.408903 6.93751C0.548179 6.24725 0.779407 5.5788 1.0964 4.95001L3.68765 6.96126C3.34867 7.95952 3.34867 9.04175 3.68765 10.04C2.82432 10.7067 1.96057 11.3767 1.0964 12.05C0.302841 10.4704 0.0608185 8.67064 0.408903 6.93751Z" fill="#F8BD00"/>
<path id="Vector_4" d="M8.15681 7.01874H15.5968C15.8513 8.4149 15.7825 9.85082 15.3956 11.2162C15.0396 12.4718 14.3482 13.6067 13.3956 14.4987C12.5593 13.8462 11.7193 13.1987 10.8831 12.5462C11.2977 12.2666 11.6515 11.9061 11.9234 11.4864C12.1954 11.0667 12.3798 10.5964 12.4656 10.1037H8.15681C8.15556 9.07624 8.15681 8.04749 8.15681 7.01874Z" fill="#587DBD"/>
<path id="Vector_5" d="M1.09375 12.05C1.95792 11.3833 2.82167 10.7133 3.685 10.04C4.01901 11.0202 4.65426 11.8698 5.5 12.4675C6.02751 12.8403 6.62691 13.0991 7.26 13.2275C7.88382 13.3435 8.52368 13.3435 9.1475 13.2275C9.76949 13.1222 10.3626 12.888 10.8887 12.54C11.725 13.1925 12.565 13.84 13.4012 14.4925C12.4861 15.3246 11.3705 15.9048 10.1637 16.1762C8.83176 16.4894 7.44365 16.4743 6.11875 16.1325C5.07088 15.8527 4.09209 15.3595 3.24375 14.6837C2.34583 13.9708 1.61244 13.0724 1.09375 12.05Z" fill="#319F43"/>
</g>
<defs>
<clipPath id="clip0_894_27879">
<rect width="16" height="16" fill="white" transform="translate(0 0.5)"/>
</clipPath>
</defs>
</svg>
