<svg width="28" height="28" viewBox="0 0 28 28" fill="none" xmlns="http://www.w3.org/2000/svg">
<rect opacity="0.1" width="28" height="28" rx="4" fill="#1E1E1E"/>
<mask id="mask0_1915_19570" style="mask-type:alpha" maskUnits="userSpaceOnUse" x="5" y="5" width="18" height="18">
<rect x="5" y="5" width="18" height="18" fill="#D9D9D9"/>
</mask>
<g mask="url(#mask0_1915_19570)">
<path d="M9.5 15.5C9.0875 15.5 8.73438 15.3531 8.44063 15.0594C8.14688 14.7656 8 14.4125 8 14C8 13.5875 8.14688 13.2344 8.44063 12.9406C8.73438 12.6469 9.0875 12.5 9.5 12.5C9.9125 12.5 10.2656 12.6469 10.5594 12.9406C10.8531 13.2344 11 13.5875 11 14C11 14.4125 10.8531 14.7656 10.5594 15.0594C10.2656 15.3531 9.9125 15.5 9.5 15.5ZM14 15.5C13.5875 15.5 13.2344 15.3531 12.9406 15.0594C12.6469 14.7656 12.5 14.4125 12.5 14C12.5 13.5875 12.6469 13.2344 12.9406 12.9406C13.2344 12.6469 13.5875 12.5 14 12.5C14.4125 12.5 14.7656 12.6469 15.0594 12.9406C15.3531 13.2344 15.5 13.5875 15.5 14C15.5 14.4125 15.3531 14.7656 15.0594 15.0594C14.7656 15.3531 14.4125 15.5 14 15.5ZM18.5 15.5C18.0875 15.5 17.7344 15.3531 17.4406 15.0594C17.1469 14.7656 17 14.4125 17 14C17 13.5875 17.1469 13.2344 17.4406 12.9406C17.7344 12.6469 18.0875 12.5 18.5 12.5C18.9125 12.5 19.2656 12.6469 19.5594 12.9406C19.8531 13.2344 20 13.5875 20 14C20 14.4125 19.8531 14.7656 19.5594 15.0594C19.2656 15.3531 18.9125 15.5 18.5 15.5Z" fill="#1C1B1F"/>
</g>
</svg>
