<svg width="49" height="28" viewBox="0 0 49 28" fill="none" xmlns="http://www.w3.org/2000/svg">
<path d="M14.1902 27.7461C21.7819 27.7461 27.9361 21.5918 27.9361 14.0001C27.9361 6.40842 21.7819 0.25415 14.1902 0.25415C6.59849 0.25415 0.444214 6.40842 0.444214 14.0001C0.444214 21.5918 6.59849 27.7461 14.1902 27.7461Z" fill="#F7931A"/>
<path d="M20.3656 12.2991C20.6353 10.4984 19.2633 9.53014 17.3887 8.88408L17.997 6.44418L16.5124 6.07476L15.9196 8.45023C15.5296 8.35229 15.1292 8.26122 14.7297 8.17015L15.3268 5.77922L13.8422 5.40894L13.234 7.84798C12.911 7.7741 12.5931 7.70193 12.2855 7.62461L12.2872 7.61688L10.2391 7.1057L9.84389 8.69164C9.84389 8.69164 10.9461 8.94422 10.9229 8.95969C11.5243 9.11003 11.6326 9.50781 11.6145 9.82396L10.9221 12.6032C10.9633 12.6135 11.0166 12.629 11.0767 12.6522L10.9195 12.6135L9.9487 16.5071C9.87482 16.6892 9.68839 16.9633 9.26742 16.8593C9.28288 16.8808 8.18836 16.5904 8.18836 16.5904L7.45123 18.2898L9.38426 18.7717C9.74337 18.8619 10.0956 18.9564 10.4418 19.0449L9.82757 21.5123L11.3113 21.8817L11.9195 19.4418C12.325 19.5509 12.7185 19.6523 13.1034 19.7485L12.4969 22.1781L13.9814 22.5476L14.5957 20.0853C17.1284 20.5647 19.0322 20.3714 19.8338 18.081C20.4798 16.2373 19.802 15.1729 18.4695 14.4795C19.4403 14.2562 20.1705 13.6178 20.3656 12.2991ZM16.972 17.0569C16.5141 18.9015 13.4084 17.904 12.4015 17.654L13.2177 14.385C14.2246 14.6368 17.4523 15.1342 16.972 17.0569ZM17.4317 12.2725C17.0133 13.9503 14.429 13.0972 13.5914 12.8885L14.3302 9.92448C15.1679 10.1332 17.8681 10.5224 17.4317 12.2725Z" fill="white"/>
<path d="M34.8099 27.7461C42.4015 27.7461 48.5558 21.5918 48.5558 14.0001C48.5558 6.40842 42.4015 0.25415 34.8099 0.25415C27.2182 0.25415 21.0639 6.40842 21.0639 14.0001C21.0639 21.5918 27.2182 27.7461 34.8099 27.7461Z" fill="#627EEA"/>
<path d="M35.2358 3.69067V11.3111L41.6767 14.1891L35.2358 3.69067Z" fill="white" fill-opacity="0.602"/>
<path d="M35.2372 3.69067L28.7955 14.1891L35.2372 11.3111V3.69067Z" fill="white"/>
<path d="M35.2358 19.1273V24.3053L41.681 15.3884L35.2358 19.1273Z" fill="white" fill-opacity="0.602"/>
<path d="M35.2372 24.3053V19.1265L28.7955 15.3884L35.2372 24.3053Z" fill="white"/>
<path d="M35.2358 17.9288L41.6767 14.1891L35.2358 11.3127V17.9288Z" fill="white" fill-opacity="0.2"/>
<path d="M28.7955 14.1891L35.2372 17.9288V11.3127L28.7955 14.1891Z" fill="white" fill-opacity="0.602"/>
</svg>
