<svg width="18" height="18" viewBox="0 0 18 18" fill="none" xmlns="http://www.w3.org/2000/svg">
<g id="01 align center">
<path id="Vector" d="M15.75 18.0002H12V16.5002H15.75C15.9489 16.5002 16.1397 16.4212 16.2803 16.2806C16.421 16.1399 16.5 15.9491 16.5 15.7502V12.0002H18V15.7502C18 16.347 17.7629 16.9193 17.341 17.3412C16.919 17.7632 16.3467 18.0002 15.75 18.0002Z" fill="#0CAE35"/>
<path id="Vector_2" d="M1.5 6H0V2.25C0 1.65326 0.237053 1.08097 0.65901 0.65901C1.08097 0.237053 1.65326 0 2.25 0L6 0V1.5H2.25C2.05109 1.5 1.86032 1.57902 1.71967 1.71967C1.57902 1.86032 1.5 2.05109 1.5 2.25V6Z" fill="#0CAE35"/>
<path id="Vector_3" d="M6 18.0002H2.25C1.65326 18.0002 1.08097 17.7632 0.65901 17.3412C0.237053 16.9193 0 16.347 0 15.7502L0 12.0002H1.5V15.7502C1.5 15.9491 1.57902 16.1399 1.71967 16.2806C1.86032 16.4212 2.05109 16.5002 2.25 16.5002H6V18.0002Z" fill="#0CAE35"/>
<path id="Vector_4" d="M18 6H16.5V2.25C16.5 2.05109 16.421 1.86032 16.2803 1.71967C16.1397 1.57902 15.9489 1.5 15.75 1.5H12V0H15.75C16.3467 0 16.919 0.237053 17.341 0.65901C17.7629 1.08097 18 1.65326 18 2.25V6Z" fill="#0CAE35"/>
<path id="Vector_5" d="M8.99951 8.25C8.40617 8.25 7.82615 8.07405 7.3328 7.74441C6.83946 7.41477 6.45494 6.94623 6.22787 6.39805C6.00081 5.84987 5.9414 5.24667 6.05716 4.66473C6.17291 4.08279 6.45864 3.54824 6.87819 3.12868C7.29775 2.70912 7.8323 2.4234 8.41424 2.30765C8.99619 2.19189 9.59939 2.2513 10.1476 2.47836C10.6957 2.70543 11.1643 3.08994 11.4939 3.58329C11.8236 4.07664 11.9995 4.65666 11.9995 5.25C11.9995 6.04565 11.6834 6.80871 11.1208 7.37132C10.5582 7.93393 9.79516 8.25 8.99951 8.25ZM8.99951 3.75C8.70284 3.75 8.41283 3.83797 8.16616 4.0028C7.91948 4.16762 7.72723 4.40189 7.61369 4.67598C7.50016 4.95006 7.47046 5.25167 7.52834 5.54264C7.58621 5.83361 7.72907 6.10088 7.93885 6.31066C8.14863 6.52044 8.41591 6.6633 8.70688 6.72118C8.99785 6.77906 9.29945 6.74935 9.57354 6.63582C9.84763 6.52229 10.0819 6.33003 10.2467 6.08336C10.4115 5.83668 10.4995 5.54667 10.4995 5.25C10.4995 4.85218 10.3415 4.47065 10.0602 4.18934C9.77887 3.90804 9.39734 3.75 8.99951 3.75Z" fill="#0CAE35"/>
<path id="Vector_6" d="M14.25 15.0002H12.75V12.0002C12.75 11.8013 12.671 11.6106 12.5303 11.4699C12.3897 11.3293 12.1989 11.2502 12 11.2502H6C5.80109 11.2502 5.61032 11.3293 5.46967 11.4699C5.32902 11.6106 5.25 11.8013 5.25 12.0002V15.0002H3.75V12.0002C3.75 11.4035 3.98705 10.8312 4.40901 10.4093C4.83097 9.9873 5.40326 9.75024 6 9.75024H12C12.5967 9.75024 13.169 9.9873 13.591 10.4093C14.0129 10.8312 14.25 11.4035 14.25 12.0002V15.0002Z" fill="#0CAE35"/>
</g>
</svg>
