<svg width="20" height="20" viewBox="0 0 20 20" fill="none" xmlns="http://www.w3.org/2000/svg">
<g clip-path="url(#clip0_2540_3089)">
<path d="M4.72656 8.24219H3.55469V7.65625C3.55469 4.08074 6.44605 1.17188 10 1.17188C13.5539 1.17188 16.4453 4.08074 16.4453 7.65625V8.24219H15.2734V15.2734H16.4453V17.0703C16.4453 17.3934 16.1825 17.6562 15.8594 17.6562H11.657C11.4152 16.9743 10.7639 16.4844 10 16.4844C9.03074 16.4844 8.24219 17.2729 8.24219 18.2422C8.24219 19.2114 9.03074 20 10 20C10.7639 20 11.4152 19.5101 11.657 18.8281H15.8594C16.8286 18.8281 17.6172 18.0396 17.6172 17.0703V15.2734H20V8.24219H17.6172V7.65625C17.6172 3.43457 14.2001 0 10 0C5.79988 0 2.38281 3.43457 2.38281 7.65625V8.24219H0V14.1016H4.72656V8.24219ZM10 18.8281C9.67691 18.8281 9.41406 18.5653 9.41406 18.2422C9.41406 17.9191 9.67691 17.6562 10 17.6562C10.3231 17.6562 10.5859 17.9191 10.5859 18.2422C10.5859 18.5653 10.3231 18.8281 10 18.8281ZM18.8281 14.1016H16.4453V9.41406H18.8281V14.1016ZM3.55469 12.9297H1.17188V9.41406H3.55469V12.9297Z" fill="#A7A9AC"/>
</g>
<defs>
<clipPath id="clip0_2540_3089">
<rect width="20" height="20" fill="white"/>
</clipPath>
</defs>
</svg>
