<svg width="22" height="21" viewBox="0 0 22 21" fill="none" xmlns="http://www.w3.org/2000/svg">
<path d="M14.5 14.2728H21V13.3637V1H1V14.2728H7.5" stroke="#0CAE35" stroke-width="1.2"/>
<path d="M11.4243 13.303C11.1899 13.0687 10.81 13.0687 10.5757 13.303L6.75736 17.1214C6.52304 17.3557 6.52304 17.7356 6.75736 17.9699C6.99167 18.2042 7.37157 18.2042 7.60589 17.9699L11 14.5758L14.3941 17.9699C14.6284 18.2042 15.0083 18.2042 15.2426 17.9699C15.477 17.7356 15.477 17.3557 15.2426 17.1214L11.4243 13.303ZM11.6 21L11.6 13.7273L10.4 13.7273L10.4 21L11.6 21Z" fill="#0CAE35"/>
<path d="M21 4.63635H1" stroke="#0CAE35" stroke-width="1.2"/>
</svg>
