<svg width="220" height="26" viewBox="0 0 220 26" fill="none" xmlns="http://www.w3.org/2000/svg">
<path d="M34.295 0.0535614L28.6734 10.8194L27.4147 8.81621C25.868 9.54464 23.2865 10.5409 19.9903 11.0122V25.9987H12.5233V11.0122C4.9176 9.90886 0.213344 5.81677 0 5.62395L4.93892 0C4.93892 0 8.76843 3.23511 14.7634 3.71716C18.5396 4.01711 21.6118 3.12799 23.3825 2.41026L22.2091 0.546326L34.295 0.0535614Z" fill="#56FF9B"/>
<path d="M42.6719 8.52765H50.4803V25.9994H54.7792V8.52765H62.5875V4.74622H42.6719V8.52765Z" fill="#414042"/>
<path d="M86.2875 16.4442C86.6822 15.8443 86.9702 15.1908 87.1622 14.4838C87.3542 13.7768 87.4502 13.0269 87.4502 12.2342C87.4502 11.0666 87.2582 10.0168 86.8742 9.09552C86.4902 8.17427 85.9035 7.38156 85.1248 6.73882C84.3461 6.09609 83.354 5.60332 82.1593 5.26053C80.9646 4.91773 79.5565 4.74634 77.9351 4.74634H67.1719V25.9995H71.4601V19.9471H77.9564L78.0737 19.9578L82.0526 25.9995H87.3115L82.7033 19.1972C83.5033 18.8866 84.2074 18.5009 84.8047 18.0296C85.4021 17.5582 85.8928 17.0333 86.2875 16.4334V16.4442ZM82.618 13.8732C82.4153 14.366 82.1059 14.7837 81.7006 15.1265C81.2952 15.4693 80.7832 15.7371 80.1752 15.93C79.5672 16.1228 78.8525 16.2192 78.0417 16.2192H71.4601V8.49564H78.0417C79.6738 8.49564 80.9006 8.81701 81.7113 9.47045C82.522 10.1239 82.9273 11.0344 82.9273 12.2235C82.9273 12.8341 82.8207 13.3804 82.618 13.8732Z" fill="#414042"/>
<path d="M99.7504 4.74634L89.8086 25.9995H94.3315L95.9742 22.4216H108.338L110.034 25.9995H114.546L104.305 4.74634H99.7504ZM97.6063 18.8758L102.065 9.22407L106.641 18.8758H97.6063Z" fill="#414042"/>
<path d="M135.284 13.8195L122.089 4.74622H117.801V25.9994H122.089V9.3525L135.284 18.3937V25.9994H139.573V4.74622H135.284V13.8195Z" fill="#414042"/>
<path d="M144.727 8.40994H156.375L154.348 10.9059L144.727 23.2786V25.9995H162.637V22.3252H150.412L152.524 19.69L162.637 6.92093V4.74634H144.727V8.40994Z" fill="#414042"/>
<path d="M171.992 4.74634H167.672V25.9995H171.992V4.74634Z" fill="#414042"/>
<path d="M177.016 25.9995H181.315V17.6332H193.742V14.0874H181.315V8.52777H195.95V4.74634H177.016V25.9995Z" fill="#414042"/>
<path d="M215.138 4.74634L208.706 16.8298L202.188 4.74634H197.324L206.583 20.7398V25.9995H210.872V20.7076L220.003 4.74634H215.138Z" fill="#414042"/>
</svg>
