<svg width="245" height="29" viewBox="0 0 245 29" fill="none" xmlns="http://www.w3.org/2000/svg">
<path d="M38.1922 0.0597299L31.9317 12.0684L30.53 9.83394C28.8075 10.6465 25.9327 11.7577 22.262 12.2835V29H13.9464V12.2835C5.47641 11.0527 0.237587 6.48826 0 6.27318L5.50015 0C5.50015 0 9.76483 3.60857 16.441 4.14627C20.6463 4.48084 24.0676 3.48908 26.0396 2.6885L24.7328 0.609388L38.1922 0.0597299Z" fill="white"/>
<path d="M47.5156 9.5113H56.2113V29H60.9987V9.5113H69.6944V5.29333H47.5156V9.5113Z" fill="white"/>
<path d="M96.0925 18.3415C96.5321 17.6724 96.8528 16.9435 97.0666 16.1549C97.2805 15.3663 97.3874 14.5298 97.3874 13.6456C97.3874 12.3432 97.1735 11.1722 96.7459 10.1446C96.3182 9.11698 95.6649 8.23277 94.7977 7.51583C93.9305 6.7989 92.8257 6.24924 91.4952 5.86688C90.1647 5.48451 88.5966 5.29333 86.791 5.29333H74.8047V29H79.5802V22.2488H86.8147L86.9454 22.2608L91.3764 29H97.2329L92.101 21.4124C92.992 21.0659 93.776 20.6357 94.4413 20.11C95.1065 19.5842 95.653 18.9987 96.0925 18.3296V18.3415ZM92.006 15.4738C91.7803 16.0235 91.4358 16.4894 90.9844 16.8718C90.533 17.2542 89.9628 17.5529 89.2856 17.768C88.6085 17.9831 87.8126 18.0906 86.9098 18.0906H79.5802V9.47545H86.9098C88.7273 9.47545 90.0934 9.83392 90.9963 10.5628C91.8991 11.2917 92.3505 12.3073 92.3505 13.6337C92.3505 14.3148 92.2317 14.9242 92.006 15.4738Z" fill="white"/>
<path d="M111.083 5.29333L100.012 29H105.049L106.878 25.0091H120.646L122.535 29H127.56L116.156 5.29333H111.083ZM108.696 21.0539L113.661 10.288L118.757 21.0539H108.696Z" fill="white"/>
<path d="M150.654 15.4141L135.959 5.29333H131.184V29H135.959V10.4314L150.654 20.5162V29H155.429V5.29333H150.654V15.4141Z" fill="white"/>
<path d="M161.164 9.39182H174.136L171.879 12.164L161.164 25.9769V29H181.11V24.9015H167.496L169.848 21.9621L181.11 7.71896V5.29333H161.164V9.39182Z" fill="white"/>
<path d="M191.53 5.29333H186.719V29H191.53V5.29333Z" fill="white"/>
<path d="M197.125 29H201.912V19.6679H215.752V15.7128H201.912V9.5113H218.211V5.29333H197.125V29Z" fill="white"/>
<path d="M239.581 5.29333L232.417 18.7717L225.159 5.29333H219.742L230.053 23.1331V29H234.829V23.0972L244.998 5.29333H239.581Z" fill="white"/>
</svg>
