<svg width="20" height="20" viewBox="0 0 20 20" fill="none" xmlns="http://www.w3.org/2000/svg">
<g clip-path="url(#clip0_894_29558)">
<path d="M9.96402 20.0065L9.38312 19.5086C8.5823 18.838 1.58984 12.7991 1.58984 8.38175C1.58984 3.75683 5.3391 0.00756836 9.96402 0.00756836C14.5889 0.00756836 18.3382 3.75683 18.3382 8.38175C18.3382 12.7991 11.3457 18.8381 10.5482 19.5119L9.96402 20.0065ZM9.96402 1.81831C6.34086 1.82241 3.40473 4.75855 3.40062 8.38171C3.40062 11.1568 7.70266 15.5899 9.96402 17.6189C12.2254 15.5891 16.5274 11.1534 16.5274 8.38171C16.5233 4.75855 13.5872 1.82245 9.96402 1.81831Z" fill="#0CAE35"/>
<path d="M9.96398 11.7009C8.1307 11.7009 6.64453 10.2147 6.64453 8.38146C6.64453 6.54818 8.1307 5.06201 9.96398 5.06201C11.7973 5.06201 13.2834 6.54818 13.2834 8.38146C13.2834 10.2147 11.7973 11.7009 9.96398 11.7009ZM9.96398 6.7217C9.04734 6.7217 8.30426 7.46479 8.30426 8.38143C8.30426 9.29807 9.04734 10.0412 9.96398 10.0412C10.8806 10.0412 11.6237 9.29807 11.6237 8.38143C11.6237 7.46479 10.8807 6.7217 9.96398 6.7217Z" fill="#0CAE35"/>
</g>
<defs>
<clipPath id="clip0_894_29558">
<rect width="20" height="20" fill="white"/>
</clipPath>
</defs>
</svg>
