<svg width="18" height="19" viewBox="0 0 18 19" fill="none" xmlns="http://www.w3.org/2000/svg">
<path d="M1.5 4.4525L2.46 3.5L15 16.04L14.0475 17L11.7375 14.69C10.875 14.975 9.96 15.125 9 15.125C5.25 15.125 2.0475 12.7925 0.75 9.5C1.2675 8.18 2.0925 7.0175 3.1425 6.095L1.5 4.4525ZM9 7.25C9.59674 7.25 10.169 7.48705 10.591 7.90901C11.0129 8.33097 11.25 8.90326 11.25 9.5C11.2504 9.75542 11.2073 10.009 11.1225 10.25L8.25 7.3775C8.49095 7.29274 8.74458 7.24962 9 7.25ZM9 3.875C12.75 3.875 15.9525 6.2075 17.25 9.5C16.6375 11.0547 15.5974 12.4042 14.25 13.3925L13.185 12.32C14.2222 11.6026 15.0587 10.6318 15.615 9.5C15.0087 8.2624 14.0674 7.21972 12.898 6.49051C11.7286 5.76131 10.3781 5.37482 9 5.375C8.1825 5.375 7.38 5.51 6.63 5.75L5.475 4.6025C6.555 4.1375 7.7475 3.875 9 3.875ZM2.385 9.5C2.99126 10.7376 3.93259 11.7803 5.10198 12.5095C6.27136 13.2387 7.62188 13.6252 9 13.625C9.5175 13.625 10.0275 13.5725 10.5 13.4675L8.79 11.75C8.26812 11.6941 7.78112 11.4612 7.40998 11.09C7.03884 10.7189 6.80594 10.2319 6.75 9.71L4.2 7.1525C3.4575 7.79 2.835 8.585 2.385 9.5Z" fill="#1E1E1E"/>
</svg>
