<svg width="312" height="54" viewBox="0 0 312 54" fill="none" xmlns="http://www.w3.org/2000/svg">
<rect width="312" height="54" fill="#414042" fill-opacity="0.4"/>
<path d="M47.1672 24.1536V19.941H43.6835V21.4736L40 18.6399L30 26.3327L32.0951 29.0561L33.1209 28.267V35.3601H39.0396V30.163H41.1939V35.3601H46.8792V28.267L47.905 29.0561L50 26.3328L47.1672 24.1536ZM45.7059 34.1868H42.3671V28.9897H37.8663V34.1868H34.2941V27.3644L40 22.9752L45.7059 27.3644L45.7059 34.1868ZM47.6904 27.4108L40 21.4947L32.3096 27.4108L31.6453 26.5473L40 20.1201L44.8568 23.8564V21.1142H45.994V24.7313L48.3547 26.5473L47.6904 27.4108Z" fill="white"/>
<path d="M68.375 20.625V21.8594H62.8906V32H61.3906V20.625H68.375ZM68.1562 27.8672V27.6875C68.1562 27.0781 68.2448 26.513 68.4219 25.9922C68.599 25.4661 68.8542 25.0104 69.1875 24.625C69.5208 24.2344 69.9245 23.9323 70.3984 23.7188C70.8724 23.5 71.4036 23.3906 71.9922 23.3906C72.5859 23.3906 73.1198 23.5 73.5938 23.7188C74.0729 23.9323 74.4792 24.2344 74.8125 24.625C75.151 25.0104 75.4089 25.4661 75.5859 25.9922C75.763 26.513 75.8516 27.0781 75.8516 27.6875V27.8672C75.8516 28.4766 75.763 29.0417 75.5859 29.5625C75.4089 30.0833 75.151 30.5391 74.8125 30.9297C74.4792 31.3151 74.0755 31.6172 73.6016 31.8359C73.1328 32.0495 72.6016 32.1562 72.0078 32.1562C71.4141 32.1562 70.8802 32.0495 70.4062 31.8359C69.9323 31.6172 69.526 31.3151 69.1875 30.9297C68.8542 30.5391 68.599 30.0833 68.4219 29.5625C68.2448 29.0417 68.1562 28.4766 68.1562 27.8672ZM69.6016 27.6875V27.8672C69.6016 28.2891 69.651 28.6875 69.75 29.0625C69.849 29.4323 69.9974 29.7604 70.1953 30.0469C70.3984 30.3333 70.651 30.5599 70.9531 30.7266C71.2552 30.888 71.6068 30.9688 72.0078 30.9688C72.4036 30.9688 72.75 30.888 73.0469 30.7266C73.349 30.5599 73.599 30.3333 73.7969 30.0469C73.9948 29.7604 74.1432 29.4323 74.2422 29.0625C74.3464 28.6875 74.3984 28.2891 74.3984 27.8672V27.6875C74.3984 27.2708 74.3464 26.8776 74.2422 26.5078C74.1432 26.1328 73.9922 25.8021 73.7891 25.5156C73.5911 25.224 73.3411 24.9948 73.0391 24.8281C72.7422 24.6615 72.3932 24.5781 71.9922 24.5781C71.5964 24.5781 71.2474 24.6615 70.9453 24.8281C70.6484 24.9948 70.3984 25.224 70.1953 25.5156C69.9974 25.8021 69.849 26.1328 69.75 26.5078C69.651 26.8776 69.6016 27.2708 69.6016 27.6875ZM83.1875 23.5469V24.7422H79.1016V23.5469H83.1875ZM84.4609 23.5469V32H83.0156V23.5469H84.4609ZM78.75 23.5469H80.2031L79.9844 27.625C79.9479 28.2552 79.888 28.8125 79.8047 29.2969C79.7266 29.776 79.6172 30.1875 79.4766 30.5312C79.3411 30.875 79.1693 31.1562 78.9609 31.375C78.7578 31.5885 78.513 31.7474 78.2266 31.8516C77.9401 31.9505 77.6094 32 77.2344 32H76.7812V30.7266L77.0938 30.7031C77.3177 30.6875 77.5078 30.6354 77.6641 30.5469C77.8255 30.4583 77.9609 30.3281 78.0703 30.1562C78.1797 29.9792 78.2682 29.7526 78.3359 29.4766C78.4089 29.2005 78.4635 28.8724 78.5 28.4922C78.5417 28.112 78.5729 27.6693 78.5938 27.1641L78.75 23.5469ZM86.4062 27.8672V27.6875C86.4062 27.0781 86.4948 26.513 86.6719 25.9922C86.849 25.4661 87.1042 25.0104 87.4375 24.625C87.7708 24.2344 88.1745 23.9323 88.6484 23.7188C89.1224 23.5 89.6536 23.3906 90.2422 23.3906C90.8359 23.3906 91.3698 23.5 91.8438 23.7188C92.3229 23.9323 92.7292 24.2344 93.0625 24.625C93.401 25.0104 93.6589 25.4661 93.8359 25.9922C94.013 26.513 94.1016 27.0781 94.1016 27.6875V27.8672C94.1016 28.4766 94.013 29.0417 93.8359 29.5625C93.6589 30.0833 93.401 30.5391 93.0625 30.9297C92.7292 31.3151 92.3255 31.6172 91.8516 31.8359C91.3828 32.0495 90.8516 32.1562 90.2578 32.1562C89.6641 32.1562 89.1302 32.0495 88.6562 31.8359C88.1823 31.6172 87.776 31.3151 87.4375 30.9297C87.1042 30.5391 86.849 30.0833 86.6719 29.5625C86.4948 29.0417 86.4062 28.4766 86.4062 27.8672ZM87.8516 27.6875V27.8672C87.8516 28.2891 87.901 28.6875 88 29.0625C88.099 29.4323 88.2474 29.7604 88.4453 30.0469C88.6484 30.3333 88.901 30.5599 89.2031 30.7266C89.5052 30.888 89.8568 30.9688 90.2578 30.9688C90.6536 30.9688 91 30.888 91.2969 30.7266C91.599 30.5599 91.849 30.3333 92.0469 30.0469C92.2448 29.7604 92.3932 29.4323 92.4922 29.0625C92.5964 28.6875 92.6484 28.2891 92.6484 27.8672V27.6875C92.6484 27.2708 92.5964 26.8776 92.4922 26.5078C92.3932 26.1328 92.2422 25.8021 92.0391 25.5156C91.8411 25.224 91.5911 24.9948 91.2891 24.8281C90.9922 24.6615 90.6432 24.5781 90.2422 24.5781C89.8464 24.5781 89.4974 24.6615 89.1953 24.8281C88.8984 24.9948 88.6484 25.224 88.4453 25.5156C88.2474 25.8021 88.099 26.1328 88 26.5078C87.901 26.8776 87.8516 27.2708 87.8516 27.6875ZM99.8828 28.2812H97.1094L97.0938 27.125H99.3594C99.8073 27.125 100.18 27.0807 100.477 26.9922C100.779 26.9036 101.005 26.7708 101.156 26.5938C101.307 26.4167 101.383 26.1979 101.383 25.9375C101.383 25.7344 101.339 25.5573 101.25 25.4062C101.167 25.25 101.039 25.1224 100.867 25.0234C100.695 24.9193 100.482 24.8438 100.227 24.7969C99.9766 24.7448 99.6823 24.7188 99.3438 24.7188H97.4922V32H96.0469V23.5469H99.3438C99.8802 23.5469 100.362 23.5938 100.789 23.6875C101.221 23.7812 101.589 23.9245 101.891 24.1172C102.198 24.3047 102.432 24.5443 102.594 24.8359C102.755 25.1276 102.836 25.4714 102.836 25.8672C102.836 26.1224 102.784 26.3646 102.68 26.5938C102.576 26.8229 102.422 27.026 102.219 27.2031C102.016 27.3802 101.766 27.526 101.469 27.6406C101.172 27.75 100.831 27.8203 100.445 27.8516L99.8828 28.2812ZM99.8828 32H96.5859L97.3047 30.8281H99.8828C100.284 30.8281 100.617 30.7786 100.883 30.6797C101.148 30.5755 101.346 30.4297 101.477 30.2422C101.612 30.0495 101.68 29.8203 101.68 29.5547C101.68 29.2891 101.612 29.0625 101.477 28.875C101.346 28.6823 101.148 28.5365 100.883 28.4375C100.617 28.3333 100.284 28.2812 99.8828 28.2812H97.6875L97.7031 27.125H100.445L100.969 27.5625C101.432 27.599 101.826 27.7135 102.148 27.9062C102.471 28.099 102.716 28.3438 102.883 28.6406C103.049 28.9323 103.133 29.25 103.133 29.5938C103.133 29.9896 103.057 30.3385 102.906 30.6406C102.76 30.9427 102.547 31.1953 102.266 31.3984C101.984 31.5964 101.643 31.7474 101.242 31.8516C100.841 31.9505 100.388 32 99.8828 32ZM110.805 27.2109V28.3828H106.336V27.2109H110.805ZM106.641 23.5469V32H105.195V23.5469H106.641ZM111.977 23.5469V32H110.523V23.5469H111.977ZM119.289 30.5547V26.2031C119.289 25.8698 119.221 25.5807 119.086 25.3359C118.956 25.0859 118.758 24.8932 118.492 24.7578C118.227 24.6224 117.898 24.5547 117.508 24.5547C117.143 24.5547 116.823 24.6172 116.547 24.7422C116.276 24.8672 116.062 25.0312 115.906 25.2344C115.755 25.4375 115.68 25.6562 115.68 25.8906H114.234C114.234 25.5885 114.312 25.2891 114.469 24.9922C114.625 24.6953 114.849 24.4271 115.141 24.1875C115.438 23.9427 115.792 23.75 116.203 23.6094C116.62 23.4635 117.083 23.3906 117.594 23.3906C118.208 23.3906 118.75 23.4948 119.219 23.7031C119.693 23.9115 120.062 24.2266 120.328 24.6484C120.599 25.0651 120.734 25.5885 120.734 26.2188V30.1562C120.734 30.4375 120.758 30.737 120.805 31.0547C120.857 31.3724 120.932 31.6458 121.031 31.875V32H119.523C119.451 31.8333 119.393 31.612 119.352 31.3359C119.31 31.0547 119.289 30.7943 119.289 30.5547ZM119.539 26.875L119.555 27.8906H118.094C117.682 27.8906 117.315 27.9245 116.992 27.9922C116.669 28.0547 116.398 28.151 116.18 28.2812C115.961 28.4115 115.794 28.5755 115.68 28.7734C115.565 28.9661 115.508 29.1927 115.508 29.4531C115.508 29.7188 115.568 29.9609 115.688 30.1797C115.807 30.3984 115.987 30.5729 116.227 30.7031C116.471 30.8281 116.771 30.8906 117.125 30.8906C117.568 30.8906 117.958 30.7969 118.297 30.6094C118.635 30.4219 118.904 30.1927 119.102 29.9219C119.305 29.651 119.414 29.388 119.43 29.1328L120.047 29.8281C120.01 30.0469 119.911 30.2891 119.75 30.5547C119.589 30.8203 119.372 31.0755 119.102 31.3203C118.836 31.5599 118.518 31.7604 118.148 31.9219C117.784 32.0781 117.372 32.1562 116.914 32.1562C116.341 32.1562 115.839 32.0443 115.406 31.8203C114.979 31.5964 114.646 31.2969 114.406 30.9219C114.172 30.5417 114.055 30.1172 114.055 29.6484C114.055 29.1953 114.143 28.7969 114.32 28.4531C114.497 28.1042 114.753 27.8151 115.086 27.5859C115.419 27.3516 115.82 27.1745 116.289 27.0547C116.758 26.9349 117.281 26.875 117.859 26.875H119.539Z" fill="white"/>
</svg>
