<svg width="20" height="20" viewBox="0 0 20 20" fill="none" xmlns="http://www.w3.org/2000/svg">
<g clip-path="url(#clip0_1451_23604)">
<path d="M17.6561 7.89008V0H0V12.1099H2.34391V20H20V7.89008H17.6561ZM16.4842 4.68777H1.17188V3.51578H16.4842V4.68777ZM16.4842 1.17188V2.34391H1.17188V1.17188H16.4842ZM1.17188 10.938V5.85965H16.4842V7.89008H2.34391V10.938H1.17188V10.938ZM18.8281 18.8281H3.51578V9.06195H18.8281V18.8281Z" fill="#A7A9AC"/>
<path d="M4.6875 16.4843H8.2291V17.6561H4.6875V16.4843Z" fill="#A7A9AC"/>
<path d="M9.40234 16.4843H12.944V17.6561H9.40234V16.4843Z" fill="#A7A9AC"/>
<path d="M14.1133 16.4843H17.6549V17.6561H14.1133V16.4843Z" fill="#A7A9AC"/>
<path d="M17.6565 10.2339H12.9688V13.7496H17.6565V10.2339ZM16.4846 12.5778H14.1406V11.4058H16.4846V12.5778Z" fill="#A7A9AC"/>
</g>
<defs>
<clipPath id="clip0_1451_23604">
<rect width="20" height="20" fill="white"/>
</clipPath>
</defs>
</svg>
