<svg width="20" height="20" viewBox="0 0 20 20" fill="none" xmlns="http://www.w3.org/2000/svg">
<g clip-path="url(#clip0_1451_23613)">
<path d="M20 12.3976V7.60238L18.155 7.32C18.0208 6.91176 17.8556 6.51336 17.6611 6.12914L18.7664 4.6243L15.3757 1.23355L13.8708 2.33887C13.4866 2.14438 13.0882 1.97918 12.68 1.84496L12.3976 0H7.60238L7.32 1.845C6.91176 1.97918 6.51336 2.14441 6.12914 2.33891L4.6243 1.23359L1.23355 4.62434L2.33887 6.12918C2.14438 6.5134 1.97918 6.9118 1.84496 7.32004L0 7.60238V12.3976L1.845 12.68C1.97918 13.0882 2.14441 13.4866 2.33891 13.8709L1.23359 15.3757L4.62434 18.7664L6.12918 17.6611C6.5134 17.8556 6.9118 18.0208 7.32004 18.155L7.60238 20H12.3976L12.68 18.155C13.0882 18.0208 13.4866 17.8556 13.8709 17.6611L15.3757 18.7664L18.7664 15.3757L17.6611 13.8708C17.8556 13.4866 18.0208 13.0882 18.155 12.68L20 12.3976ZM17.2393 11.6346L17.1375 11.9989C16.9788 12.5671 16.7508 13.1168 16.46 13.6327L16.2742 13.9623L17.2263 15.2586L15.2585 17.2264L13.9622 16.2743L13.6326 16.46C13.1167 16.7508 12.567 16.9788 11.9989 17.1376L11.6346 17.2394L11.3914 18.8281H8.60855L8.36535 17.2393L8.00109 17.1375C7.43293 16.9788 6.88324 16.7508 6.36734 16.46L6.03773 16.2742L4.74145 17.2263L2.77363 15.2585L3.72574 13.9622L3.53996 13.6326C3.24918 13.1167 3.02121 12.567 2.86242 11.9989L2.76062 11.6346L1.17188 11.3914V8.60855L2.76066 8.36535L2.86246 8.00109C3.02125 7.43293 3.24918 6.88324 3.54 6.36734L3.72578 6.03773L2.77367 4.74145L4.74148 2.77363L6.03777 3.72574L6.36738 3.53996C6.88328 3.24918 7.43297 3.02121 8.00113 2.86242L8.36539 2.76062L8.60855 1.17188H11.3914L11.6346 2.76066L11.9989 2.86246C12.5671 3.02125 13.1168 3.24918 13.6327 3.54L13.9623 3.72578L15.2586 2.77367L17.2264 4.74148L16.2743 6.03777L16.46 6.36738C16.7508 6.88328 16.9788 7.43297 17.1376 8.00113L17.2394 8.36539L18.8281 8.60855V11.3914L17.2393 11.6346Z" fill="#A7A9AC"/>
<path d="M9.99965 5.16052C7.33113 5.16052 5.16016 7.3315 5.16016 10C5.16016 12.6685 7.33113 14.8395 9.99965 14.8395C12.6682 14.8395 14.8391 12.6685 14.8391 10C14.8391 7.3315 12.6682 5.16052 9.99965 5.16052ZM9.99965 13.6676C7.97734 13.6676 6.33203 12.0224 6.33203 10C6.33203 7.97767 7.9773 6.3324 9.99965 6.3324C12.022 6.3324 13.6673 7.97767 13.6673 10C13.6673 12.0224 12.022 13.6676 9.99965 13.6676Z" fill="#A7A9AC"/>
</g>
<defs>
<clipPath id="clip0_1451_23613">
<rect width="20" height="20" fill="white"/>
</clipPath>
</defs>
</svg>
