<svg width="22" height="25" viewBox="0 0 22 25" fill="none" xmlns="http://www.w3.org/2000/svg">
<g clip-path="url(#clip0_1451_23120)">
<path d="M16.5 16.4064C16.5 15.9749 16.8518 15.6251 17.2857 15.6251C17.7197 15.6251 18.0714 15.9749 18.0714 16.4064C18.0714 16.8379 17.7197 17.1876 17.2857 17.1876C16.8518 17.1876 16.5 16.8379 16.5 16.4064Z" fill="#0CAE35"/>
<path fill-rule="evenodd" clip-rule="evenodd" d="M5.5 0C5.06607 0 4.71429 0.349777 4.71429 0.78125V3.90625H2.35714C1.92321 3.90625 1.57143 4.25603 1.57143 4.6875V7.94586C0.655921 8.26758 0 9.13578 0 10.1562V22.6562C0 23.9507 1.05533 25 2.35714 25H19.6429C20.9447 25 22 23.9507 22 22.6562V10.1562C22 9.13578 21.3441 8.26758 20.4286 7.94586V0.78125C20.4286 0.349777 20.0768 0 19.6429 0H5.5ZM20.4286 13.2812V10.1562C20.4286 9.72477 20.0768 9.375 19.6429 9.375H2.35714C1.92321 9.375 1.57143 9.72477 1.57143 10.1562V22.6562C1.57143 23.0877 1.92321 23.4375 2.35714 23.4375H19.6429C20.0768 23.4375 20.4286 23.0877 20.4286 22.6562V19.5312H17.2857C15.55 19.5312 14.1429 18.1321 14.1429 16.4062C14.1429 14.6804 15.55 13.2812 17.2857 13.2812H20.4286ZM20.4286 17.9688V14.8438H17.2857C16.4178 14.8438 15.7143 15.5433 15.7143 16.4062C15.7143 17.2692 16.4178 17.9688 17.2857 17.9688H20.4286ZM18.8571 1.5625H6.28571V3.90625H15.7143C16.1482 3.90625 16.5 4.25603 16.5 4.6875V7.8125H18.8571V1.5625ZM14.9286 7.8125V5.46875H3.14286V7.8125H14.9286Z" fill="#0CAE35"/>
</g>
<defs>
<clipPath id="clip0_1451_23120">
<rect width="22" height="25" fill="white"/>
</clipPath>
</defs>
</svg>
