<svg width="21" height="27" viewBox="0 0 21 27" fill="none" xmlns="http://www.w3.org/2000/svg">
<g clip-path="url(#clip0_1451_23219)">
<path fill-rule="evenodd" clip-rule="evenodd" d="M3.91121 3.36496H2.55986C2.05824 3.36496 1.57662 3.59162 1.22202 3.99457C0.867428 4.39813 0.667969 4.94481 0.667969 5.51484V23.9424C0.667969 24.5124 0.867428 25.0591 1.22202 25.4626C1.57716 25.8656 2.05824 26.0922 2.55986 26.0922H18.7761C19.2777 26.0922 19.7588 25.8656 20.1139 25.4626C20.4685 25.0591 20.668 24.5124 20.668 23.9424C20.668 20.2397 20.668 9.21754 20.668 5.51484C20.668 4.94481 20.4685 4.39813 20.1139 3.99457C19.7593 3.59162 19.2777 3.36496 18.7761 3.36496H17.4247V3.05784C17.4247 2.48781 17.2253 1.94051 16.8707 1.53756C16.5155 1.13461 16.0345 0.907959 15.5328 0.907959C13.2712 0.907959 8.06473 0.907959 5.8031 0.907959C5.30148 0.907959 4.8204 1.13461 4.46527 1.53756C4.11067 1.94051 3.91121 2.48781 3.91121 3.05784V3.36496ZM17.4247 5.20771V5.51484C17.4247 6.08486 17.2253 6.63216 16.8707 7.03511C16.5155 7.43806 16.0345 7.66472 15.5328 7.66472C13.2712 7.66472 8.06473 7.66472 5.8031 7.66472C5.30148 7.66472 4.8204 7.43806 4.46527 7.03511C4.11067 6.63216 3.91121 6.08486 3.91121 5.51484V5.20771H2.55986C2.48797 5.20771 2.41932 5.24027 2.36851 5.29739C2.31824 5.35513 2.28959 5.43314 2.28959 5.51484V23.9424C2.28959 24.0241 2.31824 24.1021 2.36851 24.1598C2.41932 24.2169 2.48797 24.2495 2.55986 24.2495H18.7761C18.848 24.2495 18.9166 24.2169 18.9674 24.1598C19.0177 24.1021 19.0463 24.0241 19.0463 23.9424V5.51484C19.0463 5.43314 19.0177 5.35513 18.9674 5.29739C18.9166 5.24027 18.848 5.20771 18.7761 5.20771H17.4247ZM8.23554 21.1782H16.8842C17.3318 21.1782 17.695 20.7655 17.695 20.2569C17.695 19.7483 17.3318 19.3355 16.8842 19.3355H8.23554C7.78797 19.3355 7.42473 19.7483 7.42473 20.2569C7.42473 20.7655 7.78797 21.1782 8.23554 21.1782ZM4.45175 20.2569C4.45175 19.7483 4.815 19.3355 5.26256 19.3355C5.71013 19.3355 6.07337 19.7483 6.07337 20.2569C6.07337 20.7655 5.71013 21.1782 5.26256 21.1782C4.815 21.1782 4.45175 20.7655 4.45175 20.2569ZM8.23554 16.8785H16.8842C17.3318 16.8785 17.695 16.4657 17.695 15.9571C17.695 15.4485 17.3318 15.0357 16.8842 15.0357H8.23554C7.78797 15.0357 7.42473 15.4485 7.42473 15.9571C7.42473 16.4657 7.78797 16.8785 8.23554 16.8785ZM4.45175 15.9571C4.45175 15.4485 4.815 15.0357 5.26256 15.0357C5.71013 15.0357 6.07337 15.4485 6.07337 15.9571C6.07337 16.4657 5.71013 16.8785 5.26256 16.8785C4.815 16.8785 4.45175 16.4657 4.45175 15.9571ZM8.23554 12.5787H16.8842C17.3318 12.5787 17.695 12.1659 17.695 11.6573C17.695 11.1487 17.3318 10.736 16.8842 10.736H8.23554C7.78797 10.736 7.42473 11.1487 7.42473 11.6573C7.42473 12.1659 7.78797 12.5787 8.23554 12.5787ZM4.45175 11.6573C4.45175 11.1487 4.815 10.736 5.26256 10.736C5.71013 10.736 6.07337 11.1487 6.07337 11.6573C6.07337 12.1659 5.71013 12.5787 5.26256 12.5787C4.815 12.5787 4.45175 12.1659 4.45175 11.6573ZM15.8031 3.05784V5.51484C15.8031 5.59653 15.7745 5.67455 15.7242 5.73229C15.6734 5.78941 15.6047 5.82196 15.5328 5.82196H5.8031C5.73121 5.82196 5.66256 5.78941 5.61175 5.73229C5.56148 5.67455 5.53283 5.59653 5.53283 5.51484V3.05784C5.53283 2.97614 5.56148 2.89813 5.61175 2.84039C5.66256 2.78326 5.73121 2.75071 5.8031 2.75071H15.5328C15.6047 2.75071 15.6734 2.78326 15.7242 2.84039C15.7745 2.89813 15.8031 2.97614 15.8031 3.05784Z" fill="#0CAE35"/>
</g>
<defs>
<clipPath id="clip0_1451_23219">
<rect width="21" height="27" fill="white"/>
</clipPath>
</defs>
</svg>
