<svg width="22" height="27" viewBox="0 0 22 27" fill="none" xmlns="http://www.w3.org/2000/svg">
<path d="M17.6667 1H4.33333C3.44928 1 2.60143 1.35119 1.97631 1.97631C1.35119 2.60143 1 3.44928 1 4.33333V22.6667C1 23.5507 1.35119 24.3986 1.97631 25.0237C2.60143 25.6488 3.44928 26 4.33333 26H17.6667C18.5507 26 19.3986 25.6488 20.0237 25.0237C20.6488 24.3986 21 23.5507 21 22.6667V4.33333C21 3.44928 20.6488 2.60143 20.0237 1.97631C19.3986 1.35119 18.5507 1 17.6667 1ZM19.3333 22.6667C19.3333 23.1087 19.1577 23.5326 18.8452 23.8452C18.5326 24.1577 18.1087 24.3333 17.6667 24.3333H4.33333C3.89131 24.3333 3.46738 24.1577 3.15482 23.8452C2.84226 23.5326 2.66667 23.1087 2.66667 22.6667V4.33333C2.66667 3.89131 2.84226 3.46738 3.15482 3.15482C3.46738 2.84226 3.89131 2.66667 4.33333 2.66667H17.6667C18.1087 2.66667 18.5326 2.84226 18.8452 3.15482C19.1577 3.46738 19.3333 3.89131 19.3333 4.33333V22.6667Z" fill="#0CAE35"/>
<path d="M16.832 4.33325H5.16536C4.94435 4.33325 4.73239 4.42105 4.57611 4.57733C4.41983 4.73361 4.33203 4.94557 4.33203 5.16659V10.9999C4.33203 11.2209 4.41983 11.4329 4.57611 11.5892C4.73239 11.7455 4.94435 11.8333 5.16536 11.8333H16.832C17.053 11.8333 17.265 11.7455 17.4213 11.5892C17.5776 11.4329 17.6654 11.2209 17.6654 10.9999V5.16659C17.6654 4.94557 17.5776 4.73361 17.4213 4.57733C17.265 4.42105 17.053 4.33325 16.832 4.33325ZM15.9987 10.1666H5.9987V5.99992H15.9987V10.1666Z" fill="#0CAE35"/>
<path d="M6.83203 13.5H5.16536C4.94435 13.5 4.73239 13.5878 4.57611 13.7441C4.41983 13.9004 4.33203 14.1123 4.33203 14.3333C4.33203 14.5543 4.41983 14.7663 4.57611 14.9226C4.73239 15.0789 4.94435 15.1667 5.16536 15.1667H6.83203C7.05305 15.1667 7.26501 15.0789 7.42129 14.9226C7.57757 14.7663 7.66536 14.5543 7.66536 14.3333C7.66536 14.1123 7.57757 13.9004 7.42129 13.7441C7.26501 13.5878 7.05305 13.5 6.83203 13.5Z" fill="#0CAE35"/>
<path d="M6.83203 16.8333H5.16536C4.94435 16.8333 4.73239 16.921 4.57611 17.0773C4.41983 17.2336 4.33203 17.4456 4.33203 17.6666C4.33203 17.8876 4.41983 18.0996 4.57611 18.2558C4.73239 18.4121 4.94435 18.4999 5.16536 18.4999H6.83203C7.05305 18.4999 7.26501 18.4121 7.42129 18.2558C7.57757 18.0996 7.66536 17.8876 7.66536 17.6666C7.66536 17.4456 7.57757 17.2336 7.42129 17.0773C7.26501 16.921 7.05305 16.8333 6.83203 16.8333Z" fill="#0CAE35"/>
<path d="M6.83203 20.1667H5.16536C4.94435 20.1667 4.73239 20.2545 4.57611 20.4108C4.41983 20.5671 4.33203 20.7791 4.33203 21.0001C4.33203 21.2211 4.41983 21.4331 4.57611 21.5893C4.73239 21.7456 4.94435 21.8334 5.16536 21.8334H6.83203C7.05305 21.8334 7.26501 21.7456 7.42129 21.5893C7.57757 21.4331 7.66536 21.2211 7.66536 21.0001C7.66536 20.7791 7.57757 20.5671 7.42129 20.4108C7.26501 20.2545 7.05305 20.1667 6.83203 20.1667Z" fill="#0CAE35"/>
<path d="M11.832 13.5H10.1654C9.94435 13.5 9.73239 13.5878 9.57611 13.7441C9.41983 13.9004 9.33203 14.1123 9.33203 14.3333C9.33203 14.5543 9.41983 14.7663 9.57611 14.9226C9.73239 15.0789 9.94435 15.1667 10.1654 15.1667H11.832C12.053 15.1667 12.265 15.0789 12.4213 14.9226C12.5776 14.7663 12.6654 14.5543 12.6654 14.3333C12.6654 14.1123 12.5776 13.9004 12.4213 13.7441C12.265 13.5878 12.053 13.5 11.832 13.5Z" fill="#0CAE35"/>
<path d="M11.832 16.8333H10.1654C9.94435 16.8333 9.73239 16.921 9.57611 17.0773C9.41983 17.2336 9.33203 17.4456 9.33203 17.6666C9.33203 17.8876 9.41983 18.0996 9.57611 18.2558C9.73239 18.4121 9.94435 18.4999 10.1654 18.4999H11.832C12.053 18.4999 12.265 18.4121 12.4213 18.2558C12.5776 18.0996 12.6654 17.8876 12.6654 17.6666C12.6654 17.4456 12.5776 17.2336 12.4213 17.0773C12.265 16.921 12.053 16.8333 11.832 16.8333Z" fill="#0CAE35"/>
<path d="M11.832 20.1667H10.1654C9.94435 20.1667 9.73239 20.2545 9.57611 20.4108C9.41983 20.5671 9.33203 20.7791 9.33203 21.0001C9.33203 21.2211 9.41983 21.4331 9.57611 21.5893C9.73239 21.7456 9.94435 21.8334 10.1654 21.8334H11.832C12.053 21.8334 12.265 21.7456 12.4213 21.5893C12.5776 21.4331 12.6654 21.2211 12.6654 21.0001C12.6654 20.7791 12.5776 20.5671 12.4213 20.4108C12.265 20.2545 12.053 20.1667 11.832 20.1667Z" fill="#0CAE35"/>
<path d="M16.832 13.5H15.1654C14.9444 13.5 14.7324 13.5878 14.5761 13.7441C14.4198 13.9004 14.332 14.1123 14.332 14.3333C14.332 14.5543 14.4198 14.7663 14.5761 14.9226C14.7324 15.0789 14.9444 15.1667 15.1654 15.1667H16.832C17.053 15.1667 17.265 15.0789 17.4213 14.9226C17.5776 14.7663 17.6654 14.5543 17.6654 14.3333C17.6654 14.1123 17.5776 13.9004 17.4213 13.7441C17.265 13.5878 17.053 13.5 16.832 13.5Z" fill="#0CAE35"/>
<path d="M16.832 16.8333H15.1654C14.9444 16.8333 14.7324 16.921 14.5761 17.0773C14.4198 17.2336 14.332 17.4456 14.332 17.6666C14.332 17.8876 14.4198 18.0996 14.5761 18.2558C14.7324 18.4121 14.9444 18.4999 15.1654 18.4999H16.832C17.053 18.4999 17.265 18.4121 17.4213 18.2558C17.5776 18.0996 17.6654 17.8876 17.6654 17.6666C17.6654 17.4456 17.5776 17.2336 17.4213 17.0773C17.265 16.921 17.053 16.8333 16.832 16.8333Z" fill="#0CAE35"/>
<path d="M16.832 20.1667H15.1654C14.9444 20.1667 14.7324 20.2545 14.5761 20.4108C14.4198 20.5671 14.332 20.7791 14.332 21.0001C14.332 21.2211 14.4198 21.4331 14.5761 21.5893C14.7324 21.7456 14.9444 21.8334 15.1654 21.8334H16.832C17.053 21.8334 17.265 21.7456 17.4213 21.5893C17.5776 21.4331 17.6654 21.2211 17.6654 21.0001C17.6654 20.7791 17.5776 20.5671 17.4213 20.4108C17.265 20.2545 17.053 20.1667 16.832 20.1667Z" fill="#0CAE35"/>
</svg>
