<svg width="79" height="20" viewBox="0 0 79 20" fill="none" xmlns="http://www.w3.org/2000/svg">
<path d="M29.5392 4.6687H25.1674C24.8682 4.6687 24.6138 4.88604 24.5672 5.18137L22.799 16.3917C22.7639 16.6129 22.9352 16.8124 23.1596 16.8124H25.2467C25.5458 16.8124 25.8003 16.595 25.8469 16.2991L26.3238 13.2754C26.3698 12.9795 26.6249 12.7621 26.9234 12.7621H28.3074C31.1871 12.7621 32.8492 11.3686 33.2832 8.60706C33.4788 7.3989 33.2915 6.44963 32.7258 5.78482C32.1045 5.0548 31.0024 4.6687 29.5392 4.6687ZM30.0435 8.76304C29.8045 10.3317 28.6059 10.3317 27.4469 10.3317H26.7872L27.2501 7.4021C27.2775 7.22503 27.431 7.09462 27.61 7.09462H27.9123C28.7018 7.09462 29.4465 7.09462 29.8313 7.54465C30.0608 7.81313 30.1311 8.21201 30.0435 8.76304Z" fill="#253B80"/>
<path d="M42.6077 8.71251H40.5142C40.3358 8.71251 40.1818 8.84292 40.1543 9.01999L40.0616 9.60553L39.9152 9.3933C39.462 8.73552 38.4513 8.51562 37.4426 8.51562C35.1292 8.51562 33.1533 10.2678 32.7685 12.7257C32.5684 13.9517 32.8529 15.1241 33.5484 15.9417C34.1863 16.6934 35.0992 17.0067 36.1852 17.0067C38.0493 17.0067 39.0829 15.8081 39.0829 15.8081L38.9896 16.3898C38.9544 16.6122 39.1257 16.8117 39.3488 16.8117H41.2346C41.5344 16.8117 41.7875 16.5944 41.8348 16.2984L42.9663 9.13313C43.0021 8.91259 42.8314 8.71251 42.6077 8.71251ZM39.6896 12.787C39.4876 13.9831 38.5383 14.7859 37.3276 14.7859C36.7196 14.7859 36.2338 14.591 35.9219 14.2215C35.6125 13.8546 35.4949 13.3323 35.5933 12.7506C35.7819 11.5648 36.7471 10.7357 37.9393 10.7357C38.5338 10.7357 39.0171 10.9332 39.3354 11.3059C39.6544 11.6824 39.781 12.2079 39.6896 12.787Z" fill="#253B80"/>
<path d="M53.7566 8.71265H51.6529C51.4522 8.71265 51.2636 8.81237 51.1498 8.97921L48.2483 13.2532L47.0184 9.14605C46.941 8.88908 46.7039 8.71265 46.4354 8.71265H44.3681C44.1169 8.71265 43.9424 8.95812 44.0223 9.19463L46.3395 15.9949L44.161 19.0703C43.9897 19.3125 44.1623 19.6456 44.4582 19.6456H46.5594C46.7589 19.6456 46.9455 19.5484 47.0587 19.3848L54.0558 9.28477C54.2233 9.04313 54.0513 8.71265 53.7566 8.71265Z" fill="#253B80"/>
<path d="M60.7233 4.6687H56.3509C56.0523 4.6687 55.7979 4.88604 55.7512 5.18137L53.9831 16.3917C53.9479 16.6129 54.1193 16.8124 54.3424 16.8124H56.5861C56.7945 16.8124 56.9728 16.6602 57.0054 16.4531L57.5072 13.2754C57.5533 12.9795 57.8083 12.7621 58.1069 12.7621H59.4902C62.3706 12.7621 64.032 11.3686 64.4667 8.60706C64.6629 7.3989 64.4743 6.44963 63.9086 5.78482C63.2879 5.0548 62.1865 4.6687 60.7233 4.6687ZM61.2276 8.76304C60.9892 10.3317 59.7906 10.3317 58.631 10.3317H57.972L58.4354 7.4021C58.4629 7.22503 58.615 7.09462 58.7947 7.09462H59.097C59.8859 7.09462 60.6312 7.09462 61.016 7.54465C61.2455 7.81313 61.3152 8.21201 61.2276 8.76304Z" fill="#179BD7"/>
<path d="M73.789 8.71251H71.6968C71.5172 8.71251 71.3644 8.84292 71.3376 9.01999L71.2449 9.60553L71.0978 9.3933C70.6446 8.73552 69.6346 8.51562 68.6259 8.51562C66.3125 8.51562 64.3372 10.2678 63.9524 12.7257C63.753 13.9517 64.0361 15.1241 64.7316 15.9417C65.3709 16.6934 66.2824 17.0067 67.3685 17.0067C69.2325 17.0067 70.2662 15.8081 70.2662 15.8081L70.1729 16.3898C70.1377 16.6122 70.309 16.8117 70.5334 16.8117H72.4185C72.717 16.8117 72.9715 16.5944 73.0181 16.2984L74.1502 9.13313C74.1847 8.91259 74.0134 8.71251 73.789 8.71251ZM70.8709 12.787C70.6702 13.9831 69.7196 14.7859 68.5089 14.7859C67.9023 14.7859 67.4152 14.591 67.1032 14.2215C66.7938 13.8546 66.6775 13.3323 66.7747 12.7506C66.9645 11.5648 67.9285 10.7357 69.1207 10.7357C69.7152 10.7357 70.1984 10.9332 70.5168 11.3059C70.837 11.6824 70.9636 12.2079 70.8709 12.787Z" fill="#179BD7"/>
<path d="M76.2569 4.97633L74.4626 16.3919C74.4274 16.6131 74.5988 16.8125 74.8219 16.8125H76.6258C76.9256 16.8125 77.18 16.5952 77.226 16.2992L78.9955 5.08947C79.0306 4.8683 78.8593 4.66821 78.6362 4.66821H76.6162C76.4379 4.66885 76.2844 4.79926 76.2569 4.97633Z" fill="#179BD7"/>
<path d="M4.64368 18.9909L4.978 16.8673L4.23328 16.8501H0.677185L3.14849 1.18035C3.15616 1.13305 3.18109 1.08894 3.21753 1.05762C3.25397 1.02629 3.30063 1.00903 3.34921 1.00903H9.34529C11.3359 1.00903 12.7096 1.42326 13.4268 2.24085C13.7631 2.6244 13.9772 3.0252 14.0808 3.46628C14.1895 3.92909 14.1914 4.48203 14.0853 5.15643L14.0776 5.20565V5.63778L14.4138 5.82827C14.697 5.97849 14.922 6.15045 15.0946 6.34733C15.3823 6.67527 15.5683 7.09205 15.6469 7.58618C15.7281 8.09438 15.7013 8.6991 15.5683 9.38373C15.4149 10.1713 15.1669 10.8572 14.8319 11.4184C14.5238 11.9356 14.1313 12.3645 13.6653 12.6969C13.2204 13.0127 12.6917 13.2524 12.094 13.4058C11.5149 13.5567 10.8545 13.6328 10.1303 13.6328H9.66364C9.32995 13.6328 9.00586 13.7529 8.75144 13.9684C8.49638 14.1883 8.32762 14.4887 8.27584 14.8173L8.24068 15.0084L7.65003 18.7512L7.62318 18.8886C7.61615 18.9321 7.604 18.9538 7.5861 18.9685C7.57012 18.9819 7.54711 18.9909 7.52473 18.9909H4.64368Z" fill="#253B80"/>
<path d="M14.7327 5.25562C14.7148 5.37004 14.6943 5.48702 14.6713 5.6072C13.8805 9.66702 11.1753 11.0695 7.72018 11.0695H5.96099C5.53845 11.0695 5.18239 11.3763 5.11655 11.7931L4.21586 17.5054L3.9608 19.1246C3.91797 19.3982 4.12892 19.6449 4.40507 19.6449H7.52521C7.89469 19.6449 8.20856 19.3764 8.26673 19.0121L8.29741 18.8535L8.88487 15.1255L8.92259 14.9209C8.98012 14.5553 9.29463 14.2868 9.66411 14.2868H10.1308C13.1537 14.2868 15.5202 13.0595 16.2119 9.50785C16.5008 8.02417 16.3512 6.78532 15.5867 5.91403C15.3553 5.65131 15.0683 5.43332 14.7327 5.25562Z" fill="#179BD7"/>
<path d="M13.9055 4.92567C13.7847 4.89051 13.66 4.85855 13.5322 4.82978C13.4037 4.80166 13.272 4.77673 13.1365 4.75499C12.6622 4.67828 12.1425 4.64185 11.5857 4.64185H6.886C6.77029 4.64185 6.66034 4.66805 6.5619 4.71536C6.3452 4.81955 6.18411 5.02475 6.14512 5.27597L5.14534 11.6083L5.11658 11.793C5.18242 11.3762 5.53848 11.0694 5.96101 11.0694H7.72021C11.1753 11.0694 13.8806 9.66628 14.6713 5.6071C14.695 5.48692 14.7148 5.36994 14.7327 5.25552C14.5326 5.1494 14.3159 5.05863 14.0826 4.98128C14.025 4.96211 13.9656 4.94357 13.9055 4.92567Z" fill="#222D65"/>
<path d="M6.14559 5.27601C6.18459 5.02479 6.34568 4.81959 6.56238 4.71603C6.66146 4.66873 6.77077 4.64252 6.88647 4.64252H11.5862C12.143 4.64252 12.6627 4.67896 13.137 4.75567C13.2725 4.7774 13.4042 4.80233 13.5327 4.83046C13.6605 4.85922 13.7852 4.89119 13.906 4.92634C13.9661 4.94424 14.0255 4.96278 14.0837 4.98132C14.317 5.05867 14.5337 5.15008 14.7338 5.25555C14.969 3.75525 14.7319 2.73375 13.9207 1.80877C13.0264 0.790455 11.4123 0.354492 9.34691 0.354492H3.35083C2.92893 0.354492 2.56904 0.661328 2.50384 1.07875L0.00632423 16.9096C-0.0428973 17.2228 0.198736 17.5053 0.514521 17.5053H4.21637L5.14582 11.6083L6.14559 5.27601Z" fill="#253B80"/>
</svg>
