<svg width="100" height="80" viewBox="0 0 100 80" fill="none" xmlns="http://www.w3.org/2000/svg">
<path d="M42.0856 52.1781L28.6465 23.853H24.6595L21.1416 31.2919C26.6491 39.1486 34.4131 46.4176 42.0856 52.1781Z" fill="white"/>
<path d="M27.0517 55.2052H19.5354L17.4112 59.6499H7.75001C8.53617 57.9309 7.43831 60.2668 15.1925 43.8702C-9.26127 16.7442 -3.48757 -5.36454 27.4239 1.14928C-0.653897 -4.44272 -8.2304 15.8133 15.7587 42.6733C40.9243 70.8564 85.3546 89.0816 97.3134 73.2997C99.3913 70.5611 100.096 67.2569 99.8766 63.8287C102.539 88.8112 61.5897 84.0103 27.0517 55.2052Z" fill="white"/>
<path d="M95.6395 72.0931C84.8686 86.3109 41.3717 68.808 16.7174 40.6441C5.09621 27.3753 0.258626 14.3476 5.63473 7.24994C13.4585 -3.07529 39.9485 3.06664 64.8043 20.9741C65.5416 21.5037 66.2674 22.0402 66.9862 22.5811C44.6681 6.62787 21.2152 0.898414 14.4755 9.79465C10.5972 14.9133 13.0887 23.7645 20.1314 33.427C26.3668 41.9834 35.1213 49.838 43.9194 56.0429C71.404 75.396 98.4278 78.2111 97.5048 61.592C98.2653 65.7551 97.7082 69.3635 95.6395 72.0931Z" fill="white"/>
<path d="M53.2827 59.6499C57.5971 59.6499 61.9389 59.6499 66.2143 59.6499C66.2143 56.5816 66.2143 54.4849 66.2143 51.4166H52.9474C52.9474 36.1774 52.9474 42.3651 52.9474 23.853C49.7614 23.853 46.6797 23.853 43.5459 23.853V53.2571C44.0909 53.6543 44.6238 54.0367 45.1386 54.3999C47.8271 56.2929 50.5555 58.0476 53.2827 59.6499Z" fill="white"/>
<path d="M88.1971 48.9931C88.1971 46.5151 85.1893 45.9588 81.5591 45.7565C73.6765 45.2003 68.4906 42.5705 68.3869 34.8837C68.0757 19.611 96.2872 19.611 96.0797 34.8837C92.8126 34.8837 90.4271 34.8837 87.2637 34.8837C87.2637 30.1805 77.5141 30.5851 77.2029 34.7825C76.9955 37.4628 79.6922 38.0191 82.9593 38.3731C90.1678 39.1317 97.2206 40.1937 97.2206 49.0437C97.2206 63.9118 67.6608 64.1646 67.8683 48.5886C70.9798 48.5886 73.6765 48.5886 76.8399 48.5886C76.84 53.0894 88.1971 53.14 88.1971 48.9931Z" fill="white"/>
</svg>
