<svg width="100" height="80" viewBox="0 0 100 80" fill="none" xmlns="http://www.w3.org/2000/svg">
<g id="logo">
<g id="Group">
<path id="Vector" d="M42.0856 52.1781L28.6465 23.853H24.6595L21.1416 31.2919C26.6491 39.1486 34.4131 46.4176 42.0856 52.1781Z" fill="#1E1E1E"/>
<path id="Vector_2" d="M27.0517 55.2052H19.5354L17.4112 59.6499H7.75001C8.53617 57.9309 7.43831 60.2668 15.1925 43.8702C-9.26127 16.7442 -3.48757 -5.36454 27.4239 1.14928C-0.653897 -4.44272 -8.2304 15.8133 15.7587 42.6733C40.9243 70.8564 85.3546 89.0816 97.3134 73.2997C99.3913 70.5611 100.096 67.2569 99.8766 63.8287C102.539 88.8112 61.5897 84.0103 27.0517 55.2052Z" fill="#1E1E1E"/>
<g id="Group_2">
<path id="Vector_3" d="M95.6395 72.0933C84.8686 86.3112 41.3717 68.8082 16.7174 40.6443C5.09621 27.3755 0.258626 14.3478 5.63473 7.25018C13.4585 -3.07505 39.9485 3.06689 64.8043 20.9743C65.5416 21.504 66.2674 22.0404 66.9862 22.5814C44.6681 6.62811 21.2152 0.898658 14.4755 9.79489C10.5972 14.9136 13.0887 23.7647 20.1314 33.4272C26.3668 41.9836 35.1213 49.8382 43.9194 56.0431C71.404 75.3963 98.4278 78.2114 97.5048 61.5922C98.2653 65.7553 97.7082 69.3638 95.6395 72.0933Z" fill="#1E1E1E"/>
</g>
<path id="Vector_4" d="M53.2827 59.6499C57.5971 59.6499 61.9389 59.6499 66.2143 59.6499C66.2143 56.5816 66.2143 54.4849 66.2143 51.4166H52.9474C52.9474 36.1774 52.9474 42.3651 52.9474 23.853C49.7614 23.853 46.6797 23.853 43.5459 23.853V53.2571C44.0909 53.6543 44.6238 54.0367 45.1386 54.3999C47.8271 56.2929 50.5555 58.0476 53.2827 59.6499Z" fill="#1E1E1E"/>
</g>
<g id="Group_3">
<path id="Vector_5" d="M88.1971 48.9934C88.1971 46.5154 85.1893 45.9591 81.5591 45.7568C73.6765 45.2005 68.4906 42.5708 68.3869 34.8839C68.0757 19.6113 96.2872 19.6113 96.0797 34.8839C92.8126 34.8839 90.4271 34.8839 87.2637 34.8839C87.2637 30.1808 77.5141 30.5853 77.2029 34.7828C76.9955 37.4631 79.6922 38.0193 82.9593 38.3734C90.1678 39.1319 97.2206 40.1939 97.2206 49.044C97.2206 63.912 67.6608 64.1649 67.8683 48.5888C70.9798 48.5888 73.6765 48.5888 76.8399 48.5888C76.84 53.0897 88.1971 53.1402 88.1971 48.9934Z" fill="#1E1E1E"/>
</g>
</g>
</svg>
