<svg width="32" height="24" viewBox="0 0 32 24" fill="none" xmlns="http://www.w3.org/2000/svg">
<g id="Icon">
<g id="Group">
<path id="Vector" fill-rule="evenodd" clip-rule="evenodd" d="M24.6514 9.49113C20.8709 9.49113 17.8027 12.5594 17.8027 16.34C17.8027 20.1205 20.8709 23.1888 24.6514 23.1888C28.4318 23.1888 31.5 20.1205 31.5 16.34C31.5 12.5594 28.4318 9.49113 24.6514 9.49113ZM24.6514 11.6539C27.238 11.6539 29.3373 13.7533 29.3373 16.34C29.3373 18.9267 27.238 21.026 24.6514 21.026C22.0648 21.026 19.9655 18.9267 19.9655 16.34C19.9655 13.7533 22.0648 11.6539 24.6514 11.6539Z" fill="#E22C2C"/>
<path id="Vector_2" fill-rule="evenodd" clip-rule="evenodd" d="M21.7674 17.4214H27.5347C28.1316 17.4214 28.6161 16.9369 28.6161 16.34C28.6161 15.743 28.1316 15.2586 27.5347 15.2586H21.7674C21.1705 15.2586 20.686 15.743 20.686 16.34C20.686 16.9369 21.1705 17.4214 21.7674 17.4214Z" fill="#E22C2C"/>
<path id="Vector_3" fill-rule="evenodd" clip-rule="evenodd" d="M28.6155 11.3454C28.6155 8.59862 28.6155 6.86838 28.6155 4.80508C28.6155 3.75397 28.1974 2.74466 27.4549 2.00066C26.7109 1.25811 25.7016 0.839966 24.6505 0.839966C19.6575 0.839966 9.45804 0.839966 4.46501 0.839966C3.41392 0.839966 2.40465 1.25811 1.66067 2.00066C0.918128 2.74466 0.5 3.75397 0.5 4.80508V17.7818C0.5 18.8329 0.918128 19.8422 1.66067 20.5862C2.40465 21.3288 3.41392 21.7469 4.46501 21.7469H20.8369C21.4338 21.7469 21.9183 21.2625 21.9183 20.6655C21.9183 20.0686 21.4338 19.5842 20.8369 19.5842C15.469 19.5842 8.64485 19.5842 4.46501 19.5842C3.98632 19.5842 3.52927 19.3938 3.19044 19.0564C2.85305 18.7176 2.66273 18.2605 2.66273 17.7818C2.66273 14.2579 2.66273 8.32899 2.66273 4.80508C2.66273 4.32638 2.85305 3.86931 3.19044 3.53048C3.52927 3.19308 3.98632 3.00276 4.46501 3.00276H24.6505C25.1292 3.00276 25.5863 3.19308 25.9251 3.53048C26.2625 3.86931 26.4528 4.32638 26.4528 4.80508V11.3454C26.4528 11.9423 26.9372 12.4268 27.5342 12.4268C28.1311 12.4268 28.6155 11.9423 28.6155 11.3454Z" fill="#E22C2C"/>
<path id="Vector_4" fill-rule="evenodd" clip-rule="evenodd" d="M27.5342 6.60741H1.58137C0.984452 6.60741 0.5 7.09188 0.5 7.68881C0.5 8.28574 0.984452 8.7702 1.58137 8.7702H27.5342C28.1311 8.7702 28.6155 8.28574 28.6155 7.68881C28.6155 7.09188 28.1311 6.60741 27.5342 6.60741Z" fill="#E22C2C"/>
<path id="Vector_5" fill-rule="evenodd" clip-rule="evenodd" d="M10.2335 15.2586H5.90656C5.30965 15.2586 4.8252 15.743 4.8252 16.34C4.8252 16.9369 5.30965 17.4214 5.90656 17.4214H10.2335C10.8304 17.4214 11.3148 16.9369 11.3148 16.34C11.3148 15.743 10.8304 15.2586 10.2335 15.2586Z" fill="#E22C2C"/>
</g>
</g>
</svg>
