<svg width="16" height="18" viewBox="0 0 16 18" fill="none" xmlns="http://www.w3.org/2000/svg">
<g id="_01_align_center">
<path id="Vector" d="M7.9684 18.0059L7.44559 17.5578C6.72486 16.9543 0.431641 11.5192 0.431641 7.5436C0.431641 3.38117 3.80597 0.00683594 7.9684 0.00683594C12.1308 0.00683594 15.5052 3.38117 15.5052 7.5436C15.5052 11.5192 9.21195 16.9543 8.4942 17.5607L7.9684 18.0059ZM7.9684 1.6365C4.70755 1.6402 2.06504 4.28272 2.06134 7.54356C2.06134 10.0411 5.93317 14.0309 7.9684 15.8571C10.0037 14.0302 13.8755 10.0381 13.8755 7.54356C13.8718 4.28272 11.2293 1.64023 7.9684 1.6365Z" fill="#0CAE35"/>
<path id="Vector_2" d="M7.96895 10.5308C6.319 10.5308 4.98145 9.19325 4.98145 7.54329C4.98145 5.89334 6.319 4.55579 7.96895 4.55579C9.61891 4.55579 10.9565 5.89334 10.9565 7.54329C10.9565 9.19325 9.61894 10.5308 7.96895 10.5308ZM7.96895 6.04951C7.14398 6.04951 6.4752 6.71828 6.4752 7.54326C6.4752 8.36824 7.14398 9.03701 7.96895 9.03701C8.79393 9.03701 9.46271 8.36824 9.46271 7.54326C9.46271 6.71828 8.79396 6.04951 7.96895 6.04951Z" fill="#0CAE35"/>
</g>
</svg>
