<svg width="32" height="24" viewBox="0 0 32 24" fill="none" xmlns="http://www.w3.org/2000/svg">
<g id="Icon">
<g id="Group">
<path id="Vector" fill-rule="evenodd" clip-rule="evenodd" d="M24.6505 9.47977C20.87 9.47977 17.8018 12.5441 17.8018 16.3199C17.8018 20.0956 20.87 23.16 24.6505 23.16C28.4311 23.16 31.4993 20.0956 31.4993 16.3199C31.4993 12.5441 28.4311 9.47977 24.6505 9.47977ZM24.6505 11.6398C27.2372 11.6398 29.3366 13.7365 29.3366 16.3199C29.3366 18.9033 27.2372 21 24.6505 21C22.0639 21 19.9645 18.9033 19.9645 16.3199C19.9645 13.7365 22.0639 11.6398 24.6505 11.6398Z" fill="#0CAE35"/>
<path id="Vector_2" fill-rule="evenodd" clip-rule="evenodd" d="M21.8451 17.8031L23.2869 19.2431C23.5061 19.462 23.806 19.5757 24.1145 19.5585C24.4216 19.5397 24.7086 19.3928 24.8989 19.1509L27.66 15.6747C28.0306 15.2067 27.9513 14.527 27.4841 14.1569C27.017 13.7868 26.335 13.8646 25.9644 14.3326L23.9588 16.8598L23.3749 16.2766C22.9524 15.8547 22.2675 15.8547 21.8451 16.2766C21.424 16.6971 21.424 17.3826 21.8451 17.8031Z" fill="#0CAE35"/>
<path id="Vector_3" fill-rule="evenodd" clip-rule="evenodd" d="M28.6161 11.332C28.6161 8.58879 28.6161 6.86075 28.6161 4.80007C28.6161 3.75029 28.1979 2.74228 27.4554 1.99922C26.7114 1.25761 25.7021 0.84 24.651 0.84C19.6579 0.84 9.45822 0.84 4.46509 0.84C3.41398 0.84 2.40468 1.25761 1.66069 1.99922C0.918137 2.74228 0.5 3.75029 0.5 4.80007V17.7603C0.5 18.8101 0.918137 19.8181 1.66069 20.5612C2.40468 21.3028 3.41398 21.7204 4.46509 21.7204H20.8373C21.4342 21.7204 21.9187 21.2365 21.9187 20.6404C21.9187 20.0442 21.4342 19.5604 20.8373 19.5604C15.4693 19.5604 8.64501 19.5604 4.46509 19.5604C3.98639 19.5604 3.52933 19.3703 3.19049 19.0333C2.8531 18.6949 2.66278 18.2384 2.66278 17.7603C2.66278 14.2409 2.66278 8.3195 2.66278 4.80007C2.66278 4.32199 2.8531 3.8655 3.19049 3.52709C3.52933 3.19012 3.98639 3.00004 4.46509 3.00004H24.651C25.1297 3.00004 25.5868 3.19012 25.9256 3.52709C26.263 3.8655 26.4533 4.32199 26.4533 4.80007V11.332C26.4533 11.9282 26.9378 12.4121 27.5347 12.4121C28.1316 12.4121 28.6161 11.9282 28.6161 11.332Z" fill="#0CAE35"/>
<path id="Vector_4" fill-rule="evenodd" clip-rule="evenodd" d="M27.5347 6.60054H1.58139C0.984462 6.60054 0.5 7.08439 0.5 7.68056C0.5 8.27673 0.984462 8.76058 1.58139 8.76058H27.5347C28.1316 8.76058 28.6161 8.27673 28.6161 7.68056C28.6161 7.08439 28.1316 6.60054 27.5347 6.60054Z" fill="#0CAE35"/>
<path id="Vector_5" fill-rule="evenodd" clip-rule="evenodd" d="M10.2341 15.2403H5.90707C5.31015 15.2403 4.82568 15.7241 4.82568 16.3203C4.82568 16.9165 5.31015 17.4003 5.90707 17.4003H10.2341C10.831 17.4003 11.3155 16.9165 11.3155 16.3203C11.3155 15.7241 10.831 15.2403 10.2341 15.2403Z" fill="#0CAE35"/>
</g>
</g>
</svg>
