<svg width="19" height="18" viewBox="0 0 19 18" fill="none" xmlns="http://www.w3.org/2000/svg">
<g clip-path="url(#clip0_894_33543)">
<path d="M3.5 8.25H8.75V3H3.5V8.25ZM5 4.5H7.25V6.75H5V4.5ZM15.5 3H10.25V8.25H15.5V3ZM14 6.75H11.75V4.5H14V6.75ZM3.5 15H8.75V9.75H3.5V15ZM5 11.25H7.25V13.5H5V11.25ZM2.75 16.5H5.75V18H2.75C1.5095 18 0.5 16.9905 0.5 15.75V12.75H2V15.75C2 16.1632 2.33675 16.5 2.75 16.5ZM17 12.75H18.5V15.75C18.5 16.9905 17.4905 18 16.25 18H13.25V16.5H16.25C16.6632 16.5 17 16.1632 17 15.75V12.75ZM18.5 2.25V5.25H17V2.25C17 1.83675 16.6632 1.5 16.25 1.5H13.25V0H16.25C17.4905 0 18.5 1.0095 18.5 2.25ZM2 5.25H0.5V2.25C0.5 1.0095 1.5095 0 2.75 0H5.75V1.5H2.75C2.33675 1.5 2 1.83675 2 2.25V5.25ZM10.25 12.75H12.5V15H10.25V12.75ZM13.25 12V9.75H15.5V12H13.25ZM10.25 9.75H12.5V12H10.25V9.75Z" fill="#5390F3"/>
</g>
<defs>
<clipPath id="clip0_894_33543">
<rect width="18" height="18" fill="white" transform="translate(0.5)"/>
</clipPath>
</defs>
</svg>
