<svg width="28" height="28" viewBox="0 0 28 28" fill="none" xmlns="http://www.w3.org/2000/svg">
<rect opacity="0.1" width="28" height="28" rx="4" fill="#1E1E1E"/>
<mask id="mask0_1451_30365" style="mask-type:alpha" maskUnits="userSpaceOnUse" x="5" y="5" width="18" height="18">
<rect x="5" y="5" width="18" height="18" fill="#D9D9D9"/>
</mask>
<g mask="url(#mask0_1451_30365)">
<path d="M14 20.75C13.0625 20.75 12.1844 20.5719 11.3656 20.2156C10.5469 19.8594 9.83438 19.3781 9.22813 18.7719C8.62188 18.1656 8.14062 17.4531 7.78438 16.6344C7.42813 15.8156 7.25 14.9375 7.25 14C7.25 13.0625 7.42813 12.1844 7.78438 11.3656C8.14062 10.5469 8.62188 9.83438 9.22813 9.22813C9.83438 8.62188 10.5469 8.14062 11.3656 7.78438C12.1844 7.42813 13.0625 7.25 14 7.25C15.025 7.25 15.9969 7.46875 16.9156 7.90625C17.8344 8.34375 18.6125 8.9625 19.25 9.7625V8H20.75V12.5H16.25V11H18.3125C17.8 10.3 17.1688 9.75 16.4188 9.35C15.6688 8.95 14.8625 8.75 14 8.75C12.5375 8.75 11.2969 9.25937 10.2781 10.2781C9.25937 11.2969 8.75 12.5375 8.75 14C8.75 15.4625 9.25937 16.7031 10.2781 17.7219C11.2969 18.7406 12.5375 19.25 14 19.25C15.3125 19.25 16.4594 18.825 17.4406 17.975C18.4219 17.125 19 16.05 19.175 14.75H20.7125C20.525 16.4625 19.7906 17.8906 18.5094 19.0344C17.2281 20.1781 15.725 20.75 14 20.75Z" fill="#1C1B1F"/>
</g>
</svg>
