<svg width="40" height="40" viewBox="0 0 40 40" fill="none" xmlns="http://www.w3.org/2000/svg">
<path d="M0 5V35.625H40V5H0ZM37.6562 7.34375V5H2.34375V7.34375H37.6562ZM2.34375 33.2812V7.34375H37.6562V33.2812H2.34375Z" fill="#1E1E1E"/>
<path d="M8.20312 18.9141V26.25H10.5469V18.9141C12.5663 18.3924 14.0625 16.5552 14.0625 14.375C14.0625 11.7903 11.9597 9.6875 9.375 9.6875C6.79031 9.6875 4.6875 11.7903 4.6875 14.375C4.6875 16.5552 6.18367 18.3925 8.20312 18.9141ZM9.375 12.0312C10.6673 12.0312 11.7188 13.0827 11.7188 14.375C11.7188 15.6673 10.6673 16.7188 9.375 16.7188C8.08266 16.7188 7.03125 15.6673 7.03125 14.375C7.03125 13.0827 8.08266 12.0312 9.375 12.0312Z" fill="#0CAE35"/>
<path d="M4.6875 28.5938H25.9375V30.9375H4.6875V28.5938Z" fill="#1E1E1E"/>
<path d="M28.2812 28.5938H30.625V30.9375H28.2812V28.5938Z" fill="#1E1E1E"/>
<path d="M32.9688 28.5938H35.3125V30.9375H32.9688V28.5938Z" fill="#1E1E1E"/>
<path d="M16.4062 23.9062H35.3125V26.25H16.4062V23.9062Z" fill="#1E1E1E"/>
<path d="M16.4062 19.2188H23.5938V21.5625H16.4062V19.2188Z" fill="#1E1E1E"/>
<path d="M16.4062 14.5312H23.5938V16.875H16.4062V14.5312Z" fill="#1E1E1E"/>
<path d="M16.4062 9.84375H23.5938V12.1875H16.4062V9.84375Z" fill="#1E1E1E"/>
<path d="M33.4351 15.4694C33.8777 14.8813 34.1406 14.1505 34.1406 13.3594C34.1406 11.4209 32.5635 9.84375 30.625 9.84375C28.6865 9.84375 27.1094 11.4209 27.1094 13.3594C27.1094 14.1505 27.3723 14.8813 27.8149 15.4694C26.6758 16.3254 25.9375 17.6874 25.9375 19.2188V21.5625H35.3125V19.2188C35.3125 17.6874 34.5742 16.3254 33.4351 15.4694ZM29.4531 13.3594C29.4531 12.7132 29.9788 12.1875 30.625 12.1875C31.2712 12.1875 31.7969 12.7132 31.7969 13.3594C31.7969 14.0055 31.2712 14.5312 30.625 14.5312C29.9788 14.5312 29.4531 14.0055 29.4531 13.3594ZM28.2812 19.2188C28.2812 17.9264 29.3327 16.875 30.625 16.875C31.9173 16.875 32.9688 17.9264 32.9688 19.2188H28.2812Z" fill="#0CAE35"/>
</svg>
