<svg width="40" height="40" viewBox="0 0 40 40" fill="none" xmlns="http://www.w3.org/2000/svg">
<path d="M16.4839 26.3347H18.8278V28.6784H16.4839V26.3347Z" fill="#0CAE35"/>
<path d="M21.1719 26.3347H23.5158V28.6784H21.1719V26.3347Z" fill="#0CAE35"/>
<path d="M25.8599 26.3347H28.2038V28.6784H25.8599V26.3347Z" fill="#0CAE35"/>
<path d="M11.7964 26.3347H14.1403V28.6784H11.7964V26.3347Z" fill="#0CAE35"/>
<path d="M0 2.18042V37.8197H40V2.18042H0ZM37.6562 6.86817H10.3125V4.52418H37.6562V6.86817ZM7.9687 4.52418V6.86817H2.34376V4.52418H7.9687ZM2.34376 35.4759V9.21193H37.6562V35.4759H2.34376Z" fill="#1E1E1E"/>
<path d="M25.1226 21.2271C25.1226 19.6557 24.2803 18.2773 23.0234 17.5198C23.335 16.9952 23.5141 16.383 23.5141 15.7298V14.9801C23.5141 13.0415 21.9369 11.4643 19.9983 11.4643C18.0597 11.4643 16.4825 13.0415 16.4825 14.9801V15.7298C16.4825 16.383 16.6616 16.9952 16.9732 17.5198C15.7163 18.2774 14.874 19.6557 14.874 21.2271V21.7895H7.10693V33.1963H32.8898V21.7896H25.1226V21.2271ZM18.8263 14.9801C18.8263 14.3338 19.3521 13.8081 19.9983 13.8081C20.6446 13.8081 21.1704 14.3338 21.1704 14.9801V15.7298C21.1704 16.376 20.6446 16.9017 19.9983 16.9017C19.3521 16.9017 18.8263 16.376 18.8263 15.7298V14.9801ZM17.2178 21.2271C17.2178 20.1345 18.1067 19.2455 19.1994 19.2455H20.7971C21.8898 19.2455 22.7788 20.1345 22.7788 21.2271V21.7895H17.2177L17.2178 21.2271ZM30.5459 30.8527H9.45069V24.1333H30.546L30.5459 30.8527Z" fill="#1E1E1E"/>
<mask id="mask0_894_30889" style="mask-type:alpha" maskUnits="userSpaceOnUse" x="7" y="11" width="26" height="23">
<path d="M25.1246 21.2407C25.1246 19.6693 24.2822 18.2908 23.0254 17.5333C23.337 17.0087 23.5161 16.3965 23.5161 15.7433V14.9936C23.5161 13.055 21.9389 11.4778 20.0003 11.4778C18.0617 11.4778 16.4845 13.055 16.4845 14.9936V15.7433C16.4845 16.3965 16.6635 17.0087 16.9752 17.5333C15.7183 18.2909 14.8759 19.6693 14.8759 21.2407V21.803H7.10889V33.2099H32.8917V21.8031H25.1246V21.2407ZM18.8282 14.9936C18.8282 14.3474 19.354 13.8216 20.0003 13.8216C20.6465 13.8216 21.1723 14.3474 21.1723 14.9936V15.7433C21.1723 16.3896 20.6465 16.9153 20.0003 16.9153C19.354 16.9153 18.8282 16.3896 18.8282 15.7433V14.9936ZM17.2197 21.2407C17.2197 20.148 18.1087 19.259 19.2014 19.259H20.7991C21.8918 19.259 22.7807 20.148 22.7807 21.2407V21.803H17.2196L17.2197 21.2407ZM30.5479 30.8662H9.45265V24.1469H30.548L30.5479 30.8662Z" fill="#1E1E1E"/>
</mask>
<g mask="url(#mask0_894_30889)">
<rect x="11.4287" y="10.7143" width="16.4286" height="11.0857" fill="#0CAE35"/>
</g>
</svg>
