<svg width="40" height="33" viewBox="0 0 40 33" fill="none" xmlns="http://www.w3.org/2000/svg">
<path d="M0 0V32.8571H40C40 31.9364 40 0.917105 40 0H0ZM37.6562 30.5102H2.34375V11.7347H20.7243L23.068 7.04082H37.6562V30.5102ZM21.6195 4.69388L19.2757 9.38776H2.34375V2.34694H37.6562V4.69388H21.6195Z" fill="#1E1E1E"/>
<path d="M4.76562 4.69391H7.10938V7.04085H4.76562V4.69391Z" fill="#1E1E1E"/>
<path d="M9.45312 4.69391H11.7969V7.04085H9.45312V4.69391Z" fill="#1E1E1E"/>
<path d="M14.1406 4.69391H16.4844V7.04085H14.1406V4.69391Z" fill="#1E1E1E"/>
<path d="M16.4844 17.6021C16.4844 15.6609 14.9073 14.0817 12.9688 14.0817C11.0302 14.0817 9.45312 15.6609 9.45312 17.6021C9.45312 19.5432 11.0302 21.1225 12.9688 21.1225C14.9073 21.1225 16.4844 19.5432 16.4844 17.6021ZM12.9688 18.7755C12.3226 18.7755 11.7969 18.2491 11.7969 17.6021C11.7969 16.955 12.3226 16.4286 12.9688 16.4286C13.6149 16.4286 14.1406 16.955 14.1406 17.6021C14.1406 18.2491 13.6149 18.7755 12.9688 18.7755Z" fill="#0CAE35"/>
<path d="M12.9688 21.1224C9.73789 21.1224 7.10938 23.7545 7.10938 26.9898V28.1633H18.8281V26.9898C18.8281 23.7545 16.1996 21.1224 12.9688 21.1224ZM9.65391 25.8163C10.1376 24.4503 11.4409 23.4694 12.9688 23.4694C14.4966 23.4694 15.7999 24.4503 16.2836 25.8163H9.65391Z" fill="#0CAE35"/>
<path d="M21.1719 25.8163H32.8906V28.1633H21.1719V25.8163Z" fill="#1E1E1E"/>
<path d="M21.1719 21.1224H32.8906V23.4694H21.1719V21.1224Z" fill="#1E1E1E"/>
<path d="M21.1719 16.4286H32.8906V18.7755H21.1719V16.4286Z" fill="#1E1E1E"/>
</svg>
