<svg width="25" height="26" viewBox="0 0 25 26" fill="none" xmlns="http://www.w3.org/2000/svg">
<g id="fi_876828" clip-path="url(#clip0_894_29895)">
<g id="Group">
<g id="Group_2">
<path id="Vector" d="M23.6675 10.6271L3.78463 1.00585C2.47493 0.371078 0.898682 0.918198 0.263858 2.22789C-0.0598337 2.89571 -0.0869066 3.66903 0.189278 4.3579L3.29536 12.1204H25C24.7715 11.4656 24.2922 10.9284 23.6675 10.6271Z" fill="#0CAE35"/>
</g>
</g>
<g id="Group_3">
<g id="Group_4">
<path id="Vector_2" d="M3.29564 13.8773L0.189563 21.6415C-0.349425 22.9971 0.312524 24.5329 1.66807 25.072C1.97499 25.194 2.30213 25.2574 2.63241 25.2589C3.0315 25.2589 3.42545 25.1688 3.78486 24.9953L23.6677 15.3705C24.2924 15.0692 24.7718 14.5321 25.0003 13.8773H3.29564Z" fill="#0CAE35"/>
</g>
</g>
</g>
<defs>
<clipPath id="clip0_894_29895">
<rect width="25" height="25" fill="white" transform="translate(0 0.500122)"/>
</clipPath>
</defs>
</svg>
