<svg width="20" height="20" viewBox="0 0 20 20" fill="none" xmlns="http://www.w3.org/2000/svg">
<path fill-rule="evenodd" clip-rule="evenodd" d="M4.375 20L10.9696 13.4054C11.6476 13.629 12.3722 13.75 13.125 13.75C16.922 13.75 20 10.672 20 6.875C20 6.16451 19.8923 5.4792 19.6921 4.83451C19.4925 4.19143 19.2011 3.58878 18.8331 3.04189L15 6.875H13.125V5L16.9581 1.16689C16.4112 0.798914 15.8086 0.50746 15.1655 0.307865C14.5208 0.107774 13.8355 0 13.125 0C9.32804 0 6.25 3.07804 6.25 6.875C6.25 7.62785 6.37101 8.35242 6.59464 9.03036L0 15.625L4.375 20ZM11.557 11.6247L10.4604 11.263L4.375 17.3484L2.65165 15.625L8.73701 9.53964L8.37526 8.44299C8.21336 7.95221 8.125 7.4258 8.125 6.875C8.125 4.11357 10.3636 1.875 13.125 1.875C13.2779 1.875 13.429 1.88181 13.5783 1.89516L11.25 4.22335V8.75H15.7766L18.1049 6.42181C18.1181 6.57098 18.125 6.72214 18.125 6.875C18.125 9.63643 15.8864 11.875 13.125 11.875C12.5743 11.875 12.0478 11.7866 11.557 11.6247Z" fill="#0CAE35"/>
</svg>
