<svg width="16" height="16" viewBox="0 0 16 16" fill="none" xmlns="http://www.w3.org/2000/svg">
<g id="fi-rs-shield-exclamation" clip-path="url(#clip0_1451_22406)">
<path id="Vector" d="M8.66683 9.99971H7.3335V3.33304H8.66683V9.99971ZM8.52883 15.805C9.96883 15.2264 14.6668 12.9517 14.6668 7.99371V3.64438C14.6669 3.22466 14.5347 2.8156 14.2888 2.47542C14.043 2.13525 13.6961 1.88129 13.2975 1.74971L8.00016 -0.00695801L2.70283 1.74971C2.30427 1.88129 1.95737 2.13525 1.71152 2.47542C1.46566 2.8156 1.33338 3.22466 1.3335 3.64438V7.99371C1.3335 12.369 6.0035 15.0444 7.4355 15.761L7.96883 16.0277L8.52883 15.805ZM12.8775 3.01504C13.0098 3.05909 13.1249 3.1435 13.2067 3.25639C13.2885 3.36928 13.3328 3.50497 13.3335 3.64438V7.99371C13.3335 12.1157 9.2755 14.0684 8.0315 14.5684C6.77283 13.9384 2.66683 11.6044 2.66683 7.99371V3.64438C2.66749 3.50497 2.71184 3.36928 2.79364 3.25639C2.87544 3.1435 2.99056 3.05909 3.12283 3.01504L8.00016 1.39971L12.8775 3.01504ZM8.66683 11.333H7.3335V12.6664H8.66683V11.333Z" fill="#5390F3"/>
</g>
<defs>
<clipPath id="clip0_1451_22406">
<rect width="16" height="16" fill="white"/>
</clipPath>
</defs>
</svg>
