<svg width="16" height="12" viewBox="0 0 16 12" fill="none" xmlns="http://www.w3.org/2000/svg">
<path d="M15.8807 5.45396C15.2953 4.17392 12.9999 -0.000183105 7.99981 -0.000183105C2.99969 -0.000183105 0.704294 4.17392 0.118945 5.45396C0.0403689 5.6255 -0.000305176 5.81196 -0.000305176 6.00064C-0.000305176 6.18932 0.0403689 6.37578 0.118945 6.54732C0.704294 7.82602 2.99969 12.0001 7.99981 12.0001C12.9999 12.0001 15.2953 7.82602 15.8807 6.54599C15.9591 6.37464 15.9997 6.18841 15.9997 5.99997C15.9997 5.81153 15.9591 5.6253 15.8807 5.45396ZM7.99981 10.6668C3.79504 10.6668 1.83299 7.08933 1.33298 6.0073C1.83299 4.91061 3.79504 1.33318 7.99981 1.33318C12.1946 1.33318 14.1573 4.89528 14.6667 5.99997C14.1573 7.10467 12.1946 10.6668 7.99981 10.6668Z" fill="#1E1E1E"/>
<path d="M7.9998 2.66681C7.34051 2.66681 6.69603 2.86231 6.14785 3.22859C5.59968 3.59487 5.17242 4.11548 4.92012 4.72458C4.66783 5.33369 4.60181 6.00393 4.73043 6.65055C4.85905 7.29717 5.17653 7.89112 5.64272 8.35731C6.10891 8.8235 6.70286 9.14098 7.34948 9.2696C7.9961 9.39822 8.66634 9.3322 9.27545 9.07991C9.88455 8.82761 10.4052 8.40035 10.7714 7.85218C11.1377 7.304 11.3332 6.65952 11.3332 6.00023C11.3322 5.11648 10.9806 4.26922 10.3557 3.64431C9.73081 3.01941 8.88355 2.66787 7.9998 2.66681ZM7.9998 8.00028C7.60423 8.00028 7.21754 7.88298 6.88863 7.66321C6.55973 7.44344 6.30337 7.13108 6.152 6.76561C6.00062 6.40015 5.96101 5.99801 6.03818 5.61004C6.11535 5.22207 6.30584 4.86569 6.58555 4.58598C6.86526 4.30627 7.22164 4.11578 7.60961 4.03861C7.99758 3.96143 8.39973 4.00104 8.76519 4.15242C9.13065 4.3038 9.44302 4.56015 9.66278 4.88906C9.88255 5.21797 9.99985 5.60466 9.99985 6.00023C9.99985 6.53067 9.78913 7.0394 9.41405 7.41448C9.03897 7.78956 8.53025 8.00028 7.9998 8.00028Z" fill="#1E1E1E"/>
</svg>
