<svg width="20" height="20" viewBox="0 0 20 20" fill="none" xmlns="http://www.w3.org/2000/svg">
<g id="fi_4110254" clip-path="url(#clip0_894_31648)">
<g id="Group">
<path id="Vector" d="M20 16.4062V0H0V16.4062H7.65625V18.8281H5.3125V20H14.6875V18.8281H12.3438V16.4062H20ZM1.17188 15.2344V1.17188H18.8281V15.2344C18.2777 15.2344 1.62473 15.2344 1.17188 15.2344ZM11.1719 18.8281H8.82812V16.4062H11.1719V18.8281Z" fill="#A7A9AC"/>
<path id="Vector_2" d="M6.48438 10.5469C8.74598 10.5469 10.5859 8.70691 10.5859 6.44531C10.5859 4.18371 8.74598 2.34375 6.48438 2.34375C4.22277 2.34375 2.38281 4.18371 2.38281 6.44531C2.38281 8.70691 4.22277 10.5469 6.48438 10.5469ZM9.35512 5.85938H7.07031V3.57457C8.21656 3.8082 9.12148 4.71312 9.35512 5.85938ZM5.89844 3.57457V7.03125H9.35512C9.08293 8.36688 7.89922 9.375 6.48438 9.375C4.86895 9.375 3.55469 8.06074 3.55469 6.44531C3.55469 5.03051 4.56281 3.8468 5.89844 3.57457Z" fill="#A7A9AC"/>
<path id="Vector_3" d="M11.7578 11.7188H12.9297V14.0625H11.7578V11.7188Z" fill="#A7A9AC"/>
<path id="Vector_4" d="M14.1016 7.03125H15.2734V14.0625H14.1016V7.03125Z" fill="#A7A9AC"/>
<path id="Vector_5" d="M16.4453 9.375H17.6172V14.0625H16.4453V9.375Z" fill="#A7A9AC"/>
<path id="Vector_6" d="M11.7578 2.34375H17.6172V3.51562H11.7578V2.34375Z" fill="#A7A9AC"/>
<path id="Vector_7" d="M11.7578 4.6875H17.6172V5.85938H11.7578V4.6875Z" fill="#A7A9AC"/>
<path id="Vector_8" d="M3.55469 11.7188H9.41406V12.8906H3.55469V11.7188Z" fill="#A7A9AC"/>
</g>
</g>
<defs>
<clipPath id="clip0_894_31648">
<rect width="20" height="20" fill="white"/>
</clipPath>
</defs>
</svg>
