<svg width="20" height="20" viewBox="0 0 20 20" fill="none" xmlns="http://www.w3.org/2000/svg">
<g id="fi_3074347">
<g id="Group">
<path id="Vector" d="M15.2734 5.85938H11.7578V8.28125H9.41406V9.45312H7.07031V12.9688H15.2734V5.85938ZM8.24219 11.7969V10.625H9.41406V11.7969H8.24219ZM10.5859 11.7969V9.45312H11.7578V11.7969H10.5859ZM14.1016 11.7969H12.9297V7.03125H14.1016V11.7969Z" fill="#A7A9AC"/>
<path id="Vector_2" d="M6.48438 4.6875H10V5.85938H6.48438V4.6875Z" fill="#A7A9AC"/>
<path id="Vector_3" d="M6.48438 2.34375H10V3.51562H6.48438V2.34375Z" fill="#A7A9AC"/>
<path id="Vector_4" d="M14.6875 17.6562H18.2031V3.85887L14.3443 0H4.14062V2.34375H1.79688V20H14.6875V17.6562ZM14.6875 2.00051L16.2026 3.51562H14.6875V2.00051ZM5.3125 1.17188H13.5156V4.6875H17.0312V16.4844H5.3125V1.17188ZM2.96875 18.8281V3.51562H4.14062V17.6562H13.5156V18.8281H2.96875Z" fill="#A7A9AC"/>
<path id="Vector_5" d="M10 14.1406H12.3438V15.3125H10V14.1406Z" fill="#A7A9AC"/>
<path id="Vector_6" d="M6.48438 14.1406H8.82812V15.3125H6.48438V14.1406Z" fill="#A7A9AC"/>
<path id="Vector_7" d="M13.5156 14.1406H15.8594V15.3125H13.5156V14.1406Z" fill="#A7A9AC"/>
</g>
</g>
</svg>
