<svg width="20" height="20" viewBox="0 0 20 20" fill="none" xmlns="http://www.w3.org/2000/svg">
<g id="fi_3959695">
<g id="Group">
<path id="Vector" d="M2.46289 15.028H5.67957V16.1997H2.46289V15.028Z" fill="#A7A9AC"/>
<path id="Vector_2" d="M11.1699 15.028H14.3514V16.1997H11.1699V15.028Z" fill="#A7A9AC"/>
<path id="Vector_3" d="M13.1797 9.99921H14.3514V11.171H13.1797V9.99921Z" fill="#A7A9AC"/>
<path id="Vector_4" d="M6.87109 15.028H10.0074V16.1997H6.87109V15.028Z" fill="#A7A9AC"/>
<path id="Vector_5" d="M20 1.32068H3.11586V7.0706H0V18.6794H16.8841V12.9192H20V1.32068ZM4.28766 2.49244H18.8282V7.07056H4.28766V2.49244ZM16.8841 8.24236H18.8282V9.40384H16.8841V8.24236ZM15.7123 17.5076H1.17176V8.24236H15.7123V17.5076ZM16.8841 11.7474V10.5756H18.8282V11.7474H16.8841Z" fill="#A7A9AC"/>
<path id="Vector_6" d="M5.67969 3.66425H8.81629V4.836H5.67969V3.66425Z" fill="#A7A9AC"/>
<path id="Vector_7" d="M5.71691 9.99921H2.42578V13.2904H5.71691V9.99921ZM4.54516 12.1186H3.59754V11.171H4.54512L4.54516 12.1186Z" fill="#A7A9AC"/>
</g>
</g>
</svg>
