<svg width="20" height="20" viewBox="0 0 20 20" fill="none" xmlns="http://www.w3.org/2000/svg">
<g id="fi_5620817" clip-path="url(#clip0_894_31691)">
<path id="Vector" d="M19.1233 14.9708L13.3139 9.1613L14.4897 7.98548C17.9074 9.2164 21.1618 5.62523 19.5825 2.33883L19.2244 1.58919L16.56 4.25363L15.7292 3.42277L18.3936 0.758406L17.644 0.40033C16.0747 -0.349346 14.1937 -0.0263998 12.9635 1.20382C11.8341 2.33323 11.4695 4.01132 11.9974 5.49309L9.9907 7.49977L6.58109 4.0902L6.99658 2.844L5.39673 1.24412L1.81931 0.0305053L0.0292002 1.82057L1.24289 5.39804L2.84278 6.99796L4.08893 6.5824L7.49855 9.99197L5.50393 11.9866C2.0864 10.7554 -1.16808 14.347 0.411205 17.6332L0.769281 18.3828L3.29167 15.8604L4.12246 16.6912L1.6001 19.2136L2.34974 19.5717C3.92582 20.3247 5.80549 19.9929 7.03026 18.7682C8.15971 17.6388 8.52433 15.9607 7.9964 14.4789L9.16 13.3153L14.9694 19.1247C17.8231 21.7769 21.7745 17.8215 19.1233 14.9708ZM4.40624 5.23802L3.16008 5.65358L2.26754 4.761L1.37656 2.13486L2.13364 1.37782L4.75977 2.26872L5.65232 3.16131L5.23675 4.40751L9.15992 8.33056L8.32937 9.16111L4.40624 5.23802ZM6.59445 14.2192L6.7735 14.594C7.79169 16.6892 5.99124 19.1144 3.70689 18.7684L5.78399 16.6912L3.29163 14.1988L1.21446 16.2759C1.08721 15.3775 1.38118 14.4476 2.04544 13.7833C2.9242 12.9046 4.2678 12.6739 5.38878 13.2093L5.76362 13.3883L13.3993 5.75271L13.2202 5.37787C12.6848 4.25696 12.9155 2.91332 13.7943 2.03456C14.4585 1.3703 15.3884 1.0765 16.2868 1.20354L14.0677 3.42273L16.5601 5.91516L18.7792 3.69598C18.9065 4.59443 18.6125 5.5243 17.9483 6.18856C17.0695 7.06736 15.7259 7.29808 14.6049 6.76263L14.2301 6.58357L6.59445 14.2192ZM9.99074 12.4845L12.4832 9.99205L17.4618 14.9707L16.631 15.8015L12.477 11.6476L11.6462 12.4784L15.8002 16.6323L14.9694 17.4631L9.99074 12.4845ZM17.0464 18.8102C16.5756 18.8102 16.1331 18.6268 15.8002 18.2939L18.2926 15.8015C19.3993 16.8906 18.6016 18.8217 17.0464 18.8102Z" fill="#A7A9AC"/>
</g>
<defs>
<clipPath id="clip0_894_31691">
<rect width="20" height="20" fill="white"/>
</clipPath>
</defs>
</svg>
