<svg width="20" height="20" viewBox="0 0 20 20" fill="none" xmlns="http://www.w3.org/2000/svg">
<g id="fi_3364808" clip-path="url(#clip0_894_31695)">
<g id="Group">
<path id="Vector" d="M13.9239 11.9113L11.8049 11.1356C12.6373 10.256 13.1487 9.06949 13.1487 7.76566V4.90648C13.1487 2.20105 10.9476 0 8.24219 0C5.53676 0 3.3357 2.20105 3.3357 4.90645V7.76562C3.3357 9.06941 3.84703 10.2559 4.67949 11.1355L2.56047 11.9113C1.02898 12.472 0 13.9444 0 15.5753V20H16.4844V15.5753C16.4844 13.9444 15.4554 12.472 13.9239 11.9113ZM7.49195 12.6148C7.26242 13.197 6.87098 13.5936 6.32262 13.7968C6.00961 13.9127 5.7034 13.9455 5.48637 13.9509L4.80188 12.3387L5.75129 11.9912C6.27684 12.3022 6.86492 12.5182 7.49195 12.6148ZM10.7331 11.9912L11.6825 12.3387L10.9978 13.9514C10.7898 13.9463 10.4994 13.9157 10.1975 13.8096C9.63039 13.6104 9.22719 13.2094 8.99269 12.6148C9.61961 12.5181 10.2076 12.3021 10.7331 11.9912ZM11.9768 4.90645V5.66504C11.2492 5.50437 10.7762 5.17039 10.4931 4.8941C10.9657 4.58805 11.4078 4.22988 11.8161 3.82207C11.9204 4.16543 11.9768 4.52945 11.9768 4.90645ZM8.24219 1.17188C9.48016 1.17188 10.5791 1.7775 11.2591 2.70789C10.0692 4.03598 8.54813 4.80242 6.73102 4.98711C5.7818 5.08359 4.97355 4.99082 4.50758 4.90965V4.90645C4.50758 2.84723 6.18293 1.17188 8.24219 1.17188ZM4.50758 6.0975C4.87129 6.15211 5.34977 6.20047 5.90457 6.20047C6.18559 6.20047 6.48609 6.18809 6.80098 6.15777C7.73809 6.06758 8.62059 5.83551 9.43402 5.47027C9.83488 5.94527 10.6286 6.63379 11.9768 6.85848V7.76562C11.9768 9.82488 10.3014 11.5002 8.24219 11.5002C6.18293 11.5002 4.50758 9.82484 4.50758 7.76562V6.0975ZM1.17188 15.5753C1.17188 14.4342 1.8918 13.404 2.96332 13.0118L3.7 12.7421L4.68027 15.0508L5.00543 15.0989C5.04023 15.1041 5.19309 15.1245 5.42109 15.1245C5.73457 15.1245 6.19004 15.0858 6.67535 14.9153C6.98777 14.8055 7.33273 14.6329 7.65625 14.363V18.8281H1.17188V15.5753ZM15.3125 18.8281H8.82812V14.363C9.15164 14.6329 9.4966 14.8055 9.80902 14.9153C10.2944 15.0858 10.7498 15.1245 11.0633 15.1245C11.2912 15.1245 11.4441 15.1041 11.4789 15.0989L11.8041 15.0508L12.7844 12.7421L13.5211 13.0118C14.5926 13.404 15.3125 14.4342 15.3125 15.5753V18.8281Z" fill="#A7A9AC"/>
<path id="Vector_2" d="M20 2.34375V1.17188H18.2422V0H17.0703V1.17188H15.3125V4.6875H18.8281V5.85938H15.3125V7.03125H17.0703V8.20312H18.2422V7.03125H20V3.51562H16.4844V2.34375H20Z" fill="#A7A9AC"/>
</g>
</g>
<defs>
<clipPath id="clip0_894_31695">
<rect width="20" height="20" fill="white"/>
</clipPath>
</defs>
</svg>
