<svg width="20" height="20" viewBox="0 0 20 20" fill="none" xmlns="http://www.w3.org/2000/svg">
<path d="M17.1672 7.15357V2.94099H13.6835V4.47357L9.99996 1.63989L0 9.33275L2.09508 12.0561L3.1209 11.267V18.3601H9.03961V13.163H11.1939V18.3601H16.8792V11.267L17.905 12.0561L20 9.33278L17.1672 7.15357ZM15.7059 17.1868H12.3671V11.9897H7.86633V17.1868H4.2941V10.3644L10 5.97517L15.7059 10.3644L15.7059 17.1868ZM17.6904 10.4108L10 4.49466L2.30957 10.4108L1.64527 9.54732L10 3.12013L14.8568 6.85638V4.11423H15.994V7.73126L18.3547 9.54732L17.6904 10.4108Z" fill="white"/>
</svg>
