<svg width="20" height="20" viewBox="0 0 20 20" fill="none" xmlns="http://www.w3.org/2000/svg">
<path d="M4.21094 10H8.58713V11H4.21094V10Z" fill="#A7A9AC"/>
<path d="M4.21094 12H8.58713V13H4.21094V12Z" fill="#A7A9AC"/>
<path d="M13.3398 11.7676H17.1968V12.9395H13.3398V11.7676Z" fill="#A7A9AC"/>
<path d="M13.3398 14.1211H14.6219V15.293H13.3398V14.1211Z" fill="#A7A9AC"/>
<path d="M15.918 14.1211H17.2001V15.293H15.918V14.1211Z" fill="#A7A9AC"/>
<path d="M13.3398 16.4746H14.6219V17.6465H13.3398V16.4746Z" fill="#A7A9AC"/>
<path d="M15.918 16.4746H17.2001V17.6465H15.918V16.4746Z" fill="#A7A9AC"/>
<path d="M17.1986 9.41406V3.87352L12.9608 0H1.77344V18.8232H10.7668V20H19.7734V9.41406H17.1986ZM13.3363 2.00051L15.0099 3.53027H13.3363V2.00051ZM3.05553 17.6514V1.17188H12.0542V4.70215H15.9164V9.41406H10.7667V17.6514H3.05553ZM18.4914 18.8281H12.0489V10.5859H18.4914V18.8281Z" fill="#A7A9AC"/>
<path d="M6.77968 4.9442H6.17791C5.92735 4.9442 5.72349 4.75787 5.72349 4.52885C5.72349 4.29982 5.92735 4.1135 6.17791 4.1135H6.79036C7.03024 4.1135 7.22542 4.29186 7.22542 4.51115H8.5075C8.5075 3.74873 7.90958 3.11182 7.11986 2.97092V2.37549H5.83777V2.97236C5.04258 3.11732 4.44141 3.76002 4.44141 4.52885C4.44141 5.40404 5.2204 6.11607 6.17791 6.11607H6.77968C7.03024 6.11607 7.23409 6.3024 7.23409 6.53143C7.23409 6.76045 7.03024 6.94678 6.77968 6.94678H6.19171C5.94077 6.94678 5.73661 6.76018 5.73661 6.5308H4.45453C4.45453 7.29553 5.04903 7.93561 5.83777 8.08541V8.68475H7.11986V8.08783C7.91501 7.94287 8.51618 7.30018 8.51618 6.53139C8.51618 5.65623 7.73718 4.9442 6.77968 4.9442Z" fill="#A7A9AC"/>
</svg>
