<svg width="20" height="20" viewBox="0 0 20 20" fill="none" xmlns="http://www.w3.org/2000/svg">
<path d="M3.33203 10.0803H8.47259V11.2851H3.33203V10.0803Z" fill="#A7A9AC"/>
<path d="M17.7912 9.73845V1.76709H0V14.2972H10.8887C11.2021 16.5185 13.1153 18.233 15.4217 18.233C17.9461 18.233 20 16.1791 20 13.6546C20 11.9968 19.1143 10.542 17.7912 9.73845ZM16.5863 2.97191V4.93978H1.20482V2.97191H16.5863ZM1.20482 6.1446H16.5863V9.22665C16.2143 9.12874 15.824 9.07633 15.4217 9.07633C13.0875 9.07633 11.1559 10.8322 10.8779 13.0924H1.20482V6.1446ZM15.4217 17.0281C13.5616 17.0281 12.0482 15.5148 12.0482 13.6546C12.0482 11.7945 13.5616 10.2811 15.4217 10.2811C17.2818 10.2811 18.7952 11.7945 18.7952 13.6546C18.7952 15.5148 17.2818 17.0281 15.4217 17.0281Z" fill="#A7A9AC"/>
<path d="M16.023 12.0582H14.8182V13.0522H13.8242V14.257H14.8182V15.251H16.023V14.257H17.017V13.0522H16.023V12.0582Z" fill="#A7A9AC"/>
</svg>
