<svg width="20" height="20" viewBox="0 0 20 20" fill="none" xmlns="http://www.w3.org/2000/svg">
<path d="M15.5882 9.73368V4.77179L11.1277 0H0V20H14.9992V19.9988C21.3166 19.7794 21.7981 10.6873 15.5882 9.73368ZM11.4653 2.10628L13.4461 4.22535H11.4653V2.10628ZM1.17795 18.7928V1.20724H10.2874V5.4326H14.4102V9.7338C10.058 10.2564 8.41564 15.9291 11.7723 18.7927L1.17795 18.7928ZM15.5888 18.7453H14.4108C12.7596 18.4842 11.4515 17.1433 11.1973 15.4508V14.4482C11.4525 12.7569 12.7605 11.2126 14.4108 10.9516H15.5888C17.2392 11.2126 18.5468 12.5523 18.8019 14.2436L18.8023 15.4508C18.5481 17.1433 17.24 18.4842 15.5888 18.7453Z" fill="#A7A9AC"/>
<path d="M15 12.2985H14V15.3731H17V14.3507H15V12.2985Z" fill="#A7A9AC"/>
<path d="M2.86719 7.52539H12.7227V8.73263H2.86719V7.52539Z" fill="#A7A9AC"/>
<path d="M2.86719 2.69629H6.00838V3.90353H2.86719V2.69629Z" fill="#A7A9AC"/>
<path d="M2.86719 5.11084H6.00838V6.31808H2.86719V5.11084Z" fill="#A7A9AC"/>
</svg>
