<svg width="20" height="20" viewBox="0 0 20 20" fill="none" xmlns="http://www.w3.org/2000/svg">
<g id="fi_142310" clip-path="url(#clip0_894_29885)">
<g id="Group">
<path id="Vector" d="M17.0711 2.92903C15.1823 1.04033 12.6711 0.00012207 10 0.00012207C7.32891 0.00012207 4.81769 1.04033 2.92891 2.92903C1.04021 4.81781 0 7.32903 0 10.0001C0 12.6712 1.04021 15.1824 2.92891 17.0712C4.81769 18.9599 7.32891 20.0001 10 20.0001C12.6711 20.0001 15.1823 18.9599 17.0711 17.0712C18.9598 15.1824 20 12.6712 20 10.0001C20 7.32903 18.9598 4.81781 17.0711 2.92903ZM10 18.763C5.16812 18.763 1.23711 14.832 1.23711 10.0001C1.23711 5.16825 5.16812 1.23724 10 1.23724C14.8319 1.23724 18.7629 5.16825 18.7629 10.0001C18.7629 14.832 14.8319 18.763 10 18.763Z" fill="#A7A9AC"/>
<path id="Vector_2" d="M13.1347 9.54596C13.9305 9.54596 14.578 8.8985 14.578 8.10266C14.578 7.30683 13.9305 6.65936 13.1347 6.65936C12.3389 6.65936 11.6914 7.30683 11.6914 8.10266C11.6914 8.8985 12.3389 9.54596 13.1347 9.54596Z" fill="#A7A9AC"/>
<path id="Vector_3" d="M6.86517 9.54596C7.66101 9.54596 8.30847 8.8985 8.30847 8.10266C8.30847 7.30683 7.66101 6.65936 6.86517 6.65936C6.06934 6.65936 5.42188 7.30683 5.42188 8.10266C5.42188 8.8985 6.06938 9.54596 6.86517 9.54596Z" fill="#A7A9AC"/>
<path id="Vector_4" d="M9.99992 14.6393C8.06545 14.6393 6.31538 13.4179 5.64512 11.6L4.48438 12.0279C5.33308 14.3298 7.54961 15.8764 9.99992 15.8764C12.4502 15.8764 14.6668 14.3298 15.5155 12.0279L14.3547 11.6C13.6845 13.4179 11.9344 14.6393 9.99992 14.6393Z" fill="#A7A9AC"/>
</g>
</g>
<defs>
<clipPath id="clip0_894_29885">
<rect width="20" height="20" fill="white"/>
</clipPath>
</defs>
</svg>
