<svg width="28" height="28" viewBox="0 0 28 28" fill="none" xmlns="http://www.w3.org/2000/svg">
<rect opacity="0.1" width="28" height="28" rx="4" fill="#0CAE35"/>
<mask id="mask0_894_33931" style="mask-type:alpha" maskUnits="userSpaceOnUse" x="5" y="5" width="18" height="18">
<rect x="5" y="5" width="18" height="18" fill="#D9D9D9"/>
</mask>
<g mask="url(#mask0_894_33931)">
<path d="M6.49805 22.9999V19.9999H21.498V22.9999H6.49805ZM7.99805 18.4999V15.3124L16.398 6.93113C16.5355 6.79363 16.6949 6.68738 16.8762 6.61238C17.0574 6.53738 17.248 6.49988 17.448 6.49988C17.648 6.49988 17.8418 6.53738 18.0293 6.61238C18.2168 6.68738 18.3855 6.79988 18.5355 6.94988L19.5668 7.99988C19.7168 8.13738 19.8262 8.29988 19.8949 8.48738C19.9637 8.67488 19.998 8.86863 19.998 9.06863C19.998 9.25613 19.9637 9.4405 19.8949 9.62175C19.8262 9.803 19.7168 9.96863 19.5668 10.1186L11.1855 18.4999H7.99805ZM17.448 10.0999L18.498 9.04988L17.448 7.99988L16.398 9.04988L17.448 10.0999Z" fill="#0CAE35"/>
</g>
</svg>
