<svg width="28" height="28" viewBox="0 0 28 28" fill="none" xmlns="http://www.w3.org/2000/svg">
<rect opacity="0.1" width="28" height="28" rx="4" fill="#0CAE35"/>
<mask id="mask0_894_33936" style="mask-type:alpha" maskUnits="userSpaceOnUse" x="5" y="5" width="18" height="18">
<rect x="5" y="5" width="18" height="18" fill="#D9D9D9"/>
</mask>
<g mask="url(#mask0_894_33936)">
<path d="M17.6711 21.4996L17.4461 20.3746C17.2961 20.3121 17.1555 20.2465 17.0242 20.1778C16.893 20.109 16.7586 20.0246 16.6211 19.9246L15.5336 20.2621L14.7836 18.9871L15.6461 18.2371C15.6211 18.0746 15.6086 17.9121 15.6086 17.7496C15.6086 17.5871 15.6211 17.4246 15.6461 17.2621L14.7836 16.5121L15.5336 15.2371L16.6211 15.5746C16.7586 15.4746 16.893 15.3903 17.0242 15.3215C17.1555 15.2528 17.2961 15.1871 17.4461 15.1246L17.6711 13.9996H19.1711L19.3961 15.1246C19.5461 15.1871 19.6867 15.2528 19.818 15.3215C19.9492 15.3903 20.0836 15.4746 20.2211 15.5746L21.3086 15.2371L22.0586 16.5121L21.1961 17.2621C21.2211 17.4246 21.2336 17.5871 21.2336 17.7496C21.2336 17.9121 21.2211 18.0746 21.1961 18.2371L22.0586 18.9871L21.3086 20.2621L20.2211 19.9246C20.0836 20.0246 19.9492 20.109 19.818 20.1778C19.6867 20.2465 19.5461 20.3121 19.3961 20.3746L19.1711 21.4996H17.6711ZM18.4211 19.2496C18.8336 19.2496 19.1867 19.1028 19.4805 18.809C19.7742 18.5153 19.9211 18.1621 19.9211 17.7496C19.9211 17.3371 19.7742 16.984 19.4805 16.6903C19.1867 16.3965 18.8336 16.2496 18.4211 16.2496C18.0086 16.2496 17.6555 16.3965 17.3617 16.6903C17.068 16.984 16.9211 17.3371 16.9211 17.7496C16.9211 18.1621 17.068 18.5153 17.3617 18.809C17.6555 19.1028 18.0086 19.2496 18.4211 19.2496ZM7.99609 19.9996C7.58359 19.9996 7.23047 19.8528 6.93672 19.559C6.64297 19.2653 6.49609 18.9121 6.49609 18.4996V9.49963C6.49609 9.08713 6.64297 8.73401 6.93672 8.44026C7.23047 8.14651 7.58359 7.99963 7.99609 7.99963H19.9961C20.4086 7.99963 20.7617 8.14651 21.0555 8.44026C21.3492 8.73401 21.4961 9.08713 21.4961 9.49963V13.4934C21.2711 13.3309 21.0336 13.1871 20.7836 13.0621C20.5336 12.9371 20.2711 12.8309 19.9961 12.7434V10.9996H7.99609V13.9996H14.7461C14.2586 14.4746 13.8742 15.034 13.593 15.6778C13.3117 16.3215 13.1711 17.0121 13.1711 17.7496C13.1711 18.1496 13.2148 18.5403 13.3023 18.9215C13.3898 19.3028 13.5148 19.6621 13.6773 19.9996H7.99609Z" fill="#0CAE35"/>
</g>
</svg>
