<svg width="28" height="28" viewBox="0 0 28 28" fill="none" xmlns="http://www.w3.org/2000/svg">
<rect opacity="0.1" width="28" height="28" rx="4" fill="#0CAE35"/>
<mask id="mask0_894_33921" style="mask-type:alpha" maskUnits="userSpaceOnUse" x="5" y="5" width="18" height="18">
<rect x="5" y="5" width="18" height="18" fill="#D9D9D9"/>
</mask>
<g mask="url(#mask0_894_33921)">
<path d="M11.934 21.5004L11.634 19.1004C11.4715 19.0379 11.3184 18.9629 11.1746 18.8754C11.0309 18.7879 10.8902 18.6941 10.7527 18.5941L8.52148 19.5316L6.45898 15.9691L8.39023 14.5066C8.37773 14.4191 8.37148 14.3347 8.37148 14.2535V13.7472C8.37148 13.666 8.37773 13.5816 8.39023 13.4941L6.45898 12.0316L8.52148 8.46912L10.7527 9.40662C10.8902 9.30662 11.034 9.21287 11.184 9.12537C11.334 9.03787 11.484 8.96287 11.634 8.90037L11.934 6.50037H16.059L16.359 8.90037C16.5215 8.96287 16.6746 9.03787 16.8184 9.12537C16.9621 9.21287 17.1027 9.30662 17.2402 9.40662L19.4715 8.46912L21.534 12.0316L19.6027 13.4941C19.6152 13.5816 19.6215 13.666 19.6215 13.7472V14.2535C19.6215 14.3347 19.609 14.4191 19.584 14.5066L21.5152 15.9691L19.4527 19.5316L17.2402 18.5941C17.1027 18.6941 16.959 18.7879 16.809 18.8754C16.659 18.9629 16.509 19.0379 16.359 19.1004L16.059 21.5004H11.934ZM14.034 16.6254C14.759 16.6254 15.3777 16.3691 15.8902 15.8566C16.4027 15.3441 16.659 14.7254 16.659 14.0004C16.659 13.2754 16.4027 12.6566 15.8902 12.1441C15.3777 11.6316 14.759 11.3754 14.034 11.3754C13.2965 11.3754 12.6746 11.6316 12.1684 12.1441C11.6621 12.6566 11.409 13.2754 11.409 14.0004C11.409 14.7254 11.6621 15.3441 12.1684 15.8566C12.6746 16.3691 13.2965 16.6254 14.034 16.6254Z" fill="#0CAE35"/>
</g>
</svg>
