<svg width="28" height="28" viewBox="0 0 28 28" fill="none" xmlns="http://www.w3.org/2000/svg">
<rect opacity="0.1" width="28" height="28" rx="4" fill="#0CAE35"/>
<mask id="mask0_894_33926" style="mask-type:alpha" maskUnits="userSpaceOnUse" x="4" y="4" width="20" height="20">
<rect x="4" y="4" width="20" height="20" fill="#D9D9D9"/>
</mask>
<g mask="url(#mask0_894_33926)">
<path d="M9.83203 16.5C10.5265 16.5 11.1168 16.2569 11.6029 15.7708C12.089 15.2847 12.332 14.6944 12.332 14C12.332 13.3056 12.089 12.7153 11.6029 12.2292C11.1168 11.7431 10.5265 11.5 9.83203 11.5C9.13759 11.5 8.54731 11.7431 8.0612 12.2292C7.57509 12.7153 7.33203 13.3056 7.33203 14C7.33203 14.6944 7.57509 15.2847 8.0612 15.7708C8.54731 16.2569 9.13759 16.5 9.83203 16.5ZM9.83203 19C8.44314 19 7.26259 18.5139 6.29036 17.5417C5.31814 16.5694 4.83203 15.3889 4.83203 14C4.83203 12.6111 5.31814 11.4306 6.29036 10.4583C7.26259 9.48611 8.44314 9 9.83203 9C10.957 9 11.9397 9.31944 12.7799 9.95833C13.6202 10.5972 14.207 11.3889 14.5404 12.3333H21.5195L23.1654 13.9792L20.2487 17.3125L18.1654 15.6667L16.4987 17.3333L14.832 15.6667H14.5404C14.1931 16.6667 13.589 17.4722 12.7279 18.0833C11.8668 18.6944 10.9015 19 9.83203 19Z" fill="#0CAE35"/>
</g>
</svg>
