<svg width="20" height="20" viewBox="0 0 20 20" fill="none" xmlns="http://www.w3.org/2000/svg">
<g clip-path="url(#clip0_1661_712)">
<mask id="mask0_1661_712" style="mask-type:luminance" maskUnits="userSpaceOnUse" x="0" y="0" width="20" height="20">
<path d="M10 20C15.5228 20 20 15.5228 20 10C20 4.47715 15.5228 0 10 0C4.47715 0 0 4.47715 0 10C0 15.5228 4.47715 20 10 20Z" fill="white"/>
</mask>
<g mask="url(#mask0_1661_712)">
<path d="M-5 0H25V20H-5V0Z" fill="#005BBB"/>
</g>
<mask id="mask1_1661_712" style="mask-type:luminance" maskUnits="userSpaceOnUse" x="0" y="0" width="20" height="20">
<path d="M10 20C15.5228 20 20 15.5228 20 10C20 4.47715 15.5228 0 10 0C4.47715 0 0 4.47715 0 10C0 15.5228 4.47715 20 10 20Z" fill="white"/>
</mask>
<g mask="url(#mask1_1661_712)">
<path d="M-5 10H25V20H-5V10Z" fill="#FFD500"/>
</g>
</g>
<defs>
<clipPath id="clip0_1661_712">
<rect width="20" height="20" fill="white"/>
</clipPath>
</defs>
</svg>
