<svg width="23" height="22" viewBox="0 0 23 22" fill="none" xmlns="http://www.w3.org/2000/svg">
<g id="01 align center">
<path id="Vector" d="M16.8085 6.61111C16.4011 4.85962 15.3644 3.31885 13.8954 2.28168C12.4264 1.2445 10.6276 0.783231 8.84073 0.985539C7.05391 1.18785 5.4037 2.03963 4.20379 3.37898C3.00387 4.71833 2.3379 6.45188 2.33245 8.25011C2.33111 9.42203 2.61422 10.5768 3.15745 11.6152C2.16849 12.1452 1.38499 12.9904 0.931437 14.0167C0.477888 15.0429 0.380306 16.1913 0.654194 17.2794C0.928082 18.3675 1.55773 19.3328 2.4431 20.022C3.32847 20.7113 4.41877 21.0849 5.54079 21.0834H11.4991V19.2501H5.54079C4.76017 19.2524 4.00563 18.9694 3.41918 18.4542C2.83272 17.939 2.45481 17.2272 2.35657 16.4528C2.25834 15.6783 2.44655 14.8947 2.88578 14.2494C3.32502 13.6041 3.98498 13.1416 4.74145 12.9489L6.0587 12.6089L5.24929 11.5153C4.54486 10.5725 4.16473 9.42697 4.16579 8.25011C4.17624 6.86226 4.71101 5.52968 5.66283 4.5196C6.61466 3.50952 7.91316 2.89664 9.29795 2.80385C10.6827 2.71107 12.0514 3.14525 13.1295 4.01932C14.2075 4.89339 14.9153 6.14273 15.1108 7.51677L15.2025 8.21161L15.8964 8.30327C17.121 8.46378 18.2558 9.0325 19.1173 9.91754C19.9789 10.8026 20.5168 11.9522 20.6443 13.1808C20.7718 14.4093 20.4814 15.6449 19.8199 16.688C19.1585 17.7311 18.1647 18.5207 16.9991 18.9293V20.8424C18.5889 20.4335 19.9953 19.5024 20.9924 18.1984C21.9896 16.8944 22.5197 15.2932 22.4977 13.6518C22.4757 12.0104 21.9029 10.424 20.8712 9.14717C19.8394 7.87036 18.4087 6.97723 16.8085 6.61111Z" fill="#5390F3"/>
<path id="Vector_2" d="M17.2679 16.2317L18.5641 14.9355L15.5455 11.9169C15.2017 11.5732 14.7354 11.3801 14.2493 11.3801C13.7632 11.3801 13.2969 11.5732 12.9531 11.9169L9.93457 14.9355L11.2307 16.2317L13.3326 14.1297V22.0002H15.166V14.1297L17.2679 16.2317Z" fill="#5390F3"/>
</g>
</svg>
