<svg xmlns="http://www.w3.org/2000/svg" width="29" height="28" viewBox="0 0 29 28" fill="none">
    <circle cx="14.5" cy="14" r="14" fill="#2F80ED"/>
    <mask id="mask0_1451_17184" style="mask-type:alpha" maskUnits="userSpaceOnUse" x="6" y="6" width="17" height="16">
        <rect x="6.5" y="6" width="16" height="16" fill="#D9D9D9"/>
    </mask>
    <g mask="url(#mask0_1451_17184)">
        <path d="M10.8327 19.3333C9.82157 19.3333 8.95768 18.9833 8.24102 18.2833C7.52435 17.5833 7.16602 16.7278 7.16602 15.7167C7.16602 14.85 7.42713 14.0778 7.94935 13.4C8.47157 12.7222 9.1549 12.2889 9.99935 12.1C10.2549 11.2 10.7299 10.4445 11.4243 9.83334C12.1188 9.22223 12.9216 8.85001 13.8327 8.71667V14.1L12.766 13.0667L11.8327 14L14.4993 16.6667L17.166 14L16.2327 13.0667L15.166 14.1V8.71667C16.3105 8.87223 17.2632 9.38612 18.0243 10.2583C18.7855 11.1306 19.166 12.1556 19.166 13.3333C19.9327 13.4222 20.5688 13.7528 21.0744 14.325C21.5799 14.8972 21.8327 15.5667 21.8327 16.3333C21.8327 17.1667 21.541 17.875 20.9577 18.4583C20.3743 19.0417 19.666 19.3333 18.8327 19.3333H10.8327Z" fill="white"/>
    </g>
</svg>