<svg width="20" height="20" viewBox="0 0 20 20" fill="none" xmlns="http://www.w3.org/2000/svg">
<g id="icon" clip-path="url(#clip0_894_32514)">
<path id="Vector" d="M5.93674 0L2.5 3.43674V20H17.4609V0H5.93674ZM16.2891 12.2136H3.67188V4.7937H7.29355V1.17188H16.2891V12.2136ZM6.12167 1.47247V3.62183H3.97232L6.12167 1.47247ZM3.67188 18.8281V13.3855H16.2891V18.8281H3.67188Z" fill="white"/>
<path id="Vector_2" d="M7.55615 14.3435L6.91223 15.4618L6.26816 14.3435H5.21484L6.39801 16.1408L5.25482 17.8881H6.30814L6.91223 16.8197L7.51633 17.8881H8.56461L7.42142 16.1408L8.60458 14.3435H7.55615Z" fill="white"/>
<path id="Vector_3" d="M9.82898 14.3435H8.85547V17.8881H11.4365V17.0394H9.82898V14.3435Z" fill="white"/>
<path id="Vector_4" d="M14.1362 16.0833C14.0429 16.0018 13.9306 15.9312 13.7993 15.8712C13.6677 15.8112 13.5205 15.7563 13.3574 15.7064C13.2542 15.6732 13.1619 15.6449 13.0803 15.6216C12.9988 15.5984 12.9297 15.5741 12.8732 15.5493C12.8166 15.5242 12.7733 15.4968 12.7433 15.4669C12.7134 15.4368 12.6985 15.3987 12.6985 15.352C12.6985 15.2888 12.7241 15.2439 12.7758 15.2172C12.8274 15.1907 12.8964 15.1772 12.9829 15.1772C13.0894 15.1772 13.1985 15.1948 13.3099 15.2297C13.4214 15.2647 13.5222 15.3021 13.612 15.342C13.7185 15.3886 13.8217 15.4418 13.9215 15.5018L14.3409 14.698C14.261 14.6581 14.1711 14.6156 14.0713 14.5707C13.9714 14.5258 13.8641 14.4842 13.7494 14.4459C13.6345 14.4077 13.5154 14.376 13.3923 14.3511C13.2692 14.3261 13.1427 14.3136 13.013 14.3136C12.8364 14.3136 12.6692 14.3395 12.5113 14.391C12.353 14.4427 12.2125 14.5184 12.0894 14.6182C11.9662 14.718 11.8689 14.8428 11.7973 14.9926C11.7256 15.1423 11.6899 15.3155 11.6899 15.5119C11.6899 15.6416 11.7074 15.7565 11.7424 15.8563C11.7773 15.9561 11.8313 16.0452 11.9046 16.1233C11.9778 16.2016 12.071 16.2715 12.1841 16.3331C12.2973 16.3946 12.4321 16.4521 12.5885 16.5052C12.6951 16.5418 12.7957 16.5736 12.8906 16.6001C12.9854 16.6268 13.0694 16.6534 13.1427 16.6799C13.2159 16.7066 13.2733 16.7375 13.3149 16.7722C13.3564 16.8073 13.3773 16.8498 13.3773 16.8997C13.3773 16.9462 13.3564 16.9837 13.3149 17.012C13.2733 17.0402 13.1993 17.0544 13.0928 17.0544C12.953 17.0544 12.8157 17.0344 12.6809 16.9944C12.5461 16.9544 12.4254 16.9096 12.3188 16.8597C12.1924 16.8031 12.0709 16.7382 11.9545 16.665L11.5352 17.5186C11.6417 17.5819 11.7573 17.6385 11.8821 17.6884C12.007 17.7383 12.1367 17.7816 12.2715 17.8181C12.4063 17.8549 12.5419 17.8831 12.6783 17.9029C12.8148 17.9229 12.948 17.933 13.0778 17.933C13.2408 17.933 13.403 17.9138 13.5646 17.8755C13.7259 17.8373 13.8707 17.7749 13.9988 17.6882C14.1269 17.6019 14.2302 17.4861 14.3084 17.3414C14.3866 17.1966 14.4256 17.0176 14.4256 16.8046C14.4256 16.6383 14.4008 16.4968 14.3509 16.3804C14.301 16.264 14.2294 16.1649 14.1362 16.0833Z" fill="white"/>
<path id="Vector_5" d="M10.4098 6.61618H4.9082V10.3911H15.0519V4.03638H10.4098V6.61618ZM6.08008 7.78806H10.4098V9.21918H6.08008V7.78806ZM13.8801 9.21918H11.5816V7.78806H13.8801V9.21918ZM11.5816 5.20825H13.8801V6.61603H11.5816V5.20825Z" fill="white"/>
</g>
<defs>
<clipPath id="clip0_894_32514">
<rect width="20" height="20" fill="white"/>
</clipPath>
</defs>
</svg>
