<svg width="24" height="24" viewBox="0 0 24 24" fill="none" xmlns="http://www.w3.org/2000/svg">
<g id="Frame" clip-path="url(#clip0_2059_12793)">
<path id="Vector" d="M12 24C18.6274 24 24 18.6274 24 12C24 5.37257 18.6274 0 12 0C5.37257 0 0 5.37257 0 12C0 18.6274 5.37257 24 12 24Z" fill="#0098EA"/>
<path id="Vector_2" d="M16.0973 6.69751H7.90226C6.39549 6.69751 5.44046 8.32287 6.19852 9.63682L11.2562 18.4032C11.5862 18.9756 12.4133 18.9756 12.7434 18.4032L17.802 9.63682C18.5591 8.32497 17.604 6.69751 16.0983 6.69751H16.0973ZM11.2521 15.7743L10.1506 13.6425L7.49284 8.8891C7.31752 8.58485 7.53407 8.19498 7.90123 8.19498H11.251V15.7753L11.2521 15.7743ZM16.5046 8.88807L13.8479 13.6435L12.7464 15.7743V8.19395H16.0962C16.4634 8.19395 16.68 8.58382 16.5046 8.88807Z" fill="white"/>
</g>
<defs>
<clipPath id="clip0_2059_12793">
<rect width="24" height="24" fill="white"/>
</clipPath>
</defs>
</svg>
