<svg width="12" height="12" viewBox="0 0 12 12" fill="none" xmlns="http://www.w3.org/2000/svg">
<g id="solanaLogoMark 1" clip-path="url(#clip0_2167_60)">
<path id="Vector" d="M11.9382 9.19199L9.95724 11.2846C9.91419 11.3301 9.86208 11.3663 9.80418 11.3911C9.74628 11.4159 9.68382 11.4286 9.62071 11.4286H0.229976C0.185167 11.4286 0.141335 11.4157 0.103866 11.3915C0.0663955 11.3673 0.0369196 11.3329 0.0190593 11.2924C0.00119909 11.2519 -0.0042675 11.2072 0.00333127 11.1637C0.01093 11.1202 0.0312631 11.0798 0.0618323 11.0475L2.04429 8.95489C2.08724 8.90955 2.13917 8.87338 2.19688 8.84862C2.2546 8.82385 2.31686 8.81102 2.37981 8.81092H11.77C11.8148 8.81092 11.8587 8.82382 11.8962 8.84801C11.9336 8.87222 11.9631 8.90668 11.981 8.94715C11.9988 8.98764 12.0043 9.03236 11.9967 9.07586C11.9891 9.11936 11.9688 9.15973 11.9382 9.19199ZM9.95724 4.97802C9.91419 4.93256 9.86208 4.89632 9.80418 4.87155C9.74628 4.84679 9.68382 4.83402 9.62071 4.83405H0.229976C0.185167 4.83405 0.141335 4.84694 0.103866 4.87115C0.0663955 4.89536 0.0369196 4.92981 0.0190593 4.97028C0.00119909 5.01076 -0.0042675 5.0555 0.00333127 5.099C0.01093 5.14249 0.0312631 5.18285 0.0618323 5.21513L2.04429 7.30777C2.08724 7.3531 2.13917 7.38926 2.19688 7.41403C2.2546 7.43879 2.31686 7.45163 2.37981 7.45173H11.77C11.8148 7.45173 11.8587 7.43884 11.8962 7.41463C11.9336 7.39043 11.9631 7.35598 11.981 7.3155C11.9988 7.27502 12.0043 7.23028 11.9967 7.18678C11.9891 7.1433 11.9688 7.10293 11.9382 7.07065L9.95724 4.97802ZM0.229976 3.47487H9.62071C9.68382 3.47489 9.74628 3.46213 9.80418 3.43736C9.86208 3.41259 9.91419 3.37635 9.95724 3.33089L11.9382 1.23825C11.9688 1.20598 11.9891 1.16562 11.9967 1.12212C12.0043 1.07863 11.9988 1.03389 11.981 0.993415C11.9631 0.952937 11.9336 0.91848 11.8962 0.894277C11.8587 0.870074 11.8148 0.857179 11.77 0.857178H2.37981C2.31686 0.857283 2.2546 0.870116 2.19688 0.89488C2.13917 0.919645 2.08724 0.955815 2.04429 1.00115L0.0623433 3.09379C0.0318037 3.12602 0.0114796 3.16635 0.00386358 3.20979C-0.00375242 3.25324 0.00167078 3.29794 0.019468 3.3384C0.0372654 3.37886 0.0666631 3.41331 0.104056 3.43756C0.141449 3.4618 0.185211 3.47476 0.229976 3.47487Z" fill="url(#paint0_linear_2167_60)"/>
</g>
<defs>
<linearGradient id="paint0_linear_2167_60" x1="1.01294" y1="11.6806" x2="10.6944" y2="0.600518" gradientUnits="userSpaceOnUse">
<stop offset="0.08" stop-color="#9945FF"/>
<stop offset="0.3" stop-color="#8752F3"/>
<stop offset="0.5" stop-color="#5497D5"/>
<stop offset="0.6" stop-color="#43B4CA"/>
<stop offset="0.72" stop-color="#28E0B9"/>
<stop offset="0.97" stop-color="#19FB9B"/>
</linearGradient>
<clipPath id="clip0_2167_60">
<rect width="12" height="10.5714" fill="white" transform="translate(0 0.857178)"/>
</clipPath>
</defs>
</svg>
